<svg width="691" height="241" viewBox="0 0 691 241" fill="none" xmlns="http://www.w3.org/2000/svg">
<path d="M587.086 239.991H63.6442C29.0474 239.991 1 212.251 1 178.03V62.9722C1 28.7512 29.0474 1.00842 63.6442 1.00842H624.955C659.05 1.00842 674.217 0.295959 683.352 11.9778C693.027 24.3466 691.8 33.7994 681.891 45.0004L672.519 56.8145C666.605 64.2724 661.584 72.3487 656.516 80.3944C650.512 89.9261 647.091 98.094 647.091 98.094C640.603 111.862 635.649 129.6 633.287 142.669C633.287 142.669 628.803 161.806 629.395 186.195C629.601 194.711 629.75 204.281 631.401 211.284C633.861 221.714 634.231 226.418 629.042 232.406C621.961 240.576 604.972 239.991 587.086 239.991Z" stroke="#FBF4EE" stroke-width="2" stroke-miterlimit="10"/>
</svg>
