<svg width="726" height="75" viewBox="0 0 726 75" fill="none" xmlns="http://www.w3.org/2000/svg">
<path d="M36.16 46.92C35.904 47.496 35.008 49.48 34.304 50.76C32.128 54.664 29.248 56.84 28.928 57.096C26.368 59.016 22.272 60.616 19.264 60.616C14.912 60.616 12.16 57.736 12.16 52.552C12.16 49.672 12.928 46.088 13.632 43.592L16.832 31.944C17.856 28.104 19.072 24.456 21.568 21.768C23.424 19.784 26.048 18.376 28.736 18.376C30.784 18.376 33.408 19.208 35.072 22.344C35.968 24.072 36.48 26.248 36.48 29.192C36.48 30.344 36.416 31.304 36.224 32.328H37.632L41.408 17.096H40.064C39.744 18.696 38.208 19.208 37.12 19.208C36.352 19.208 35.648 18.952 34.944 18.632C33.024 17.864 31.488 17.096 28.736 17.096C24.512 17.096 20.096 18.888 16.576 21.448C12.288 24.584 8.512 29.32 6.4 33.672C3.776 39.112 3.584 43.976 3.584 45.448C3.584 51.4 5.76 55.24 8 57.608C11.072 60.872 14.592 61.896 18.496 61.896C20.352 61.896 22.528 61.576 24.896 60.744C27.456 59.848 28.864 58.632 30.208 58.632C32.192 58.632 32.576 60.616 32.384 61.896H33.856L37.568 46.92H36.16ZM71.394 33.224H57.058L56.738 34.312H63.138L60.578 44.04C60.258 45.128 59.682 46.6 59.682 48.392C59.682 49.544 60.002 50.76 60.706 51.528C61.666 52.552 63.65 52.936 64.866 52.936C66.786 52.936 69.282 52.104 71.842 50.12C72.93 49.224 73.89 48.328 74.658 47.368L73.25 53C72.93 54.152 72.738 54.984 72.738 56.328C72.738 57.672 72.93 59.4 74.274 60.616C74.594 60.872 75.81 61.896 77.986 61.896C79.522 61.896 80.802 61.384 81.954 60.552C83.81 59.208 85.73 56.648 86.818 55.048C87.522 53.96 88.418 52.616 88.994 51.528L88.098 51.08C87.394 52.296 86.434 53.896 85.666 54.984C84.898 56.072 82.658 59.08 81.378 59.08C80.802 59.08 80.546 58.76 80.546 58.12C80.546 57.544 80.738 56.968 80.994 55.816L86.626 33.224H78.178L75.362 44.488C74.146 46.792 72.93 48.072 71.522 49.224C69.794 50.568 68.898 50.696 68.514 50.696C67.81 50.696 67.234 50.376 67.234 49.416C67.234 48.776 67.618 47.88 68.13 45.96L71.394 33.224ZM93.5355 49.404H112.515C112.515 46.856 112.255 44.568 111.839 42.488C111.423 40.408 110.695 38.588 109.655 37.132C108.615 35.676 107.263 34.532 105.599 33.7C103.935 32.92 101.855 32.504 99.4115 32.504C97.0715 32.504 95.0955 32.868 93.4835 33.7C91.8195 34.48 90.4155 35.52 89.3755 36.872C88.3355 38.172 87.5555 39.68 87.0875 41.448C86.5675 43.164 86.3075 44.984 86.3075 46.856C86.3075 49.56 86.6715 51.848 87.3475 53.772C88.0235 55.644 89.0115 57.204 90.2075 58.4C91.4035 59.596 92.8075 60.48 94.4715 61C96.0315 61.572 97.7995 61.832 99.6195 61.832C101.075 61.832 102.375 61.676 103.571 61.364C104.715 61.052 105.755 60.688 106.691 60.168C107.679 59.7 108.459 59.076 109.135 58.452C109.811 57.828 110.383 57.152 110.851 56.476C111.267 55.8 111.579 55.176 111.839 54.5C112.047 53.876 112.151 53.304 112.151 52.784H104.715C104.559 53.304 104.351 53.72 104.039 54.136C103.727 54.5 103.363 54.864 102.947 55.124C102.479 55.436 102.063 55.644 101.543 55.748C101.075 55.904 100.555 56.008 100.035 56.008C99.0475 56.008 98.2155 55.852 97.5395 55.592C96.8115 55.384 96.2395 55.02 95.7715 54.604C95.2515 54.24 94.8355 53.772 94.5755 53.252C94.3155 52.784 94.0555 52.264 93.8995 51.796C93.7435 51.276 93.6395 50.86 93.6395 50.392C93.5875 49.976 93.5355 49.664 93.5355 49.404ZM105.027 44.62H93.7955C93.7955 43.424 93.9515 42.384 94.3675 41.552C94.6795 40.772 95.1475 40.096 95.7195 39.628C96.2395 39.16 96.8635 38.796 97.5395 38.588C98.1635 38.432 98.8395 38.328 99.4115 38.328C100.035 38.328 100.659 38.432 101.283 38.588C101.959 38.796 102.583 39.16 103.155 39.628C103.675 40.096 104.143 40.772 104.507 41.552C104.871 42.384 105.027 43.424 105.027 44.62ZM130.126 39.16V33.336H111.51V61H118.686V39.16H130.126ZM153.591 44.296C153.591 41.224 152.312 38.024 150.264 35.848C148.024 33.48 144.823 32.328 141.879 32.328C138.872 32.328 135.287 33.544 132.791 35.016C127.543 38.088 124.343 43.4 124.343 48.968C124.343 51.976 125.367 55.368 126.967 57.544C129.207 60.488 132.791 61.896 136.311 61.896C141.303 61.896 146.231 59.016 149.431 55.048C151.927 51.976 153.591 47.752 153.591 44.296ZM134.967 41.736C135.543 39.496 136.375 36.552 138.295 34.888C139.191 34.12 140.599 33.48 141.879 33.48C143.927 33.48 145.911 34.952 145.911 37.96C145.911 39.688 145.271 42.056 144.951 43.144L142.199 53.256C141.24 56.776 140.215 58.376 139.319 59.208C138.423 60.04 137.015 60.744 135.543 60.744C133.943 60.744 132.919 60.04 132.343 59.272C131.831 58.504 131.511 57.416 131.511 56.328C131.511 55.112 131.831 53.576 132.087 52.552L134.967 41.736ZM189.487 43.112H196.975C196.871 41.708 196.611 40.46 196.195 39.42C195.779 38.38 195.259 37.444 194.635 36.664C193.959 35.884 193.231 35.208 192.451 34.688C191.619 34.168 190.787 33.752 189.903 33.388C189.019 33.076 188.135 32.816 187.251 32.712C186.315 32.608 185.431 32.504 184.599 32.504C182.675 32.504 180.855 32.816 179.295 33.492C177.683 34.116 176.331 35.052 175.187 36.3C174.043 37.548 173.159 39.108 172.535 40.876C171.911 42.696 171.599 44.776 171.599 47.168C171.599 49.508 171.911 51.588 172.483 53.408C173.055 55.28 173.887 56.788 174.979 58.036C176.071 59.284 177.423 60.22 179.035 60.896C180.647 61.52 182.519 61.832 184.599 61.832C186.211 61.832 187.667 61.624 188.915 61.208C190.163 60.792 191.203 60.272 192.139 59.596C193.075 58.972 193.803 58.244 194.479 57.412C195.051 56.58 195.571 55.748 195.935 54.968C196.299 54.136 196.559 53.408 196.767 52.628C196.923 51.9 196.975 51.328 196.975 50.86H189.487C189.487 51.328 189.383 51.848 189.227 52.368C189.019 52.94 188.707 53.46 188.291 53.98C187.875 54.448 187.355 54.864 186.783 55.176C186.159 55.54 185.431 55.696 184.599 55.696C183.351 55.696 182.363 55.436 181.635 54.864C180.855 54.344 180.335 53.616 179.971 52.784C179.555 51.952 179.347 51.068 179.243 50.028C179.139 49.04 179.087 48.052 179.087 47.168C179.087 46.284 179.191 45.348 179.295 44.36C179.451 43.372 179.659 42.436 180.075 41.552C180.439 40.72 181.011 40.044 181.739 39.472C182.467 38.9 183.403 38.64 184.599 38.64C185.379 38.64 186.055 38.744 186.627 38.9C187.147 39.108 187.615 39.368 188.031 39.784C188.395 40.148 188.707 40.616 188.915 41.188C189.175 41.708 189.331 42.384 189.487 43.112ZM208.754 33.224H194.418L194.098 34.312H200.498L193.33 61H201.586L205.81 44.616C207.282 41.608 208.69 40.072 210.738 37.896C212.21 36.296 214.066 34.44 215.602 34.44C216.562 34.44 217.394 35.08 217.394 36.36C217.394 36.808 217.33 37.64 216.37 41.096L210.994 61H219.25L223.474 44.616C224.946 41.608 226.354 40.072 228.338 37.96C229.618 36.616 231.602 34.44 233.202 34.44C233.97 34.44 234.674 34.888 234.674 36.04C234.674 37.32 233.97 39.496 233.586 41.096L230.642 53C230.322 54.216 230.13 54.984 230.13 56.328C230.13 57.672 230.322 59.4 231.666 60.616C232.562 61.448 233.906 61.896 235.314 61.896C236.658 61.896 238.002 61.512 239.346 60.552C240.498 59.72 241.842 58.184 242.674 57.224C244.21 55.368 244.914 54.024 246.386 51.528L245.49 51.08C244.082 53.704 242.482 55.816 241.714 56.84C240.114 58.888 239.218 59.08 238.834 59.08C238.194 59.08 238.002 58.632 238.002 57.992C238.002 57.416 238.194 56.968 238.45 55.816L241.586 43.272C242.034 41.544 242.482 40.264 242.482 38.472C242.482 37.512 242.354 36.104 241.586 34.824C240.498 32.968 238.77 32.328 236.786 32.328C232.754 32.328 229.746 35.08 227.826 37C226.482 38.344 225.586 39.432 224.69 40.648L224.626 40.52C224.754 39.88 224.818 39.176 224.818 38.536C224.818 37.448 224.69 36.104 223.922 34.824C222.834 32.968 221.106 32.328 219.186 32.328C215.09 32.328 212.018 35.08 210.226 36.936C208.882 38.28 207.794 39.56 206.706 41.096L208.754 33.224ZM243.168 47.168C243.168 49.3 243.532 51.276 244.156 53.044C244.78 54.864 245.716 56.424 246.964 57.724C248.212 58.972 249.668 60.012 251.436 60.74C253.204 61.468 255.128 61.832 257.312 61.832C259.548 61.832 261.524 61.468 263.292 60.74C265.06 60.012 266.516 58.972 267.712 57.724C268.908 56.424 269.844 54.864 270.52 53.044C271.144 51.276 271.456 49.3 271.456 47.168C271.456 45.036 271.144 43.06 270.52 41.292C269.844 39.472 268.908 37.912 267.712 36.612C266.516 35.312 265.06 34.324 263.292 33.596C261.524 32.868 259.548 32.504 257.312 32.504C255.128 32.504 253.204 32.868 251.436 33.596C249.668 34.324 248.212 35.312 246.964 36.612C245.716 37.912 244.78 39.472 244.156 41.292C243.532 43.06 243.168 45.036 243.168 47.168ZM250.656 47.168C250.656 46.128 250.812 45.088 251.02 44.048C251.228 43.008 251.592 42.124 252.164 41.292C252.684 40.512 253.36 39.836 254.192 39.368C255.024 38.9 256.064 38.64 257.312 38.64C258.612 38.64 259.704 38.848 260.536 39.316C261.368 39.836 262.044 40.46 262.564 41.24C263.084 42.02 263.448 42.956 263.656 43.996C263.864 45.036 263.968 46.076 263.968 47.168C263.968 48.26 263.864 49.3 263.656 50.34C263.448 51.38 263.084 52.264 262.564 53.044C262.044 53.824 261.368 54.5 260.536 54.968C259.704 55.436 258.612 55.696 257.312 55.696C256.064 55.696 255.024 55.436 254.192 54.968C253.36 54.5 252.684 53.824 252.164 52.992C251.592 52.212 251.228 51.276 251.02 50.236C250.812 49.248 250.656 48.208 250.656 47.168ZM300.291 33.224H291.779L287.683 48.712C286.403 51.848 284.547 54.152 282.371 56.328C279.171 59.528 277.891 59.656 277.443 59.656C276.227 59.656 276.227 58.504 276.227 58.312C276.227 57.288 276.483 56.52 276.739 55.624L282.499 33.224H268.163L267.843 34.312H274.307L269.827 50.952C269.315 52.872 268.867 54.664 268.867 56.456C268.867 57.736 269.123 59.144 270.147 60.296C271.235 61.576 272.515 61.896 273.859 61.896C278.019 61.896 280.899 59.272 282.883 57.224C284.419 55.624 285.507 54.408 286.723 52.616H286.979L286.851 53C286.531 54.024 286.339 55.368 286.339 56.456C286.339 57.672 286.531 59.4 287.875 60.616C288.771 61.448 290.115 61.896 291.587 61.896C293.187 61.896 294.403 61.384 295.555 60.552C296.899 59.592 297.859 58.504 298.883 57.224C300.163 55.624 301.251 54.024 302.595 51.528L301.699 51.08C301.059 52.232 299.843 54.344 297.859 56.904C296.323 58.888 295.427 59.08 294.915 59.08C294.339 59.08 294.147 58.696 294.147 58.12C294.147 57.608 294.275 57.224 294.659 55.816L300.291 33.224ZM313.921 33.224H299.585L299.265 34.312H305.665L298.497 61H306.753L310.977 44.616C312.449 41.608 313.857 40.072 315.905 37.896C317.377 36.296 319.233 34.44 320.769 34.44C321.729 34.44 322.561 35.08 322.561 36.36C322.561 36.808 322.497 37.64 321.537 41.096L316.161 61H324.417L328.641 44.616C330.113 41.608 331.521 40.072 333.505 37.96C334.785 36.616 336.769 34.44 338.369 34.44C339.137 34.44 339.841 34.888 339.841 36.04C339.841 37.32 339.137 39.496 338.753 41.096L335.809 53C335.489 54.216 335.297 54.984 335.297 56.328C335.297 57.672 335.489 59.4 336.833 60.616C337.729 61.448 339.073 61.896 340.481 61.896C341.825 61.896 343.169 61.512 344.513 60.552C345.665 59.72 347.009 58.184 347.841 57.224C349.377 55.368 350.081 54.024 351.553 51.528L350.657 51.08C349.249 53.704 347.649 55.816 346.881 56.84C345.281 58.888 344.385 59.08 344.001 59.08C343.361 59.08 343.169 58.632 343.169 57.992C343.169 57.416 343.361 56.968 343.617 55.816L346.753 43.272C347.201 41.544 347.649 40.264 347.649 38.472C347.649 37.512 347.521 36.104 346.753 34.824C345.665 32.968 343.937 32.328 341.953 32.328C337.921 32.328 334.913 35.08 332.993 37C331.649 38.344 330.753 39.432 329.857 40.648L329.793 40.52C329.921 39.88 329.985 39.176 329.985 38.536C329.985 37.448 329.857 36.104 329.089 34.824C328.001 32.968 326.273 32.328 324.353 32.328C320.257 32.328 317.185 35.08 315.393 36.936C314.049 38.28 312.961 39.56 311.873 41.096L313.921 33.224ZM377.488 43.32V33.336H370.312V61H377.488V49.144H388.044V61H395.22V33.336H388.044V43.32H377.488ZM426.097 33.224H417.585L416.753 36.488C416.689 33.928 414.001 32.328 411.057 32.328C406.641 32.328 401.713 35.592 398.641 38.984C395.953 41.992 393.649 46.344 393.649 50.376C393.649 52.68 394.417 55.496 395.953 57.736C398.193 61.064 401.457 61.896 403.697 61.896C404.977 61.896 406.833 61.576 408.561 60.296C409.585 59.528 411.121 57.992 411.953 56.2H412.145C412.081 58.632 412.913 59.912 413.681 60.616C414.449 61.32 415.729 61.896 417.265 61.896C419.825 61.896 421.553 60.616 423.025 59.08C423.985 58.056 425.265 56.52 426.225 55.048C426.929 53.96 427.825 52.616 428.401 51.528L427.505 51.08C426.545 52.872 425.329 54.792 423.665 56.84C422.129 58.76 421.297 59.08 420.721 59.08C420.273 59.08 419.953 58.76 419.953 58.12C419.953 57.416 420.337 56.264 420.465 55.816L426.097 33.224ZM412.721 51.272C411.953 54.088 410.993 56.264 409.457 57.992C408.113 59.464 406.257 60.744 404.465 60.744C403.121 60.744 400.881 59.784 400.881 56.904C400.881 55.624 401.521 52.872 401.841 51.72L404.145 43.208C404.785 40.776 405.489 38.216 407.089 36.168C408.433 34.44 410.225 33.48 412.017 33.48C413.681 33.48 415.793 34.44 415.793 37.896C415.793 40.136 414.769 43.784 414.577 44.552L412.721 51.272ZM437.658 33.224H423.322L423.002 34.312H429.402L426.842 44.04C426.522 45.128 425.946 46.6 425.946 48.392C425.946 49.544 426.266 50.76 426.97 51.528C427.93 52.552 429.914 52.936 431.13 52.936C433.05 52.936 435.546 52.104 438.106 50.12C439.194 49.224 440.154 48.328 440.922 47.368L439.514 53C439.194 54.152 439.002 54.984 439.002 56.328C439.002 57.672 439.194 59.4 440.538 60.616C440.858 60.872 442.074 61.896 444.25 61.896C445.786 61.896 447.066 61.384 448.218 60.552C450.074 59.208 451.994 56.648 453.082 55.048C453.786 53.96 454.682 52.616 455.258 51.528L454.362 51.08C453.658 52.296 452.698 53.896 451.93 54.984C451.162 56.072 448.922 59.08 447.642 59.08C447.066 59.08 446.81 58.76 446.81 58.12C446.81 57.544 447.002 56.968 447.258 55.816L452.89 33.224H444.442L441.626 44.488C440.41 46.792 439.194 48.072 437.786 49.224C436.058 50.568 435.162 50.696 434.778 50.696C434.074 50.696 433.498 50.376 433.498 49.416C433.498 48.776 433.882 47.88 434.394 45.96L437.658 33.224ZM477.971 55.54V40.876C477.971 39.888 477.815 38.9 477.555 37.912C477.243 36.924 476.671 36.04 475.839 35.208C474.955 34.428 473.759 33.752 472.251 33.232C470.691 32.764 468.663 32.504 466.219 32.504C464.451 32.556 462.995 32.764 461.747 33.128C460.499 33.492 459.407 34.012 458.575 34.584C457.639 35.208 456.963 35.884 456.443 36.612C455.923 37.34 455.455 38.068 455.195 38.744C454.883 39.472 454.675 40.148 454.571 40.72C454.467 41.344 454.415 41.812 454.415 42.124H461.591L461.903 40.616C462.059 40.2 462.319 39.784 462.683 39.42C462.995 39.108 463.463 38.796 464.087 38.588C464.659 38.432 465.387 38.328 466.375 38.328C467.207 38.328 467.935 38.38 468.507 38.536C469.079 38.692 469.495 38.9 469.859 39.212C470.171 39.472 470.431 39.784 470.587 40.2C470.691 40.564 470.795 40.98 470.795 41.448C470.795 41.916 470.691 42.28 470.535 42.592C470.379 42.852 470.171 43.06 469.911 43.216C469.651 43.424 469.391 43.528 469.079 43.58C468.767 43.684 468.507 43.684 468.247 43.736L461.227 44.776C460.031 44.932 458.991 45.244 458.055 45.764C457.119 46.232 456.339 46.856 455.663 47.584C455.039 48.312 454.519 49.144 454.155 50.132C453.791 51.12 453.635 52.16 453.635 53.304C453.635 54.708 453.843 55.956 454.259 56.996C454.675 58.088 455.299 58.972 456.027 59.7C456.807 60.376 457.691 60.948 458.731 61.312C459.771 61.676 460.915 61.832 462.163 61.832C463.359 61.832 464.399 61.728 465.283 61.52C466.167 61.312 466.895 61 467.571 60.636C468.247 60.272 468.819 59.856 469.391 59.388L471.003 57.776C471.003 58.556 471.055 59.18 471.263 59.7L471.679 61H479.635V59.856C479.375 59.804 479.219 59.7 479.011 59.544C478.803 59.388 478.647 59.18 478.491 58.816C478.335 58.556 478.179 58.088 478.127 57.568C478.023 57.048 477.971 56.372 477.971 55.54ZM470.795 47.48V50.288C470.795 51.224 470.639 52.004 470.431 52.68C470.223 53.408 469.911 53.98 469.495 54.448C469.131 54.916 468.715 55.332 468.247 55.592C467.779 55.904 467.311 56.112 466.843 56.32C466.323 56.476 465.907 56.58 465.491 56.632C465.075 56.684 464.711 56.736 464.451 56.736C463.931 56.736 463.463 56.684 462.995 56.528C462.579 56.424 462.215 56.164 461.903 55.904C461.539 55.592 461.279 55.28 461.071 54.812C460.915 54.396 460.811 53.876 460.811 53.304C460.811 52.576 460.915 52.004 461.123 51.536C461.331 51.068 461.643 50.652 462.059 50.288C462.475 49.976 462.995 49.716 463.619 49.508C464.243 49.3 464.971 49.144 465.803 48.988L467.727 48.624C468.455 48.52 469.027 48.312 469.495 48.104C469.911 47.948 470.379 47.74 470.795 47.48ZM478.422 33.336V39.16H486.794V61H493.97V39.16H502.342V33.336H478.422ZM515.69 33.224H501.354L501.034 34.312H507.498L504.106 46.856C503.722 48.392 503.082 49.8 503.082 52.168C503.082 54.28 503.658 56.584 504.874 58.248C505.962 59.784 508.33 61.896 513.002 61.896C516.778 61.896 520.49 60.616 523.178 58.696C526.314 56.456 529.002 52.68 529.002 49.096C529.002 44.68 525.482 41.864 521.386 41.864C516.906 41.864 513.962 44.936 512.234 47.56L512.042 47.432L515.69 33.224ZM510.634 52.232C510.954 51.016 512.682 48.52 513.258 47.688C514.474 46.024 516.202 44.232 517.802 44.232C518.25 44.232 518.89 44.36 519.466 45C520.042 45.64 520.042 46.28 520.042 47.112C520.042 48.52 519.658 49.608 519.338 50.888L518.378 54.472C518.122 55.496 517.482 57.032 516.906 58.056C515.626 60.232 514.026 60.744 512.746 60.744C511.594 60.744 510.826 60.296 510.186 59.528C509.674 58.888 509.482 58.184 509.482 57.288C509.482 56.84 509.61 55.88 509.738 55.432L510.634 52.232Z" fill="#F95B5B"/>
</svg>
