<svg width="676" height="169" viewBox="0 0 676 169" fill="none" xmlns="http://www.w3.org/2000/svg">
<path d="M0 1.57031H37.599C40.9359 1.57031 44.1379 1.85783 47.2389 2.43286C50.323 3.00789 53.0531 4.02266 55.3957 5.47715C57.7551 6.93165 59.6258 8.89352 61.0246 11.3628C62.4234 13.832 63.1312 16.9778 63.1312 20.7663C63.1312 22.948 62.8953 24.8422 62.4234 26.4489C61.9515 28.0556 61.3279 29.4256 60.519 30.5587C59.7269 31.6919 58.8 32.6559 57.7551 33.4339C56.7102 34.2119 55.6316 34.8715 54.5193 35.4127C58.1596 36.715 60.9403 38.7614 62.8447 41.6027C64.7491 44.4272 65.7097 47.8097 65.7097 51.7335C65.7097 55.1668 65.1199 58.2787 63.9401 61.0693C62.7604 63.8599 61.092 66.2446 58.9348 68.2234C56.7776 70.2022 54.1654 71.7412 51.0645 72.8406C47.9804 73.9399 44.5255 74.4811 40.6999 74.4811H0V1.57031ZM18.8585 30.1867H33.3857C35.5261 30.1867 37.2956 30.0175 38.7113 29.6793C40.1269 29.341 41.2561 28.8505 42.0819 28.2079C42.9076 27.5652 43.4807 26.7534 43.8177 25.8063C44.1548 24.8422 44.3233 23.726 44.3233 22.4237C44.3233 21.3582 44.1548 20.3604 43.8177 19.4471C43.4807 18.5338 42.9245 17.7558 42.1156 17.1131C41.3235 16.4704 40.2449 15.963 38.9135 15.5741C37.5821 15.202 35.9137 14.999 33.9082 14.999H18.8585V30.1867ZM18.8585 61.0186H33.3857C36.0991 61.0186 38.2899 60.731 39.9584 60.156C41.6268 59.581 42.9076 58.8368 43.8177 57.9574C44.7278 57.061 45.3345 56.08 45.621 55.0145C45.9075 53.949 46.0592 52.9343 46.0592 52.0041C46.0592 50.2282 45.8232 48.7399 45.3513 47.556C44.8794 46.3721 44.1548 45.425 43.1436 44.7147C42.1493 44.0044 40.8347 43.5139 39.2169 43.2433C37.599 42.9727 35.644 42.8374 33.3857 42.8374H18.8585V61.0355V61.0186Z" fill="#2A2A2A"/>
<path d="M121.242 61.074C113.211 91.0348 93.5336 111.386 72.0492 111.386C57.124 111.386 48.6072 103.11 48.6072 94.6659C48.6072 90.0384 51.8867 82.9113 60.2529 82.9113C67.9665 82.9113 71.3967 88.3664 71.3967 94.9868C71.3967 99.1245 69.4222 100.442 67.1299 102.097C66.1427 102.756 64.6702 103.752 64.6702 104.917C64.6702 106.404 67.1299 108.397 71.8819 108.397C88.6143 108.397 96.4785 79.601 102.05 55.4331L102.703 52.6127H102.05C94.1694 64.6882 81.7205 76.6117 69.0876 76.6117C58.0944 76.6117 56.1367 66.85 56.1367 61.378C56.1367 56.9025 57.7765 51.1096 58.5964 48.306L70.0748 5.29016H53.5098L54.497 2.46973H91.2245L76.2992 60.3984C75.9646 61.5638 74.9941 65.8535 74.9941 66.6811C74.9941 68.1673 75.3288 70.8189 78.9262 70.8189C86.7904 70.8189 100.745 51.6162 104.51 42.5132L115.001 2.46973H136.82L121.242 61.074V61.074Z" fill="#2A2A2A"/>
<path d="M198.206 15.9846L163.884 76.2806H160.264L153.694 14.5054H152.538L137.589 57.1681C133.315 69.5232 128.723 76.2806 118.869 76.2806C109.668 76.2806 106.216 68.8676 106.216 62.6145C106.216 55.3695 112.618 52.5623 116.724 52.5623C121.818 52.5623 126.746 56.0251 126.746 62.2783C126.746 64.0937 125.757 66.3966 124.45 67.5565C123.142 68.5482 121.332 69.2038 121.332 71.1873C121.332 72.1791 122.489 72.8347 123.964 72.8347C129.058 72.8347 132.997 62.127 135.293 56.0251C146.622 25.2131 149.421 16.9764 149.421 12.0344C149.421 8.40351 147.611 5.44502 140.22 5.44502H135.779L136.768 2.48654H173.068L177.174 47.6203L202.815 2.46973H224.501L210.055 60.6309C209.066 64.5812 208.748 65.741 208.748 66.8841C208.748 68.1952 209.401 69.0189 210.725 69.0189C215.317 69.0189 225.021 54.1928 228.138 48.4271L230.434 49.587C217.781 71.8261 209.418 76.2806 202.178 76.2806C196.597 76.2806 188.704 73.8096 188.704 63.1019C188.704 59.1517 189.19 56.5126 190.011 53.386L199.379 15.9846H198.223H198.206Z" fill="#2A2A2A"/>
<path d="M240.94 44.166C240.94 44.8197 241.007 45.6913 241.141 46.7808C241.275 47.8703 241.526 49.0436 241.928 50.3175C242.313 51.5914 242.882 52.8653 243.636 54.1559C244.373 55.4465 245.378 56.6031 246.617 57.6591C247.856 58.715 249.38 59.5531 251.189 60.2068C252.998 60.8605 255.175 61.1957 257.704 61.1957C259.01 61.1957 260.317 61.0114 261.59 60.6426C262.879 60.2739 264.068 59.7207 265.157 59C266.245 58.2792 267.2 57.4076 268.004 56.3852C268.808 55.3627 269.394 54.1894 269.746 52.882H288.922C288.922 54.1894 288.637 55.6812 288.068 57.3741C287.498 59.0503 286.644 60.7599 285.488 62.4864C284.333 64.2128 282.876 65.9057 281.134 67.5651C279.392 69.2245 277.316 70.6995 274.921 71.9902C272.526 73.2808 269.813 74.32 266.781 75.1078C263.75 75.8956 260.384 76.2811 256.666 76.2811C251.909 76.2811 247.454 75.5771 243.284 74.1524C239.114 72.7277 235.48 70.4816 232.365 67.4143C229.25 64.3301 226.788 60.3577 225.013 55.4633C223.22 50.5689 222.333 44.6354 222.333 37.6626C222.333 32.8185 222.969 28.1588 224.259 23.6835C225.548 19.2082 227.558 15.2692 230.271 11.8666C233.001 8.46403 236.485 5.74866 240.739 3.72052C244.993 1.69237 250.101 0.669922 256.079 0.669922C262.41 0.669922 267.719 1.70914 272.04 3.78756C276.361 5.86599 279.828 8.79926 282.474 12.5874C285.12 16.3922 286.996 20.9681 288.135 26.3318C289.273 31.6955 289.843 37.6626 289.843 44.1996H240.973L240.94 44.166ZM270.583 31.8631C270.583 28.7119 270.114 26.0971 269.176 24.0019C268.238 21.9068 267.066 20.2306 265.642 18.9903C264.219 17.7499 262.661 16.8783 260.97 16.3755C259.262 15.8726 257.637 15.6212 256.063 15.6212C254.488 15.6212 252.914 15.8726 251.223 16.3755C249.514 16.8783 247.957 17.7499 246.55 18.9903C245.126 20.2306 243.954 21.9068 243.016 24.0019C242.078 26.0971 241.609 28.7119 241.609 31.8631H270.583Z" fill="#2A2A2A"/>
<path d="M331.989 32.458L339.534 2.46973H361.182L346.761 60.6309C346.426 62.2783 345.607 65.2367 345.607 66.8841C345.607 68.1952 346.259 69.0189 347.581 69.0189C352.332 69.0189 361.851 54.1928 364.962 48.4271L367.254 49.587C354.624 71.8261 345.774 76.2806 339.049 76.2806C334.131 76.2806 325.599 74.6333 325.599 63.1019C325.599 59.1517 326.084 56.5126 326.904 53.386L331.337 35.4333H310.024L300.187 73.9777H279.041L297.393 5.27693H280.831L281.818 2.46973H318.539L310.827 32.458H331.972H331.989Z" fill="#2A2A2A"/>
<path d="M247.493 107.933L212.917 168.978H209.27L202.652 106.435H201.487L186.428 149.628C182.122 162.137 177.497 168.978 167.569 168.978C158.301 168.978 154.823 161.473 154.823 155.142C154.823 147.807 161.272 144.965 165.408 144.965C170.541 144.965 175.504 148.471 175.504 154.802C175.504 156.64 174.508 158.971 173.191 160.146C171.875 161.15 170.051 161.813 170.051 163.822C170.051 164.826 171.216 165.489 172.702 165.489C177.834 165.489 181.802 154.649 184.115 148.471C195.527 117.293 198.347 108.954 198.347 103.951C198.347 100.275 196.523 97.2794 189.078 97.2794H184.604L185.6 94.2842H222.168L226.305 139.979L252.119 94.2842H273.965L259.412 153.151C258.416 157.15 258.095 158.325 258.095 159.482C258.095 160.809 258.753 161.643 260.087 161.643C264.713 161.643 274.488 146.633 277.628 140.796L279.941 141.97C267.212 164.485 258.77 168.995 251.494 168.995C245.872 168.995 237.92 166.494 237.92 155.653C237.92 151.653 238.41 148.982 239.237 145.816L248.658 107.967H247.493V107.933Z" fill="#2A2A2A"/>
<path d="M301.883 168.995C279.212 168.995 270.94 150.441 270.94 134.71C270.94 109.533 296.752 92.4834 317.6 92.4834C334.802 92.4834 346.551 108.046 346.551 125.112C346.551 142.179 328.353 168.995 301.883 168.995ZM290.961 144.815C290.472 146.808 289.476 150.61 289.476 153.753C289.476 164.027 295.756 166.004 299.891 166.004C309.818 166.004 314.122 157.386 317.093 146.623L324.2 120.449C325.028 117.627 326.682 111.51 326.682 107.032C326.682 101.067 323.204 95.4404 317.752 95.4404C304.855 95.4404 300.55 109.026 298.389 116.799L290.944 144.781L290.961 144.815Z" fill="#2A2A2A"/>
<path d="M341.167 94.2842H369.093L381.159 146.542H381.495L393.293 94.2842H420.362V166.295H402.926V108.355H402.657L389.214 166.295H372.298L358.923 108.355H358.587V166.295H341.15V94.2842H341.167Z" fill="#2A2A2A"/>
<path d="M478.698 140.675C464.483 164.855 451.752 168.995 442.512 168.995C424.503 168.995 412.261 154.919 412.261 137.532C412.261 118.319 434.401 92.4834 459.357 92.4834C471.582 92.4834 480.671 98.9382 480.671 109.043C480.671 129.742 455.715 132.733 435.716 134.389L433.575 142.5C431.922 148.633 431.585 151.269 431.585 152.773C431.585 160.394 436.543 166.021 444.974 166.021C458.531 166.021 467.788 152.773 476.54 139.526L478.681 140.692L478.698 140.675ZM436.391 131.736C458.7 131.736 458.7 120.803 460.521 114.349L461.836 109.55C462.494 107.404 462.831 103.585 462.831 101.101C462.831 97.4512 460.184 95.4742 456.558 95.4742C446.98 95.4742 442.849 106.728 440.37 116.511L436.408 131.753L436.391 131.736Z" fill="#2A2A2A"/>
<path d="M477.071 94.2842H495.759V120.312H523.242V94.2842H541.88V166.295H523.242V135.448H495.759V166.295H477.071V94.2842Z" fill="#2A2A2A"/>
<path d="M573.671 114.814C584.904 98.7449 596.289 92.1211 605.855 92.1211C614.596 92.1211 620.373 98.0859 620.373 108.512C620.373 110.167 620.204 111.654 619.884 113.31L620.053 113.648C628.962 101.567 639.538 92.1211 651.243 92.1211C660.152 92.1211 665.929 98.2548 665.929 108.512C665.929 113.141 664.447 117.129 663.621 120.441L655.538 152.901C654.712 156.213 654.544 156.703 654.375 157.531V159.187C654.544 160.353 654.864 161.333 656.194 161.333C661.146 161.333 670.88 145.939 673.693 140.633L676 141.799C664.447 161.502 656.683 168.632 647.774 168.632C641.34 168.632 634.082 165.49 634.082 155.385C634.082 151.414 634.57 148.761 635.395 145.618L642.991 114.814C643.984 110.843 645.803 106.197 645.803 102.395C645.803 98.2548 643.496 97.5958 642.014 97.5958C634.25 97.5958 619.733 118.295 616.92 123.922L606.024 166.317H584.736L598.596 114.814C601.072 105.876 601.241 103.882 601.241 102.564C601.241 98.7618 598.277 97.5958 596.458 97.5958C589.856 97.5958 575.17 116.318 571.364 123.922L560.467 166.317H539.18L557.672 97.2579H541.167L541.992 94.436H578.959L573.671 114.797V114.814Z" fill="#2A2A2A"/>
</svg>
