<svg width="908" height="628" viewBox="0 0 908 628" fill="none" xmlns="http://www.w3.org/2000/svg">
<path d="M907 315.854C907 401.728 889.466 474.916 827.288 528.839C765.052 582.814 657.903 617.657 478.227 626.29C298.817 634.91 179.556 564.036 105.118 469.603C30.6424 375.124 1 257.011 1 171.202C1 128.471 15.7691 99.0061 41.5838 78.2161C67.4592 57.3772 104.524 45.1793 149.248 37.2494C193.959 29.3219 246.181 25.6815 302.291 21.863L305.351 21.6548C360.558 17.8993 419.423 13.895 478.418 5.40963C718.087 -29.0624 907 144.561 907 315.854Z" stroke="#F95B5B" stroke-width="2"/>
</svg>
