<svg width="676" height="634" viewBox="0 0 676 634" fill="none" xmlns="http://www.w3.org/2000/svg">
<path fill-rule="evenodd" clip-rule="evenodd" d="M303.148 37.1832C361.736 -0.195084 455.606 -19.8499 504.361 29.321C555.386 80.781 480.617 174.869 506.967 242.74C536.568 318.988 686.241 404.833 675.444 486.03C665.37 561.793 511.942 519.234 446.236 556.858C390.45 588.801 366.927 624.07 303.148 630.391C235.961 637.05 152.064 639.381 103.065 592.349C56.0446 547.215 33.9215 512.678 16.8478 449.385C0.83111 390.011 -11.2622 270.168 16.8459 215.597C45.4813 160.002 137.491 174.097 190.221 141.237C236.427 112.443 244.56 74.5611 303.148 37.1832Z" fill="white"/>
</svg>
