<svg width="907" height="284" viewBox="0 0 907 284" fill="none" xmlns="http://www.w3.org/2000/svg">
<rect x="591" width="316" height="284" rx="25" fill="white"/>
<rect x="737" width="170" height="284" rx="25" fill="#F95B5B"/>
<rect x="862" width="45" height="284" rx="22.5" fill="#2A2A2A"/>
<rect x="1" y="1" width="905" height="282" rx="24" stroke="#2A2A2A" stroke-width="2"/>
<path d="M221.944 137.592C221.2 136.632 219.904 136.152 218.008 136.152C215.44 136.152 213.64 137.544 212.656 140.328C212.152 141.768 211.912 143.544 211.912 145.632C211.912 148.464 212.488 150.456 213.616 151.632C214.744 152.832 216.112 153.432 217.672 153.432C219.52 153.432 220.936 152.856 221.92 151.656C222.928 150.504 223.408 149.136 223.408 147.624C223.408 145.848 222.88 144.504 221.848 143.592C220.792 142.704 219.568 142.248 218.152 142.248C217.336 142.248 216.568 142.416 215.92 142.728C215.176 143.064 214.552 143.592 214.072 144.312C214.168 142.296 214.552 140.712 215.248 139.632C215.944 138.528 216.88 138 218.056 138C219.088 138 219.856 138.36 220.36 139.056C220.624 139.44 220.84 139.944 220.96 140.616H223.048C223.048 139.584 222.688 138.576 221.944 137.592ZM220.36 150.432C219.808 151.176 218.992 151.56 217.864 151.56C216.76 151.56 215.92 151.2 215.296 150.48C214.672 149.76 214.36 148.872 214.36 147.792C214.36 146.592 214.696 145.68 215.392 145.08C216.064 144.48 216.856 144.168 217.768 144.168C219.064 144.168 219.952 144.552 220.456 145.344C220.936 146.112 221.176 146.952 221.176 147.792C221.176 148.824 220.912 149.688 220.36 150.432ZM227.048 148.728H224.84C224.984 150.312 225.56 151.512 226.616 152.256C227.648 153.024 228.872 153.432 230.24 153.432C232.376 153.432 233.96 152.808 234.944 151.608C235.904 150.408 236.408 148.992 236.408 147.408C236.408 145.896 235.856 144.624 234.8 143.64C233.72 142.632 232.424 142.152 230.888 142.152C230.072 142.152 229.328 142.272 228.704 142.536C228.368 142.68 227.984 142.92 227.6 143.208L228.32 138.528H235.448V136.512H226.736L225.464 145.536L227.288 145.632C227.648 145.128 228.08 144.744 228.608 144.48C229.136 144.192 229.76 144.048 230.48 144.048C231.488 144.048 232.352 144.36 233.072 145.008C233.768 145.656 234.128 146.544 234.128 147.72C234.128 148.704 233.816 149.568 233.216 150.384C232.616 151.176 231.704 151.56 230.456 151.56C229.784 151.56 229.208 151.464 228.704 151.224C227.744 150.768 227.168 149.928 227.048 148.728ZM243.72 153.456L253.104 136.296H251.808L242.424 153.456H243.72ZM244.896 137.928C244.104 137.112 243.144 136.728 241.992 136.728C240.864 136.728 239.904 137.112 239.112 137.928C238.32 138.72 237.912 139.68 237.912 140.808C237.912 141.936 238.32 142.896 239.112 143.688C239.904 144.504 240.864 144.888 241.992 144.888C243.144 144.888 244.104 144.504 244.896 143.688C245.688 142.896 246.096 141.936 246.096 140.808C246.096 139.68 245.688 138.72 244.896 137.928ZM243.72 142.512C243.24 142.992 242.664 143.232 241.992 143.232C241.32 143.232 240.768 142.992 240.288 142.512C239.808 142.032 239.592 141.48 239.592 140.808C239.592 140.136 239.808 139.56 240.288 139.104C240.768 138.624 241.32 138.408 241.992 138.408C242.664 138.408 243.24 138.624 243.72 139.104C244.176 139.584 244.416 140.136 244.416 140.808C244.416 141.48 244.176 142.032 243.72 142.512ZM256.392 146.04C255.6 145.248 254.64 144.84 253.512 144.84C252.36 144.84 251.4 145.248 250.608 146.04C249.816 146.832 249.408 147.792 249.408 148.92C249.408 150.048 249.816 151.008 250.608 151.8C251.4 152.592 252.36 153 253.512 153C254.64 153 255.6 152.592 256.392 151.8C257.184 151.008 257.592 150.048 257.592 148.92C257.592 147.792 257.184 146.832 256.392 146.04ZM255.216 150.624C254.736 151.104 254.16 151.344 253.512 151.344C252.84 151.344 252.264 151.104 251.784 150.624C251.304 150.144 251.088 149.592 251.088 148.92C251.088 148.248 251.304 147.696 251.784 147.216C252.264 146.736 252.84 146.496 253.512 146.496C254.16 146.496 254.736 146.736 255.216 147.216C255.672 147.696 255.912 148.248 255.912 148.92C255.912 149.592 255.672 150.144 255.216 150.624Z" fill="black"/>
<path d="M869.976 148.728H867.768C867.912 150.312 868.488 151.512 869.544 152.256C870.576 153.024 871.8 153.432 873.168 153.432C875.304 153.432 876.888 152.808 877.872 151.608C878.832 150.408 879.336 148.992 879.336 147.408C879.336 145.896 878.784 144.624 877.728 143.64C876.648 142.632 875.352 142.152 873.816 142.152C873 142.152 872.256 142.272 871.632 142.536C871.296 142.68 870.912 142.92 870.528 143.208L871.248 138.528H878.376V136.512H869.664L868.392 145.536L870.216 145.632C870.576 145.128 871.008 144.744 871.536 144.48C872.064 144.192 872.688 144.048 873.408 144.048C874.416 144.048 875.28 144.36 876 145.008C876.696 145.656 877.056 146.544 877.056 147.72C877.056 148.704 876.744 149.568 876.144 150.384C875.544 151.176 874.632 151.56 873.384 151.56C872.712 151.56 872.136 151.464 871.632 151.224C870.672 150.768 870.096 149.928 869.976 148.728ZM886.648 153.456L896.032 136.296H894.736L885.352 153.456H886.648ZM887.824 137.928C887.032 137.112 886.072 136.728 884.92 136.728C883.792 136.728 882.832 137.112 882.04 137.928C881.248 138.72 880.84 139.68 880.84 140.808C880.84 141.936 881.248 142.896 882.04 143.688C882.832 144.504 883.792 144.888 884.92 144.888C886.072 144.888 887.032 144.504 887.824 143.688C888.616 142.896 889.024 141.936 889.024 140.808C889.024 139.68 888.616 138.72 887.824 137.928ZM886.648 142.512C886.168 142.992 885.592 143.232 884.92 143.232C884.248 143.232 883.696 142.992 883.216 142.512C882.736 142.032 882.52 141.48 882.52 140.808C882.52 140.136 882.736 139.56 883.216 139.104C883.696 138.624 884.248 138.408 884.92 138.408C885.592 138.408 886.168 138.624 886.648 139.104C887.104 139.584 887.344 140.136 887.344 140.808C887.344 141.48 887.104 142.032 886.648 142.512ZM899.32 146.04C898.528 145.248 897.568 144.84 896.44 144.84C895.288 144.84 894.328 145.248 893.536 146.04C892.744 146.832 892.336 147.792 892.336 148.92C892.336 150.048 892.744 151.008 893.536 151.8C894.328 152.592 895.288 153 896.44 153C897.568 153 898.528 152.592 899.32 151.8C900.112 151.008 900.52 150.048 900.52 148.92C900.52 147.792 900.112 146.832 899.32 146.04ZM898.144 150.624C897.664 151.104 897.088 151.344 896.44 151.344C895.768 151.344 895.192 151.104 894.712 150.624C894.232 150.144 894.016 149.592 894.016 148.92C894.016 148.248 894.232 147.696 894.712 147.216C895.192 146.736 895.768 146.496 896.44 146.496C897.088 146.496 897.664 146.736 898.144 147.216C898.6 147.696 898.84 148.248 898.84 148.92C898.84 149.592 898.6 150.144 898.144 150.624Z" fill="white"/>
<path d="M776.304 139.512V141.12H780.24V153H782.496V136.296H780.84C780.528 137.592 780.072 138.408 779.496 138.744C778.896 139.104 777.816 139.344 776.304 139.512ZM798.28 138.912C797.296 137.112 795.736 136.224 793.576 136.224C791.152 136.224 789.496 137.496 788.56 140.04C788.08 141.408 787.816 143.04 787.816 144.96C787.816 147.408 788.224 149.376 789.064 150.84C790.048 152.568 791.536 153.456 793.552 153.456C795.784 153.456 797.392 152.4 798.376 150.24C799.072 148.752 799.408 146.88 799.408 144.576C799.408 142.176 799.024 140.28 798.28 138.912ZM796.144 150.072C795.52 151.056 794.632 151.536 793.552 151.536C792.184 151.536 791.224 150.744 790.648 149.16C790.288 148.104 790.096 146.736 790.096 145.032C790.096 142.752 790.408 141.024 790.984 139.872C791.56 138.696 792.448 138.12 793.696 138.12C795.04 138.12 795.952 138.72 796.432 139.968C796.888 141.192 797.128 142.752 797.128 144.672C797.128 147.312 796.792 149.112 796.144 150.072ZM806.72 153.456L816.104 136.296H814.808L805.424 153.456H806.72ZM807.896 137.928C807.104 137.112 806.144 136.728 804.992 136.728C803.864 136.728 802.904 137.112 802.112 137.928C801.32 138.72 800.912 139.68 800.912 140.808C800.912 141.936 801.32 142.896 802.112 143.688C802.904 144.504 803.864 144.888 804.992 144.888C806.144 144.888 807.104 144.504 807.896 143.688C808.688 142.896 809.096 141.936 809.096 140.808C809.096 139.68 808.688 138.72 807.896 137.928ZM806.72 142.512C806.24 142.992 805.664 143.232 804.992 143.232C804.32 143.232 803.768 142.992 803.288 142.512C802.808 142.032 802.592 141.48 802.592 140.808C802.592 140.136 802.808 139.56 803.288 139.104C803.768 138.624 804.32 138.408 804.992 138.408C805.664 138.408 806.24 138.624 806.72 139.104C807.176 139.584 807.416 140.136 807.416 140.808C807.416 141.48 807.176 142.032 806.72 142.512ZM819.392 146.04C818.6 145.248 817.64 144.84 816.512 144.84C815.36 144.84 814.4 145.248 813.608 146.04C812.816 146.832 812.408 147.792 812.408 148.92C812.408 150.048 812.816 151.008 813.608 151.8C814.4 152.592 815.36 153 816.512 153C817.64 153 818.6 152.592 819.392 151.8C820.184 151.008 820.592 150.048 820.592 148.92C820.592 147.792 820.184 146.832 819.392 146.04ZM818.216 150.624C817.736 151.104 817.16 151.344 816.512 151.344C815.84 151.344 815.264 151.104 814.784 150.624C814.304 150.144 814.088 149.592 814.088 148.92C814.088 148.248 814.304 147.696 814.784 147.216C815.264 146.736 815.84 146.496 816.512 146.496C817.16 146.496 817.736 146.736 818.216 147.216C818.672 147.696 818.912 148.248 818.912 148.92C818.912 149.592 818.672 150.144 818.216 150.624Z" fill="white"/>
<path d="M649.656 149.232C649.128 150.288 648.84 151.56 648.744 153H660.264V151.008H651.096C651.312 150.168 651.792 149.424 652.584 148.752C653.016 148.368 653.616 147.96 654.384 147.528L655.992 146.64C657.408 145.872 658.392 145.176 658.944 144.624C659.88 143.688 660.36 142.536 660.36 141.192C660.36 139.92 659.904 138.768 659.016 137.712C658.128 136.68 656.736 136.152 654.816 136.152C652.488 136.152 650.88 136.968 649.968 138.6C649.464 139.512 649.176 140.712 649.152 142.176H651.312C651.336 141.12 651.504 140.328 651.792 139.728C652.344 138.648 653.352 138.096 654.792 138.096C655.776 138.096 656.544 138.384 657.144 138.96C657.72 139.512 658.008 140.304 658.008 141.288C658.008 142.104 657.696 142.872 657.048 143.496C656.64 143.928 655.944 144.432 654.936 145.008L652.68 146.304C651.168 147.192 650.16 148.152 649.656 149.232ZM672.28 138.912C671.296 137.112 669.736 136.224 667.576 136.224C665.152 136.224 663.496 137.496 662.56 140.04C662.08 141.408 661.816 143.04 661.816 144.96C661.816 147.408 662.224 149.376 663.064 150.84C664.048 152.568 665.536 153.456 667.552 153.456C669.784 153.456 671.392 152.4 672.376 150.24C673.072 148.752 673.408 146.88 673.408 144.576C673.408 142.176 673.024 140.28 672.28 138.912ZM670.144 150.072C669.52 151.056 668.632 151.536 667.552 151.536C666.184 151.536 665.224 150.744 664.648 149.16C664.288 148.104 664.096 146.736 664.096 145.032C664.096 142.752 664.408 141.024 664.984 139.872C665.56 138.696 666.448 138.12 667.696 138.12C669.04 138.12 669.952 138.72 670.432 139.968C670.888 141.192 671.128 142.752 671.128 144.672C671.128 147.312 670.792 149.112 670.144 150.072ZM680.72 153.456L690.104 136.296H688.808L679.424 153.456H680.72ZM681.896 137.928C681.104 137.112 680.144 136.728 678.992 136.728C677.864 136.728 676.904 137.112 676.112 137.928C675.32 138.72 674.912 139.68 674.912 140.808C674.912 141.936 675.32 142.896 676.112 143.688C676.904 144.504 677.864 144.888 678.992 144.888C680.144 144.888 681.104 144.504 681.896 143.688C682.688 142.896 683.096 141.936 683.096 140.808C683.096 139.68 682.688 138.72 681.896 137.928ZM680.72 142.512C680.24 142.992 679.664 143.232 678.992 143.232C678.32 143.232 677.768 142.992 677.288 142.512C676.808 142.032 676.592 141.48 676.592 140.808C676.592 140.136 676.808 139.56 677.288 139.104C677.768 138.624 678.32 138.408 678.992 138.408C679.664 138.408 680.24 138.624 680.72 139.104C681.176 139.584 681.416 140.136 681.416 140.808C681.416 141.48 681.176 142.032 680.72 142.512ZM693.392 146.04C692.6 145.248 691.64 144.84 690.512 144.84C689.36 144.84 688.4 145.248 687.608 146.04C686.816 146.832 686.408 147.792 686.408 148.92C686.408 150.048 686.816 151.008 687.608 151.8C688.4 152.592 689.36 153 690.512 153C691.64 153 692.6 152.592 693.392 151.8C694.184 151.008 694.592 150.048 694.592 148.92C694.592 147.792 694.184 146.832 693.392 146.04ZM692.216 150.624C691.736 151.104 691.16 151.344 690.512 151.344C689.84 151.344 689.264 151.104 688.784 150.624C688.304 150.144 688.088 149.592 688.088 148.92C688.088 148.248 688.304 147.696 688.784 147.216C689.264 146.736 689.84 146.496 690.512 146.496C691.16 146.496 691.736 146.736 692.216 147.216C692.672 147.696 692.912 148.248 692.912 148.92C692.912 149.592 692.672 150.144 692.216 150.624Z" fill="#2A2A2A"/>
</svg>
