<svg width="460" height="350" viewBox="0 0 460 350" fill="none" xmlns="http://www.w3.org/2000/svg">
<ellipse cx="236.304" cy="189.629" rx="174" ry="101.531" transform="rotate(-17.2783 236.304 189.629)" fill="#A54BFF" fill-opacity="0.66"/>
<path d="M388.797 142.339C396.263 166.497 386.294 193.732 363.742 218.297C341.208 242.842 306.241 264.556 264.168 277.559C222.094 290.563 180.973 292.364 148.52 284.814C116.04 277.257 92.4427 260.396 84.9762 236.238C77.5097 212.079 87.4788 184.844 110.031 160.279C132.565 135.735 167.531 114.021 209.605 101.017C251.679 88.0138 292.8 86.212 325.253 93.7624C357.733 101.319 381.33 118.18 388.797 142.339Z" stroke="white" stroke-width="2"/>
<g filter="url(#filter0_f_192_330)">
<ellipse cx="229.938" cy="174.715" rx="127.669" ry="59.7455" transform="rotate(-17.2347 229.938 174.715)" fill="#A54BFF" fill-opacity="0.42"/>
</g>
<path d="M148.941 239.192L140.992 257.561L144.031 258.877L139.895 268.436L136.106 266.797L138.661 260.894L122.141 253.745L119.587 259.648L115.798 258.009L119.935 248.449L122.622 249.612C124.871 248.284 126.751 245.872 128.263 242.377L132.686 232.157L148.941 239.192ZM126.983 251.499L137.203 255.922L143.609 241.121L134.93 237.365L132.052 244.017C130.654 247.247 128.964 249.742 126.983 251.499Z" fill="white"/>
<path d="M156.106 241.182L173.324 245.728L167.197 268.933L163.16 267.867L168.257 248.561L159.114 246.147L156.615 255.614C155.634 259.327 154.194 261.776 152.292 262.962C150.398 264.117 148.05 264.175 145.246 263.137L146.25 259.332C147.802 259.973 149.087 259.932 150.106 259.208C151.132 258.453 151.964 256.869 152.602 254.455L156.106 241.182Z" fill="white"/>
<path d="M185.313 247.092L195.467 248.285L192.667 272.121L188.567 271.639L189.575 263.058L186.095 262.649L178.413 270.446L173.36 269.852L181.356 261.851C179.597 261.193 178.239 260.131 177.284 258.666C176.36 257.204 176.003 255.583 176.212 253.804C176.469 251.611 177.463 249.875 179.192 248.596C180.921 247.317 182.961 246.815 185.313 247.092ZM184.101 258.645L190.012 259.34L190.914 251.665L185.002 250.97C183.795 250.828 182.735 251.074 181.823 251.708C180.946 252.314 180.44 253.189 180.306 254.333C180.175 255.445 180.464 256.414 181.173 257.238C181.917 258.034 182.893 258.503 184.101 258.645Z" fill="white"/>
<path d="M222.702 258.806L235.702 269.982L230.543 270.484L218.548 260.223L219.65 271.545L215.494 271.95L213.168 248.063L217.324 247.658L218.352 258.216L227.643 246.653L232.994 246.132L222.702 258.806Z" fill="white"/>
<path d="M260.328 260.872C258.552 263.818 255.94 265.717 252.493 266.571C249.045 267.426 245.848 266.965 242.903 265.189C239.957 263.413 238.058 260.801 237.204 257.353C236.349 253.905 236.81 250.709 238.586 247.763C240.362 244.818 242.974 242.918 246.422 242.064C249.87 241.21 253.066 241.671 256.012 243.447C258.996 245.246 260.911 247.854 261.757 251.271C262.604 254.688 262.127 257.888 260.328 260.872ZM251.512 262.611C253.841 262.034 255.602 260.757 256.793 258.781C257.985 256.804 258.289 254.636 257.704 252.275C257.119 249.914 255.839 248.138 253.862 246.946C251.885 245.755 249.732 245.447 247.403 246.024C245.104 246.594 243.359 247.867 242.167 249.843C240.976 251.82 240.672 253.988 241.257 256.349C241.842 258.71 243.122 260.486 245.099 261.678C247.075 262.869 249.213 263.181 251.512 262.611Z" fill="white"/>
<path d="M260.696 238.324L275.333 232.526L276.818 236.274L266.063 240.535L273.417 259.099L269.535 260.637L260.696 238.324Z" fill="white"/>
<path d="M305.858 239.525C304.928 242.836 302.914 245.361 299.817 247.1C296.719 248.839 293.515 249.243 290.204 248.313C286.893 247.382 284.368 245.369 282.629 242.271C280.89 239.174 280.486 235.97 281.416 232.658C282.347 229.347 284.36 226.822 287.458 225.084C290.555 223.345 293.759 222.941 297.071 223.871C300.425 224.813 302.964 226.819 304.687 229.889C306.41 232.958 306.801 236.17 305.858 239.525ZM297.819 243.542C299.912 242.367 301.271 240.669 301.895 238.447C302.519 236.225 302.236 234.054 301.046 231.933C299.855 229.812 298.149 228.44 295.927 227.816C293.705 227.191 291.548 227.467 289.455 228.641C287.39 229.8 286.045 231.491 285.421 233.713C284.797 235.935 285.08 238.106 286.27 240.227C287.461 242.348 289.167 243.72 291.389 244.344C293.611 244.969 295.755 244.701 297.819 243.542Z" fill="white"/>
<path d="M316.341 203.774C319.019 201.344 321.995 200.242 325.269 200.469C328.542 200.696 331.416 202.172 333.889 204.897C336.319 207.574 337.51 210.577 337.462 213.905C337.371 217.185 335.974 220.051 333.273 222.503C331.377 224.223 329.342 225.314 327.168 225.775C324.972 226.212 322.898 225.998 320.946 225.133L322.19 221.218C323.472 221.869 324.856 222.061 326.341 221.793C327.805 221.502 329.213 220.743 330.563 219.517C332.104 218.119 332.997 216.509 333.244 214.686C333.47 212.839 333.047 211.04 331.977 209.289L324.05 216.483L321.405 213.568L329.332 206.375C327.693 205.14 325.954 204.557 324.115 204.627C322.279 204.651 320.603 205.351 319.086 206.727C317.83 207.867 316.987 209.152 316.555 210.58C316.147 211.988 316.169 213.394 316.622 214.797L312.569 215.688C311.968 213.598 312.002 211.492 312.672 209.373C313.341 207.253 314.564 205.387 316.341 203.774Z" fill="white"/>
<path d="M325.656 195.73L338.919 180.041L341.998 182.644L336.73 188.876L351.979 201.767L349.283 204.956L334.034 192.065L328.735 198.333L325.656 195.73Z" fill="white"/>
<path d="M368.71 172.03C369.469 175.384 368.9 178.563 367.005 181.567C365.109 184.571 362.484 186.453 359.13 187.212C355.775 187.971 352.596 187.403 349.592 185.507C346.588 183.612 344.706 180.987 343.947 177.632C343.188 174.278 343.757 171.098 345.652 168.094C347.548 165.09 350.173 163.209 353.527 162.45C356.926 161.681 360.114 162.236 363.091 164.114C366.068 165.992 367.941 168.631 368.71 172.03ZM363.554 179.39C364.835 177.361 365.221 175.22 364.711 172.969C364.202 170.718 362.919 168.943 360.862 167.646C358.805 166.348 356.651 165.954 354.4 166.463C352.149 166.972 350.383 168.242 349.103 170.272C347.839 172.274 347.462 174.401 347.971 176.652C348.481 178.903 349.764 180.678 351.82 181.976C353.877 183.273 356.031 183.668 358.282 183.158C360.533 182.649 362.291 181.393 363.554 179.39Z" fill="white"/>
<defs>
<filter id="filter0_f_192_330" x="0.707031" y="0.246094" width="458.463" height="348.938" filterUnits="userSpaceOnUse" color-interpolation-filters="sRGB">
<feFlood flood-opacity="0" result="BackgroundImageFix"/>
<feBlend mode="normal" in="SourceGraphic" in2="BackgroundImageFix" result="shape"/>
<feGaussianBlur stdDeviation="53" result="effect1_foregroundBlur_192_330"/>
</filter>
</defs>
</svg>
