<svg width="509" height="429" viewBox="0 0 509 429" fill="none" xmlns="http://www.w3.org/2000/svg">
<path fill-rule="evenodd" clip-rule="evenodd" d="M421.488 350.196C451.37 336.443 485.052 325.631 499.46 296.03C513.652 266.873 509.315 234.686 503.076 202.84C495.433 163.826 523.718 93.6181 491.786 69.9721C457.743 44.7639 436.249 53.8673 395.078 63.6496C349.459 74.4893 255.869 129.371 239.794 173.468C223.906 217.054 252.553 230.762 269.629 273.925C284.482 311.469 273.987 365.102 310.038 383.208C346.06 401.3 384.898 367.036 421.488 350.196Z" fill="white"/>
<path fill-rule="evenodd" clip-rule="evenodd" d="M233.477 22.3757C245.969 15.5093 254.276 -2.69384 268.443 0.718847C282.614 4.13266 283.703 24.3267 292.249 36.5334C301.752 50.1063 323.614 59.1697 320.512 75.0927C317.414 90.9972 293.751 88.4925 280.452 97.087C266.813 105.902 259.403 125.958 242.951 125.218C225.354 124.428 211.133 108.983 201.579 93.5428C192.098 78.2221 184.791 58.7128 191.935 42.775C198.579 27.9526 219.428 30.0987 233.477 22.3757Z" fill="#FB5957"/>
<path fill-rule="evenodd" clip-rule="evenodd" d="M65.1365 242.719C84.4763 217.508 91.3241 177.741 122.387 171.092C153.441 164.444 178.905 193.386 203.852 213.025C225.487 230.055 245.184 248.583 253.98 274.68C264.027 304.493 270.563 337.992 255.231 365.474C239.22 394.174 206.616 406.956 175.067 416.132C140.341 426.233 103.095 435.301 70.7552 419.134C35.4965 401.507 2.37725 368.584 1.12198 329.172C-0.0644759 291.92 42.4481 272.295 65.1365 242.719Z" stroke="#2A2A2A"/>
</svg>
