<svg width="324" height="47" viewBox="0 0 324 47" fill="none" xmlns="http://www.w3.org/2000/svg">
<path d="M17.552 36.784L25.68 4.272H31.632L31.952 2.992H10.96L10.64 4.272H16.592L6.416 44.72H0.528L0.208 46H21.2L21.456 44.72H15.568L16.784 39.856L40.528 13.744L32.784 44.72H26.832L26.576 46H47.504L47.824 44.72H41.936L52.048 4.272H57.936L58.256 2.992H37.328L37.008 4.272H42.896L41.296 10.608L17.552 36.784ZM62.6745 28.112H70.1625C70.0585 26.708 69.7985 25.46 69.3825 24.42C68.9665 23.38 68.4465 22.444 67.8225 21.664C67.1465 20.884 66.4185 20.208 65.6385 19.688C64.8065 19.168 63.9745 18.752 63.0905 18.388C62.2065 18.076 61.3225 17.816 60.4385 17.712C59.5025 17.608 58.6185 17.504 57.7865 17.504C55.8625 17.504 54.0425 17.816 52.4825 18.492C50.8705 19.116 49.5185 20.052 48.3745 21.3C47.2305 22.548 46.3465 24.108 45.7225 25.876C45.0985 27.696 44.7865 29.776 44.7865 32.168C44.7865 34.508 45.0985 36.588 45.6705 38.408C46.2425 40.28 47.0745 41.788 48.1665 43.036C49.2585 44.284 50.6105 45.22 52.2225 45.896C53.8345 46.52 55.7065 46.832 57.7865 46.832C59.3985 46.832 60.8545 46.624 62.1025 46.208C63.3505 45.792 64.3905 45.272 65.3265 44.596C66.2625 43.972 66.9905 43.244 67.6665 42.412C68.2385 41.58 68.7585 40.748 69.1225 39.968C69.4865 39.136 69.7465 38.408 69.9545 37.628C70.1105 36.9 70.1625 36.328 70.1625 35.86H62.6745C62.6745 36.328 62.5705 36.848 62.4145 37.368C62.2065 37.94 61.8945 38.46 61.4785 38.98C61.0625 39.448 60.5425 39.864 59.9705 40.176C59.3465 40.54 58.6185 40.696 57.7865 40.696C56.5385 40.696 55.5505 40.436 54.8225 39.864C54.0425 39.344 53.5225 38.616 53.1585 37.784C52.7425 36.952 52.5345 36.068 52.4305 35.028C52.3265 34.04 52.2745 33.052 52.2745 32.168C52.2745 31.284 52.3785 30.348 52.4825 29.36C52.6385 28.372 52.8465 27.436 53.2625 26.552C53.6265 25.72 54.1985 25.044 54.9265 24.472C55.6545 23.9 56.5905 23.64 57.7865 23.64C58.5665 23.64 59.2425 23.744 59.8145 23.9C60.3345 24.108 60.8025 24.368 61.2185 24.784C61.5825 25.148 61.8945 25.616 62.1025 26.188C62.3625 26.708 62.5185 27.384 62.6745 28.112ZM85.537 28.112H93.025C92.921 26.708 92.661 25.46 92.245 24.42C91.829 23.38 91.309 22.444 90.685 21.664C90.009 20.884 89.281 20.208 88.501 19.688C87.669 19.168 86.837 18.752 85.953 18.388C85.069 18.076 84.185 17.816 83.301 17.712C82.365 17.608 81.481 17.504 80.649 17.504C78.725 17.504 76.905 17.816 75.345 18.492C73.733 19.116 72.381 20.052 71.237 21.3C70.093 22.548 69.209 24.108 68.585 25.876C67.961 27.696 67.649 29.776 67.649 32.168C67.649 34.508 67.961 36.588 68.533 38.408C69.105 40.28 69.937 41.788 71.029 43.036C72.121 44.284 73.473 45.22 75.085 45.896C76.697 46.52 78.569 46.832 80.649 46.832C82.261 46.832 83.717 46.624 84.965 46.208C86.213 45.792 87.253 45.272 88.189 44.596C89.125 43.972 89.853 43.244 90.529 42.412C91.101 41.58 91.621 40.748 91.985 39.968C92.349 39.136 92.609 38.408 92.817 37.628C92.973 36.9 93.025 36.328 93.025 35.86H85.537C85.537 36.328 85.433 36.848 85.277 37.368C85.069 37.94 84.757 38.46 84.341 38.98C83.925 39.448 83.405 39.864 82.833 40.176C82.209 40.54 81.481 40.696 80.649 40.696C79.401 40.696 78.413 40.436 77.685 39.864C76.905 39.344 76.385 38.616 76.021 37.784C75.605 36.952 75.397 36.068 75.293 35.028C75.189 34.04 75.137 33.052 75.137 32.168C75.137 31.284 75.241 30.348 75.345 29.36C75.501 28.372 75.709 27.436 76.125 26.552C76.489 25.72 77.061 25.044 77.789 24.472C78.517 23.9 79.453 23.64 80.649 23.64C81.429 23.64 82.105 23.744 82.677 23.9C83.197 24.108 83.665 24.368 84.081 24.784C84.445 25.148 84.757 25.616 84.965 26.188C85.225 26.708 85.381 27.384 85.537 28.112ZM109.488 19.376L104.816 38C104.496 39.216 104.304 40.368 104.304 41.776C104.304 46.256 107.76 46.896 109.616 46.896C113.072 46.896 116.08 44.144 120.56 36.528L119.664 36.08C118.576 38.128 114.8 44.08 112.88 44.08C112.368 44.08 112.24 43.696 112.176 43.248C112.176 43.056 112.176 42.8 112.176 42.608C112.24 42.288 112.304 42.096 112.624 40.816L118.256 18.224H95.5996L95.2796 19.312H96.1756C96.8796 19.312 100.016 19.312 100.016 22.64C100.016 24.304 99.3756 26.096 97.6476 31.152L95.5356 37.296C94.5116 40.24 92.7836 45.36 90.5436 45.36C90.0956 45.36 89.7756 44.976 89.7756 44.656C89.7756 44.464 89.9676 44.208 90.2876 43.76C90.6716 43.248 91.3116 42.48 91.3116 41.328C91.3116 39.856 90.2236 37.872 87.4076 37.872C84.7836 37.872 83.3116 39.792 83.3116 41.968C83.3116 44.144 84.4636 46.896 88.4956 46.896C92.5276 46.896 94.0636 44.592 96.3676 37.872L100.976 24.432C101.488 22.896 102.512 19.12 106.224 19.376H109.488ZM140.978 35.504C137.586 40.624 134.002 45.744 128.754 45.744C125.49 45.744 123.57 43.568 123.57 40.624C123.57 40.048 123.698 39.024 124.338 36.656L125.17 33.52C132.914 32.88 142.578 31.728 142.578 23.728C142.578 19.824 139.058 17.328 134.322 17.328C124.658 17.328 116.082 27.312 116.082 34.736C116.082 41.456 120.818 46.896 127.794 46.896C131.378 46.896 136.306 45.296 141.81 35.952L140.978 35.504ZM126.962 26.608C127.922 22.832 129.522 18.48 133.234 18.48C134.642 18.48 135.666 19.248 135.666 20.656C135.666 21.616 135.538 23.088 135.282 23.92L134.77 25.776C134.066 28.272 134.066 32.496 125.426 32.496L126.962 26.608ZM146.698 9.904C148.618 6.576 152.586 1.84 157.258 1.84C160.202 1.84 163.082 3.568 163.594 8.88C163.722 10.16 163.722 11.44 163.594 12.72C163.402 15.344 162.442 20.272 161.738 23.152L161.354 23.024V22.256C161.354 21.104 161.098 17.328 155.53 17.328C147.658 17.328 138.698 24.752 138.698 33.648C138.698 39.792 142.026 46.896 150.474 46.896C162.698 46.896 169.866 31.472 169.866 17.2C169.866 9.968 166.538 0.751999 158.282 0.751999C153.93 0.751999 150.154 2.8 145.802 9.328L146.698 9.904ZM149.258 26.736C150.09 23.664 151.306 18.48 156.298 18.48C157.706 18.48 160.202 18.928 160.202 22.768C160.202 25.2 159.306 27.696 158.73 29.808L156.49 38.256C155.338 42.736 153.93 45.744 149.77 45.744C146.89 45.744 145.866 43.44 145.866 40.88C145.866 39.536 146.25 37.68 146.634 36.336L149.258 26.736ZM166.437 32.168C166.437 34.3 166.801 36.276 167.425 38.044C168.049 39.864 168.985 41.424 170.233 42.724C171.481 43.972 172.937 45.012 174.705 45.74C176.473 46.468 178.397 46.832 180.581 46.832C182.817 46.832 184.793 46.468 186.561 45.74C188.329 45.012 189.785 43.972 190.981 42.724C192.177 41.424 193.113 39.864 193.789 38.044C194.413 36.276 194.725 34.3 194.725 32.168C194.725 30.036 194.413 28.06 193.789 26.292C193.113 24.472 192.177 22.912 190.981 21.612C189.785 20.312 188.329 19.324 186.561 18.596C184.793 17.868 182.817 17.504 180.581 17.504C178.397 17.504 176.473 17.868 174.705 18.596C172.937 19.324 171.481 20.312 170.233 21.612C168.985 22.912 168.049 24.472 167.425 26.292C166.801 28.06 166.437 30.036 166.437 32.168ZM173.925 32.168C173.925 31.128 174.081 30.088 174.289 29.048C174.497 28.008 174.861 27.124 175.433 26.292C175.953 25.512 176.629 24.836 177.461 24.368C178.293 23.9 179.333 23.64 180.581 23.64C181.881 23.64 182.973 23.848 183.805 24.316C184.637 24.836 185.313 25.46 185.833 26.24C186.353 27.02 186.717 27.956 186.925 28.996C187.133 30.036 187.237 31.076 187.237 32.168C187.237 33.26 187.133 34.3 186.925 35.34C186.717 36.38 186.353 37.264 185.833 38.044C185.313 38.824 184.637 39.5 183.805 39.968C182.973 40.436 181.881 40.696 180.581 40.696C179.333 40.696 178.293 40.436 177.461 39.968C176.629 39.5 175.953 38.824 175.433 37.992C174.861 37.212 174.497 36.276 174.289 35.236C174.081 34.248 173.925 33.208 173.925 32.168ZM210.389 30.256C218.133 28.144 219.797 25.072 219.797 22.768C219.797 20.784 218.325 17.328 211.349 17.328C202.709 17.328 192.789 26.224 192.789 35.76C192.789 42.224 197.461 46.896 203.669 46.896C211.093 46.896 218.645 41.776 218.645 36.016C218.645 31.344 213.397 30.896 212.181 30.896H210.325L210.389 30.256ZM202.261 32.688L204.885 32.112C206.421 31.792 210.709 30.768 210.709 34.864C210.709 35.248 210.581 36.464 210.453 36.976L209.621 40.176C208.981 42.544 208.085 45.744 203.669 45.744C201.557 45.744 200.085 44.656 200.085 42.544C200.085 41.456 200.405 39.728 200.597 39.024L202.261 32.688ZM202.517 31.6L203.733 27.184C204.437 24.56 206.165 18.48 210.901 18.48C212.117 18.48 213.077 18.928 213.077 20.144C213.077 20.592 212.885 21.936 212.757 22.512L212.117 25.2C211.093 29.616 208.469 30.448 205.461 31.024L202.517 31.6ZM239.905 40.54V25.876C239.905 24.888 239.749 23.9 239.489 22.912C239.177 21.924 238.605 21.04 237.773 20.208C236.889 19.428 235.693 18.752 234.185 18.232C232.625 17.764 230.597 17.504 228.153 17.504C226.385 17.556 224.929 17.764 223.681 18.128C222.433 18.492 221.341 19.012 220.509 19.584C219.573 20.208 218.897 20.884 218.377 21.612C217.857 22.34 217.389 23.068 217.129 23.744C216.817 24.472 216.609 25.148 216.505 25.72C216.401 26.344 216.349 26.812 216.349 27.124H223.525L223.837 25.616C223.993 25.2 224.253 24.784 224.617 24.42C224.929 24.108 225.397 23.796 226.021 23.588C226.593 23.432 227.321 23.328 228.309 23.328C229.141 23.328 229.869 23.38 230.441 23.536C231.013 23.692 231.429 23.9 231.793 24.212C232.105 24.472 232.365 24.784 232.521 25.2C232.625 25.564 232.729 25.98 232.729 26.448C232.729 26.916 232.625 27.28 232.469 27.592C232.313 27.852 232.105 28.06 231.845 28.216C231.585 28.424 231.325 28.528 231.013 28.58C230.701 28.684 230.441 28.684 230.181 28.736L223.161 29.776C221.965 29.932 220.925 30.244 219.989 30.764C219.053 31.232 218.273 31.856 217.597 32.584C216.973 33.312 216.453 34.144 216.089 35.132C215.725 36.12 215.569 37.16 215.569 38.304C215.569 39.708 215.777 40.956 216.193 41.996C216.609 43.088 217.233 43.972 217.961 44.7C218.741 45.376 219.625 45.948 220.665 46.312C221.705 46.676 222.849 46.832 224.097 46.832C225.293 46.832 226.333 46.728 227.217 46.52C228.101 46.312 228.829 46 229.505 45.636C230.181 45.272 230.753 44.856 231.325 44.388L232.937 42.776C232.937 43.556 232.989 44.18 233.197 44.7L233.613 46H241.569V44.856C241.309 44.804 241.153 44.7 240.945 44.544C240.737 44.388 240.581 44.18 240.425 43.816C240.269 43.556 240.113 43.088 240.061 42.568C239.957 42.048 239.905 41.372 239.905 40.54ZM232.729 32.48V35.288C232.729 36.224 232.573 37.004 232.365 37.68C232.157 38.408 231.845 38.98 231.429 39.448C231.065 39.916 230.649 40.332 230.181 40.592C229.713 40.904 229.245 41.112 228.777 41.32C228.257 41.476 227.841 41.58 227.425 41.632C227.009 41.684 226.645 41.736 226.385 41.736C225.865 41.736 225.397 41.684 224.929 41.528C224.513 41.424 224.149 41.164 223.837 40.904C223.473 40.592 223.213 40.28 223.005 39.812C222.849 39.396 222.745 38.876 222.745 38.304C222.745 37.576 222.849 37.004 223.057 36.536C223.265 36.068 223.577 35.652 223.993 35.288C224.409 34.976 224.929 34.716 225.553 34.508C226.177 34.3 226.905 34.144 227.737 33.988L229.661 33.624C230.389 33.52 230.961 33.312 231.429 33.104C231.845 32.948 232.313 32.74 232.729 32.48ZM248.103 28.32V18.336H240.927V46H248.103V34.144H258.659V46H265.835V18.336H258.659V28.32H248.103ZM297.637 18.224H289.125L285.029 33.712C283.877 36.4 278.501 44.656 275.109 44.656C274.277 44.656 273.573 44.4 273.573 43.056C273.573 42.16 273.893 41.456 274.085 40.624L279.845 18.224H265.509L265.189 19.312H271.653L267.173 35.952C266.341 38.96 266.213 39.536 266.213 41.008C266.213 44.592 268.069 46.896 271.269 46.896C277.093 46.896 281.893 41.008 284.069 37.616H284.325L284.197 38C283.813 39.088 283.685 40.688 283.685 41.776C283.685 45.936 286.821 46.896 288.933 46.896C292.453 46.896 295.461 44.144 299.941 36.528L299.045 36.08C297.893 38.256 294.181 44.08 292.261 44.08C291.749 44.08 291.493 43.76 291.493 43.248C291.493 42.8 291.621 42.352 292.005 40.816L297.637 18.224ZM316.11 35.808V46H323.338V18.336H308.466H307.166C306.646 18.388 306.074 18.388 305.45 18.492C304.774 18.544 304.15 18.7 303.526 18.856C302.85 19.012 302.226 19.22 301.706 19.532C301.238 19.792 300.718 20.104 300.25 20.52C299.782 20.936 299.366 21.404 299.002 22.028C298.586 22.6 298.274 23.276 298.066 24.004C297.858 24.784 297.702 25.668 297.702 26.656C297.702 26.864 297.702 27.124 297.754 27.436C297.754 27.748 297.806 28.06 297.858 28.424L298.17 29.464C298.274 29.828 298.43 30.192 298.69 30.504C299.002 30.972 299.314 31.388 299.678 31.752C299.99 32.064 300.354 32.324 300.718 32.532C301.03 32.792 301.394 32.948 301.706 33.052L302.538 33.364C301.758 33.572 301.134 33.884 300.614 34.144C300.146 34.404 299.782 34.768 299.522 35.184C299.262 35.548 299.054 36.068 298.95 36.588C298.794 37.108 298.69 37.784 298.638 38.512L298.274 41.84C298.222 42.204 298.17 42.568 298.17 42.88L298.014 43.868C297.91 44.232 297.806 44.596 297.65 44.908C297.546 45.272 297.338 45.636 297.13 46H304.722C304.982 45.376 305.138 44.752 305.242 44.076L305.346 42.568L305.45 39.916C305.502 38.98 305.658 38.252 305.866 37.68C306.126 37.16 306.49 36.744 306.958 36.432C307.426 36.172 308.05 36.016 308.778 35.912C309.506 35.86 310.39 35.808 311.43 35.808H316.11ZM310.338 23.744H316.11V30.712H310.13C309.558 30.712 308.986 30.712 308.414 30.66C307.842 30.66 307.322 30.504 306.854 30.296C306.386 30.036 305.97 29.724 305.71 29.256C305.398 28.788 305.242 28.164 305.242 27.28C305.242 26.396 305.398 25.72 305.71 25.252C305.97 24.732 306.386 24.368 306.854 24.16C307.374 23.952 307.894 23.796 308.518 23.796C309.09 23.744 309.714 23.744 310.338 23.744Z" fill="#F95B5B"/>
</svg>
