<svg width="911" height="354" viewBox="0 0 911 354" fill="none" xmlns="http://www.w3.org/2000/svg">
<path d="M73.6885 83.7656H116.126C119.893 83.7656 123.507 84.0901 127.007 84.7392C130.488 85.3882 133.569 86.5336 136.214 88.1753C138.877 89.817 140.988 92.0313 142.567 94.8184C144.146 97.6054 144.945 101.156 144.945 105.432C144.945 107.895 144.678 110.033 144.146 111.846C143.613 113.66 142.909 115.206 141.996 116.485C141.102 117.764 140.056 118.852 138.877 119.73C137.697 120.608 136.48 121.353 135.224 121.963C139.333 123.433 142.472 125.743 144.621 128.95C146.771 132.138 147.855 135.956 147.855 140.385C147.855 144.26 147.189 147.772 145.858 150.922C144.526 154.072 142.643 156.763 140.208 158.997C137.773 161.23 134.825 162.967 131.325 164.208C127.844 165.449 123.944 166.06 119.626 166.06H73.6885V83.7656ZM94.974 116.065H111.371C113.787 116.065 115.784 115.874 117.382 115.492C118.98 115.11 120.254 114.557 121.186 113.831C122.118 113.106 122.765 112.19 123.145 111.121C123.526 110.033 123.716 108.773 123.716 107.303C123.716 106.1 123.526 104.974 123.145 103.943C122.765 102.912 122.137 102.034 121.224 101.309C120.33 100.583 119.113 100.011 117.61 99.5716C116.107 99.1517 114.224 98.9226 111.961 98.9226H94.974V116.065ZM94.974 150.865H111.371C114.433 150.865 116.906 150.54 118.789 149.891C120.673 149.242 122.118 148.402 123.145 147.41C124.173 146.398 124.857 145.291 125.181 144.088C125.504 142.885 125.675 141.74 125.675 140.69C125.675 138.686 125.409 137.006 124.876 135.67C124.344 134.333 123.526 133.264 122.385 132.463C121.262 131.661 119.779 131.107 117.952 130.802C116.126 130.496 113.92 130.344 111.371 130.344H94.974V150.884V150.865Z" fill="#2A2A2A"/>
<path d="M210.534 150.927C201.469 184.744 179.26 207.714 155.01 207.714C138.164 207.714 128.551 198.373 128.551 188.842C128.551 183.619 132.253 175.574 141.696 175.574C150.402 175.574 154.274 181.732 154.274 189.204C154.274 193.874 152.045 195.361 149.458 197.229C148.344 197.973 146.682 199.097 146.682 200.413C146.682 202.09 149.458 204.34 154.821 204.34C173.707 204.34 182.584 171.838 188.872 144.56L189.609 141.377H188.872C179.977 155.006 165.926 168.464 151.667 168.464C139.26 168.464 137.05 157.446 137.05 151.27C137.05 146.218 138.901 139.68 139.826 136.516L152.782 87.9637H134.085L135.199 84.7803H176.653L159.807 150.164C159.43 151.48 158.334 156.321 158.334 157.256C158.334 158.933 158.712 161.926 162.772 161.926C171.649 161.926 187.399 140.252 191.649 129.977L203.49 84.7803H228.117L210.534 150.927V150.927Z" fill="#2A2A2A"/>
<path d="M297.404 100.035L258.664 168.091H254.578L247.163 98.3649H245.858L228.985 146.518C224.161 160.463 218.978 168.091 207.856 168.091C197.471 168.091 193.574 159.723 193.574 152.666C193.574 144.488 200.8 141.32 205.434 141.32C211.185 141.32 216.746 145.228 216.746 152.286C216.746 154.335 215.63 156.934 214.155 158.244C212.679 159.363 210.636 160.103 210.636 162.342C210.636 163.461 211.941 164.201 213.606 164.201C219.356 164.201 223.802 152.115 226.393 145.228C239.18 110.451 242.339 101.154 242.339 95.5759C242.339 91.4777 240.296 88.1385 231.954 88.1385H226.942L228.058 84.7992H269.03L273.664 135.742L302.606 84.7803H327.083L310.777 150.427C309.661 154.885 309.302 156.194 309.302 157.485C309.302 158.965 310.04 159.894 311.534 159.894C316.717 159.894 327.669 143.16 331.188 136.652L333.779 137.961C319.497 163.063 310.058 168.091 301.887 168.091C295.588 168.091 286.678 165.302 286.678 153.216C286.678 148.757 287.227 145.778 288.154 142.249L298.728 100.035H297.423H297.404Z" fill="#2A2A2A"/>
<path d="M345.637 131.843C345.637 132.581 345.712 133.565 345.863 134.794C346.015 136.024 346.298 137.348 346.752 138.786C347.187 140.224 347.829 141.662 348.68 143.119C349.512 144.575 350.646 145.881 352.045 147.073C353.444 148.264 355.164 149.21 357.205 149.948C359.247 150.686 361.704 151.064 364.559 151.064C366.033 151.064 367.507 150.856 368.944 150.44C370.4 150.024 371.742 149.4 372.97 148.586C374.199 147.773 375.277 146.789 376.184 145.635C377.091 144.481 377.753 143.156 378.15 141.681H399.794C399.794 143.156 399.473 144.84 398.83 146.751C398.187 148.643 397.223 150.573 395.919 152.521C394.615 154.47 392.97 156.381 391.004 158.254C389.038 160.126 386.694 161.791 383.991 163.248C381.288 164.705 378.226 165.878 374.804 166.767C371.383 167.656 367.583 168.091 363.387 168.091C358.018 168.091 352.99 167.297 348.283 165.689C343.576 164.08 339.474 161.545 335.958 158.083C332.442 154.602 329.663 150.118 327.66 144.594C325.637 139.07 324.635 132.373 324.635 124.503C324.635 119.035 325.354 113.776 326.809 108.724C328.265 103.673 330.533 99.2272 333.595 95.3867C336.677 91.5462 340.608 88.4814 345.41 86.1922C350.211 83.9031 355.977 82.749 362.725 82.749C369.87 82.749 375.863 83.922 380.74 86.2679C385.617 88.6138 389.53 91.9246 392.516 96.2002C395.503 100.495 397.62 105.66 398.906 111.714C400.191 117.768 400.834 124.503 400.834 131.881H345.674L345.637 131.843ZM379.095 117.957C379.095 114.4 378.566 111.449 377.507 109.084C376.449 106.719 375.125 104.827 373.519 103.427C371.912 102.027 370.154 101.043 368.245 100.476C366.317 99.9083 364.483 99.6245 362.706 99.6245C360.929 99.6245 359.152 99.9083 357.243 100.476C355.315 101.043 353.557 102.027 351.969 103.427C350.362 104.827 349.039 106.719 347.981 109.084C346.922 111.449 346.393 114.4 346.393 117.957H379.095Z" fill="#2A2A2A"/>
<path d="M448.404 118.628L456.92 84.7803H481.354L465.077 150.427C464.699 152.286 463.774 155.625 463.774 157.485C463.774 158.965 464.511 159.894 466.002 159.894C471.365 159.894 482.109 143.16 485.621 136.652L488.208 137.961C473.952 163.063 463.963 168.091 456.372 168.091C450.821 168.091 441.191 166.231 441.191 153.216C441.191 148.757 441.739 145.778 442.664 142.249L447.668 121.986H423.612L412.509 165.491H388.642L409.356 87.9488H390.662L391.776 84.7803H433.223L424.518 118.628H448.385H448.404Z" fill="#2A2A2A"/>
<path d="M353.033 203.817L314.007 272.718H309.891L302.421 202.126H301.106L284.109 250.878C279.25 264.996 274.028 272.718 262.824 272.718C252.362 272.718 248.437 264.247 248.437 257.101C248.437 248.823 255.716 245.615 260.385 245.615C266.178 245.615 271.78 249.572 271.78 256.717C271.78 258.792 270.656 261.423 269.169 262.749C267.683 263.882 265.625 264.631 265.625 266.898C265.625 268.031 266.94 268.78 268.617 268.78C274.41 268.78 278.888 256.544 281.498 249.572C294.38 214.381 297.562 204.969 297.562 199.322C297.562 195.173 295.504 191.792 287.101 191.792H282.051L283.175 188.411H324.45L329.118 239.987L358.254 188.411H382.912L366.486 254.854C365.362 259.368 365 260.694 365 262C365 263.498 365.743 264.439 367.248 264.439C372.47 264.439 383.503 247.497 387.047 240.909L389.658 242.234C375.29 267.647 365.762 272.737 357.549 272.737C351.204 272.737 342.228 269.914 342.228 257.678C342.228 253.164 342.781 250.148 343.715 246.575L354.348 203.855H353.033V203.817Z" fill="#2A2A2A"/>
<path d="M414.424 272.737C388.834 272.737 379.498 251.796 379.498 234.04C379.498 205.623 408.631 186.379 432.163 186.379C451.579 186.379 464.84 203.944 464.84 223.207C464.84 242.47 444.3 272.737 414.424 272.737ZM402.096 245.445C401.543 247.696 400.419 251.987 400.419 255.534C400.419 267.13 407.507 269.361 412.175 269.361C423.379 269.361 428.238 259.635 431.591 247.486L439.613 217.943C440.547 214.758 442.414 207.854 442.414 202.8C442.414 196.068 438.489 189.717 432.334 189.717C417.777 189.717 412.919 205.05 410.48 213.824L402.077 245.407L402.096 245.445Z" fill="#2A2A2A"/>
<path d="M458.763 188.411H490.283L503.902 247.394H504.281L517.597 188.411H548.151V269.689H528.47V204.293H528.167L512.994 269.689H493.901L478.804 204.293H478.425V269.689H458.744V188.411H458.763Z" fill="#2A2A2A"/>
<path d="M613.994 240.772C597.95 268.064 583.581 272.737 573.151 272.737C552.824 272.737 539.007 256.85 539.007 237.225C539.007 215.54 563.996 186.379 592.164 186.379C605.963 186.379 616.221 193.664 616.221 205.07C616.221 228.433 588.053 231.809 565.481 233.678L563.064 242.832C561.199 249.755 560.818 252.731 560.818 254.428C560.818 263.029 566.414 269.38 575.93 269.38C591.232 269.38 601.681 254.428 611.558 239.475L613.975 240.791L613.994 240.772ZM566.242 230.683C591.422 230.683 591.422 218.344 593.478 211.058L594.962 205.642C595.704 203.22 596.085 198.909 596.085 196.106C596.085 191.986 593.097 189.755 589.005 189.755C578.195 189.755 573.532 202.457 570.734 213.499L566.261 230.702L566.242 230.683Z" fill="#2A2A2A"/>
<path d="M612.157 188.411H633.251V217.788H664.271V188.411H685.308V269.689H664.271V234.872H633.251V269.689H612.157V188.411Z" fill="#2A2A2A"/>
<path d="M721.19 211.531C733.869 193.393 746.719 185.917 757.516 185.917C767.382 185.917 773.902 192.649 773.902 204.417C773.902 206.286 773.712 207.964 773.351 209.833L773.541 210.215C783.596 196.578 795.534 185.917 808.745 185.917C818.801 185.917 825.321 192.84 825.321 204.417C825.321 209.643 823.648 214.144 822.717 217.882L813.593 254.519C812.661 258.257 812.471 258.81 812.281 259.745V261.614C812.471 262.93 812.832 264.036 814.334 264.036C819.923 264.036 830.91 246.661 834.084 240.673L836.689 241.989C823.648 264.227 814.885 272.275 804.83 272.275C797.568 272.275 789.375 268.728 789.375 257.323C789.375 252.841 789.926 249.846 790.858 246.299L799.431 211.531C800.552 207.049 802.605 201.804 802.605 197.513C802.605 192.84 800.001 192.096 798.328 192.096C789.565 192.096 773.18 215.46 770.005 221.811L757.706 269.662H733.679L749.323 211.531C752.118 201.442 752.308 199.191 752.308 197.704C752.308 193.412 748.962 192.096 746.909 192.096C739.458 192.096 722.882 213.228 718.586 221.811L706.287 269.662H682.26L703.132 191.715H684.503L685.434 188.53H727.159L721.19 211.512V211.531Z" fill="#2A2A2A"/>
<rect x="73.6885" y="81.749" width="763" height="190" stroke="#F95B5B"/>
<rect x="1.68848" y="1.74902" width="908" height="81" stroke="#F95B5B" stroke-width="2"/>
<path d="M1.68848 271.75H909.689V352.75H1.68848V271.75Z" stroke="#F95B5B" stroke-width="2"/>
<path d="M836.688 352.75L836.688 1.75001L909.688 1.75L909.688 352.75L836.688 352.75Z" stroke="#F95B5B" stroke-width="2"/>
<path d="M1.68848 352.75L1.68846 1.75001L73.6885 1.75L73.6885 352.75L1.68848 352.75Z" stroke="#F95B5B" stroke-width="2"/>
<rect x="836.688" y="271.75" width="73" height="80" stroke="#F95B5B" stroke-width="2"/>
<rect x="612" y="189" width="72" height="81" stroke="#F95B5B" stroke-width="2"/>
</svg>
