<svg width="686" height="635" viewBox="0 0 686 635" fill="none" xmlns="http://www.w3.org/2000/svg">
<path fill-rule="evenodd" clip-rule="evenodd" d="M307.414 37.1927C366.827 -0.195133 462.018 -19.8549 511.459 29.3285C563.202 80.8017 487.381 174.913 514.102 242.802C544.12 319.069 695.899 404.937 684.95 486.154C674.734 561.937 519.147 519.366 452.516 557C395.945 588.951 372.091 624.23 307.414 630.553C239.281 637.213 154.204 639.545 104.516 592.5C56.8333 547.355 34.3989 512.809 17.0849 449.5C0.842806 390.111 -11.4207 270.237 17.083 215.652C46.1213 160.043 139.426 174.141 192.898 141.273C239.755 112.472 248.001 74.5802 307.414 37.1927Z" fill="white"/>
</svg>
