<svg width="1140" height="413" viewBox="0 0 1140 413" fill="none" xmlns="http://www.w3.org/2000/svg">
<mask id="mask0_238_642" style="mask-type:alpha" maskUnits="userSpaceOnUse" x="0" y="0" width="1140" height="413">
<rect width="1140" height="413" fill="#D9D9D9"/>
</mask>
<g mask="url(#mask0_238_642)">
<path fill-rule="evenodd" clip-rule="evenodd" d="M22.9363 187.062C2.35265 192.094 -21.7895 195.519 -37.9959 181.878C-55.1238 167.462 -58.7969 142.334 -56.6692 120.059C-54.6549 98.9702 -43.7873 79.5213 -26.9849 66.6001C-11.5011 54.693 9.23559 49.9555 28.1565 54.8272C44.4352 59.0186 49.6417 78.1717 62.0341 89.5205C76.7916 103.035 107.589 106.519 106.404 126.485C105.213 146.549 74.2211 146.612 57.9453 158.424C45.26 167.631 38.1658 183.339 22.9363 187.062Z" fill="white"/>
<path fill-rule="evenodd" clip-rule="evenodd" d="M268.58 76.5463C277.255 56.6733 309.865 73.5227 330.384 66.4694C349.364 59.9454 361.361 32.9692 380.798 37.9727C400.383 43.0144 405.97 68.0485 411.747 87.414C416.978 104.947 420.97 124.674 411.298 140.21C402.281 154.695 382.629 155.236 366.342 160.351C351.683 164.954 336.433 174.877 322.674 168.044C309.099 161.303 310.82 141.991 303.11 128.95C292.043 110.231 259.881 96.4745 268.58 76.5463Z" fill="#F95B5B" stroke="#F95B5B" stroke-width="2"/>
<path fill-rule="evenodd" clip-rule="evenodd" d="M431.986 74.5526C429.033 54.956 430.703 29.5381 447.868 19.6082C464.932 9.73705 484.418 27.0211 503.061 33.4374C515.21 37.6188 527.239 40.8374 536.222 50.0174C546.209 60.2237 552.496 72.5982 555.111 86.6305C559.117 108.122 570.636 134.625 554.807 149.717C539.023 164.765 512.069 155.224 491.913 146.885C476.925 140.685 472.012 123.671 461.669 111.186C451.245 98.6048 434.42 90.7033 431.986 74.5526Z" stroke="#F95B5B" stroke-width="2"/>
<path fill-rule="evenodd" clip-rule="evenodd" d="M968.611 155.959C966.969 136.21 970.328 110.959 988.117 102.193C1005.8 93.4783 1024.09 112.02 1042.27 119.662C1054.11 124.642 1065.9 128.653 1074.25 138.41C1083.53 149.258 1088.98 162.023 1090.66 176.198C1093.22 197.908 1102.95 225.119 1086.15 239.125C1069.4 253.09 1043.14 241.777 1023.59 232.116C1009.04 224.933 1005.28 207.631 995.787 194.486C986.225 181.239 969.963 172.236 968.611 155.959Z" fill="white"/>
<path fill-rule="evenodd" clip-rule="evenodd" d="M826.37 61.2552C811.835 49.8424 791.988 53.9548 773.502 54.1145C753.246 54.2896 727.001 45.4771 715.607 62.2122C704.094 79.1228 722.742 100.208 728.825 119.737C732.721 132.245 736.207 143.92 744.275 154.247C755.002 167.978 764.667 184.86 781.878 187.646C801.783 190.868 823.837 184.458 837.086 169.27C850.288 154.137 849.588 132.276 847.607 112.299C845.715 93.2377 841.444 73.0911 826.37 61.2552Z" fill="white"/>
<path fill-rule="evenodd" clip-rule="evenodd" d="M196.156 263.798C207.72 249.388 203.799 229.519 203.819 211.049C203.842 190.809 212.919 164.675 196.281 153.128C179.469 141.46 158.184 159.885 138.58 165.771C126.023 169.542 114.304 172.91 103.89 180.869C90.0419 191.452 73.0514 200.944 70.095 218.111C66.6757 237.966 72.8759 260.063 87.9468 273.448C102.964 286.785 124.849 286.3 144.862 284.516C163.958 282.813 184.163 278.743 196.156 263.798Z" fill="#F95B5B" stroke="#F95B5B" stroke-width="2"/>
<path fill-rule="evenodd" clip-rule="evenodd" d="M435.599 163.683C457.065 159.696 482.09 165.828 495.571 182.987C508.261 199.14 496.088 221.721 497.299 242.22C498.578 263.859 515.882 287.282 502.752 304.539C489.468 321.997 462.103 321.132 440.598 316.74C423.118 313.17 412.299 297.627 401.073 283.771C391.947 272.507 384.625 260.363 383.236 245.938C381.74 230.399 384.816 215.174 393.201 202.002C403.834 185.3 416.122 167.301 435.599 163.683Z" fill="white"/>
<path fill-rule="evenodd" clip-rule="evenodd" d="M264.203 -25.6251C280.994 -11.6818 292.273 11.4653 287.683 32.7922C283.364 52.8677 258.202 57.9512 243.199 71.9856C227.361 86.8013 220.396 115.07 198.72 116.013C176.791 116.968 159.963 95.3899 149.597 76.0598C141.17 60.3471 146.216 42.0989 149.704 24.6166C152.54 10.4046 157.206 -2.98479 167.42 -13.2732C178.424 -24.3562 192.108 -31.7257 207.607 -33.7037C227.258 -36.2117 248.967 -38.2769 264.203 -25.6251Z" fill="white"/>
<path fill-rule="evenodd" clip-rule="evenodd" d="M809.151 35.6814C824.968 31.2179 832.143 14.7816 842.778 2.26208C854.042 -10.9966 872.242 -21.0701 872.136 -38.4606C872.026 -56.5977 858.142 -72.6608 842.27 -81.4627C828.226 -89.2507 811.98 -80.3316 795.923 -80.7238C774.508 -81.2467 746.998 -101.263 734.196 -84.1019C721.271 -66.7749 750.253 -46.3111 754.436 -25.1089C757.915 -7.47495 744.033 13.3689 756.062 26.7332C768.537 40.5934 791.197 40.7479 809.151 35.6814Z" stroke="#2A2A2A" stroke-width="2"/>
<path fill-rule="evenodd" clip-rule="evenodd" d="M116.897 47.7139C130.332 38.2555 131.637 20.3713 137.507 5.03335C143.724 -11.2103 157.543 -26.7509 151.663 -43.1193C145.53 -60.1905 127.095 -70.7351 109.198 -73.7707C93.362 -76.4567 81.0034 -62.6534 65.727 -57.6952C45.3533 -51.0826 12.7515 -60.8345 6.38089 -40.3999C-0.0514086 -19.7676 34.0882 -10.082 45.0811 8.52891C54.2239 24.0077 48.0584 48.2747 63.8465 56.8893C80.2204 65.8234 101.646 58.4503 116.897 47.7139Z" stroke="#F95B5B" stroke-width="2"/>
<path fill-rule="evenodd" clip-rule="evenodd" d="M982.215 53.3095C983.776 74.3792 969.582 93.6996 953.039 106.859C939.195 117.872 920.466 118.353 902.876 116.422C888.959 114.893 877.153 107.294 867.219 97.435C858.281 88.5642 852.478 77.4282 850.994 64.9287C849.458 51.9933 852.862 39.692 858.997 28.1979C867.322 12.5998 874.524 -6.33773 891.566 -11.0892C910.245 -16.2973 929.621 -7.12816 945.426 4.09997C962.788 16.4337 980.643 32.0836 982.215 53.3095Z" stroke="#2A2A2A" stroke-width="2"/>
<path fill-rule="evenodd" clip-rule="evenodd" d="M1119.61 -7.88877C1140.61 -5.39827 1156.88 12.21 1166.65 30.9463C1174.83 46.6259 1171.73 65.0859 1166.47 81.9689C1162.31 95.3267 1152.59 105.455 1141.01 113.316C1130.59 120.389 1118.54 123.955 1105.98 123.025C1092.98 122.062 1081.54 116.376 1071.42 108.165C1057.68 97.0236 1040.45 86.3454 1039.04 68.7248C1037.48 49.4109 1050.19 32.1578 1064.24 18.7999C1079.67 4.12677 1098.45 -10.3977 1119.61 -7.88877Z" stroke="#F95B5B" stroke-width="2"/>
<path fill-rule="evenodd" clip-rule="evenodd" d="M634.45 -86.4991C654.939 -93.7124 677.964 -95.0588 697.118 -84.8178C716.761 -74.3145 729.415 -54.3965 734.86 -32.8111C740.216 -11.5797 737.712 11.2369 726.017 29.7541C714.738 47.6137 695.295 58.1763 674.622 62.5722C655.091 66.7252 635.243 62.5401 617.84 52.7568C600.239 42.8616 584.484 28.5379 579.361 9.01903C574.264 -10.3989 581.46 -30.2371 591.491 -47.6306C601.518 -65.0162 615.509 -79.8305 634.45 -86.4991Z" fill="#F95B5B" stroke="#F95B5B" stroke-width="2"/>
<path fill-rule="evenodd" clip-rule="evenodd" d="M339.232 -93.4641C357.841 -99.8669 378.301 -110.602 395.516 -101.071C412.579 -91.6238 411.559 -67.9306 418.351 -49.6594C425.789 -29.6484 448.296 -8.59268 436.508 9.21054C424.518 27.3186 395.515 12.3344 374.272 16.9112C357.011 20.6301 341.603 41.1736 325.937 33.0333C310.271 24.8926 317.104 0.931129 311.391 -15.7632C305.408 -33.248 285.977 -48.1289 292.211 -65.5261C298.6 -83.3586 321.307 -87.2969 339.232 -93.4641Z" stroke="#F95B5B" stroke-width="2"/>
<path fill-rule="evenodd" clip-rule="evenodd" d="M232.411 223.106C237.843 204.206 240.787 181.304 258.479 172.689C276.015 164.15 294.849 178.583 313.723 183.512C334.393 188.911 364.569 182.58 372.395 202.443C380.356 222.646 351.428 237.776 342.988 257.784C336.129 274.041 344.124 298.438 328.461 306.584C312.798 314.729 297.08 295.386 280.118 290.479C262.353 285.34 239.004 292.697 228.323 277.612C217.374 262.15 227.178 241.311 232.411 223.106Z" stroke="#2A2A2A" stroke-width="2"/>
<path fill-rule="evenodd" clip-rule="evenodd" d="M967.876 216.185C969.149 234.188 960.069 251.123 947.571 264.154C935.368 276.877 918.978 284.326 901.381 285.515C883.319 286.736 863.707 283.83 851.298 270.66C839.419 258.053 840.175 238.99 841.26 221.708C842.204 206.677 847.85 193.189 856.919 181.158C867.277 167.419 878.321 151.537 895.451 149.823C913.068 148.061 928.059 160.782 941.107 172.738C954.148 184.687 966.629 198.55 967.876 216.185Z" fill="#F95B5B"/>
<path fill-rule="evenodd" clip-rule="evenodd" d="M68.9525 274.165C70.6319 292.134 61.9366 309.27 49.7364 322.579C37.8238 335.574 21.6061 343.391 4.04015 344.977C-13.9896 346.604 -33.6618 344.142 -46.3651 331.255C-58.526 318.919 -58.2008 299.843 -57.5063 282.542C-56.9023 267.493 -51.5633 253.881 -42.7683 241.649C-32.7236 227.679 -22.041 211.552 -4.9535 209.453C12.6188 207.294 27.8931 219.673 41.2082 231.332C54.5161 242.984 67.3073 256.562 68.9525 274.165Z" stroke="#2A2A2A" stroke-width="2"/>
<path fill-rule="evenodd" clip-rule="evenodd" d="M489.754 -108.149C503.438 -108.684 515.727 -104.971 528.353 -99.6705C542.732 -93.634 561.135 -90.5128 566.562 -75.9037C572.068 -61.0838 558.719 -47.1103 553.412 -32.2183C546.507 -12.8424 550.316 14.8841 531.355 22.8926C512.414 30.8928 493.821 11.3436 476.501 0.266484C461.481 -9.34 447.415 -19.6305 439.729 -35.709C430.635 -54.732 418.569 -78.4994 430.552 -95.8514C442.452 -113.083 468.816 -107.332 489.754 -108.149Z" fill="white"/>
<path fill-rule="evenodd" clip-rule="evenodd" d="M959 -103.655C971.581 -109.06 984.385 -109.999 998.073 -109.577C1013.66 -109.097 1031.96 -112.781 1042.27 -101.09C1052.73 -89.23 1045.29 -71.4016 1045.69 -55.5987C1046.2 -35.0377 1059.71 -10.5224 1044.89 3.74964C1030.08 18.007 1005.7 6.42413 985.561 2.2929C968.091 -1.28985 951.266 -5.85306 938.318 -18.1059C922.998 -32.6025 903.201 -50.4627 908.155 -70.9548C913.075 -91.3046 939.75 -95.387 959 -103.655Z" fill="#F95B5B" stroke="#F95B5B" stroke-width="2"/>
<path fill-rule="evenodd" clip-rule="evenodd" d="M626.062 202.702C609.238 198.002 602.641 178.993 594.034 163.805C587.048 151.476 582.955 138.887 581.893 124.759C580.402 104.916 571.452 80.2256 586.8 67.5447C602.136 54.8739 624.269 70.3568 643.917 73.5136C662.76 76.5412 684.7 71.4041 697.701 85.3635C711.325 99.9918 711.734 122.536 707.828 142.134C704.152 160.577 692.544 175.903 677.425 187.103C662.482 198.172 643.977 207.707 626.062 202.702Z" fill="#F95B5B"/>
<path fill-rule="evenodd" clip-rule="evenodd" d="M525.033 260.306C522.102 246.819 529.347 234.328 535.042 221.754C542.941 204.313 545.091 178.494 563.851 174.598C582.567 170.712 593.012 195.79 608.896 206.418C625.651 217.628 651.538 218.519 658.009 237.599C664.774 257.542 650.83 277.875 639.057 295.34C626.908 313.36 613.206 337.605 591.503 336.252C569.901 334.904 564.07 306.052 549.822 289.774C541.034 279.733 527.866 273.341 525.033 260.306Z" stroke="#F95B5B" stroke-width="2"/>
<path fill-rule="evenodd" clip-rule="evenodd" d="M693.756 198.484C705.144 185.556 721.042 174.801 738.222 176.206C754.276 177.519 763.675 193.286 774.616 205.097C784.1 215.335 793.719 225.284 796.375 238.979C799.498 255.083 800.93 273.431 790.291 285.925C779.481 298.619 760.903 298.519 744.299 300.133C726.416 301.872 706.468 306.906 692.664 295.415C678.606 283.711 677.607 263.065 677.813 244.783C678.004 227.817 682.536 211.22 693.756 198.484Z" stroke="#F95B5B" stroke-width="2"/>
<path fill-rule="evenodd" clip-rule="evenodd" d="M960.784 526.869C956.354 547.573 948.927 570.778 929.579 579.414C909.131 588.542 884.892 580.903 865.749 569.29C847.625 558.294 834.834 540.051 830.509 519.312C826.523 500.2 831.285 479.486 843.913 464.59C854.779 451.774 874.303 455.431 889.924 449.227C908.528 441.839 925.077 415.657 942.551 425.417C960.11 435.225 946.671 463.128 950.226 482.91C952.997 498.328 964.061 511.55 960.784 526.869Z" stroke="#F95B5B" stroke-width="2"/>
<path fill-rule="evenodd" clip-rule="evenodd" d="M647.698 317.496C665.359 304.899 684.672 336.093 705.903 340.574C725.541 344.72 749.706 327.734 763.808 342.004C778.019 356.382 769.94 380.728 764.938 400.308C760.41 418.035 753.691 437.009 737.405 445.373C722.221 453.171 705.082 443.548 688.479 439.576C673.536 436.002 655.35 436.686 647.058 423.761C638.878 411.01 650.285 395.325 650.376 380.179C650.507 358.439 629.987 330.128 647.698 317.496Z" fill="#F95B5B"/>
<path fill-rule="evenodd" clip-rule="evenodd" d="M398.174 354.007C414.07 339.214 434.639 328.786 456.292 330.527C478.5 332.312 498.066 345.518 511.691 363.131C525.092 380.455 531.923 402.371 528.609 424.014C525.413 444.889 511.815 462.335 494.622 474.619C478.379 486.224 458.511 490.312 438.646 488.292C418.553 486.249 398.382 479.409 385.879 463.562C373.44 447.797 372.101 426.739 374.34 406.789C376.578 386.849 383.478 367.682 398.174 354.007Z" stroke="#2A2A2A" stroke-width="2"/>
<path fill-rule="evenodd" clip-rule="evenodd" d="M1045.96 274.508C1061.15 281.97 1078.67 284.51 1088.72 298.12C1100.85 314.531 1110.22 334.884 1105.16 354.647C1099.83 375.49 1081.61 389.704 1062.67 399.947C1042.72 410.74 1019.08 421.702 998.391 412.404C978.37 403.408 970.775 378.849 967.461 357.168C964.989 340.994 979.916 328.668 983.139 312.627C987.487 290.989 970.27 260.678 989.15 249.221C1007.57 238.044 1026.62 265.01 1045.96 274.508Z" stroke="#2A2A2A" stroke-width="2"/>
<path fill-rule="evenodd" clip-rule="evenodd" d="M43.9891 388.107C49.0704 371.97 48.9308 354.288 60.8732 342.296C75.2734 327.837 93.99 315.5 114.307 317.5C135.736 319.611 152.558 335.455 165.559 352.605C179.259 370.677 193.682 392.358 187.618 414.203C181.75 435.338 158.603 446.558 137.655 453.114C122.028 458.005 107.573 445.129 91.2144 444.375C69.1488 443.358 41.7681 464.952 27.575 448.041C13.7277 431.542 37.5214 408.646 43.9891 388.107Z" fill="#F95B5B" stroke="#F95B5B" stroke-width="2"/>
<path fill-rule="evenodd" clip-rule="evenodd" d="M294.457 461.653C277.155 464.062 263.504 449.271 249.54 438.784C238.204 430.272 229.417 420.366 222.793 407.839C213.49 390.245 195.41 371.185 204.407 353.433C213.397 335.695 239.879 341.05 259.153 336.099C277.637 331.351 295.693 317.883 313.195 325.488C331.535 333.458 340.926 353.961 345.184 373.485C349.192 391.858 344.681 410.543 335.301 426.846C326.03 442.96 312.881 459.088 294.457 461.653Z" stroke="#F95B5B" stroke-width="2"/>
<path fill-rule="evenodd" clip-rule="evenodd" d="M525.68 450.435C529.229 437.097 541.379 429.282 552.187 420.688C567.179 408.767 580.879 386.77 599.352 391.853C617.783 396.924 615.629 424.002 624.912 440.698C634.704 458.31 657.335 470.9 654.383 490.829C651.298 511.659 629.607 523.4 611.157 533.576C592.119 544.076 568.856 559.408 550.16 548.312C531.552 537.268 539.534 508.935 534.287 487.956C531.05 475.015 522.249 463.326 525.68 450.435Z" stroke="#F95B5B" stroke-width="2"/>
<path fill-rule="evenodd" clip-rule="evenodd" d="M801.232 339.665C804.245 322.708 812.242 305.269 827.654 297.556C842.056 290.349 858.284 298.947 873.773 303.363C887.199 307.192 900.59 310.704 909.978 321.03C921.017 333.172 931.777 348.109 929.179 364.306C926.539 380.763 910.609 390.317 897.259 400.311C882.88 411.074 868.449 425.727 850.679 423.068C832.582 420.36 820.998 403.234 811.672 387.504C803.017 372.906 798.264 356.371 801.232 339.665Z" fill="white"/>
<rect x="1" y="1" width="1138" height="411" rx="24" stroke="#F95B5B" stroke-width="2"/>
</g>
</svg>
