<svg width="420" height="326" viewBox="0 0 420 326" fill="none" xmlns="http://www.w3.org/2000/svg">
<path fill-rule="evenodd" clip-rule="evenodd" d="M109.876 67.6599C145.669 71.7833 148.594 124.306 175.556 148.297C205.845 175.249 275.645 173.956 274.996 214.585C274.345 255.267 221.245 269.927 187.608 292.623C163.294 309.03 139.172 326.032 109.876 326C80.6111 325.968 51.6553 314.503 32.3139 292.453C13.96 271.53 15.769 242.227 12.1447 214.585C7.57105 179.703 -10.6634 142.368 8.79889 113.109C30.1124 81.0674 71.7484 63.2675 109.876 67.6599Z" fill="white"/>
<path fill-rule="evenodd" clip-rule="evenodd" d="M363.984 56.2001C390.301 85.8154 408.56 117.207 416.32 157.851C425.713 207.046 404.94 264.847 363.984 277.12C325.372 288.691 297.625 240.835 261 224C236.946 212.943 198.842 204.264 166.5 184.5C133.08 158.267 112.378 114.715 116.668 76.6009C121.035 37.8056 153.105 25.6449 188.912 10.0882C219.4 -3.15734 252.694 1.42525 284.838 9.89167C315.566 17.9849 342.877 32.4478 363.984 56.2001Z" stroke="#F95B5B" stroke-width="2"/>
</svg>
