<svg width="447" height="378" viewBox="0 0 447 378" fill="none" xmlns="http://www.w3.org/2000/svg">
<path fill-rule="evenodd" clip-rule="evenodd" d="M109.876 119.66C145.669 123.783 148.594 176.306 175.556 200.297C205.845 227.249 275.645 225.956 274.996 266.585C274.345 307.267 221.245 321.927 187.608 344.623C163.294 361.03 139.172 378.032 109.876 378C80.6111 377.968 51.6553 366.503 32.3139 344.453C13.96 323.53 15.769 294.227 12.1447 266.585C7.57105 231.703 -10.6634 194.368 8.79889 165.109C30.1124 133.067 71.7484 115.268 109.876 119.66Z" fill="white"/>
<path fill-rule="evenodd" clip-rule="evenodd" d="M391.405 56.2001C417.722 85.8154 435.98 117.207 443.741 157.851C453.133 207.046 432.361 264.847 391.405 277.12C352.792 288.691 315.831 244.005 279.206 227.17C255.152 216.113 227.1 214.592 194.758 194.828C161.338 168.595 139.798 114.715 144.089 76.6009C148.455 37.8056 180.526 25.6449 216.333 10.0882C246.82 -3.15734 280.115 1.42525 312.259 9.89167C342.986 17.9849 370.298 32.4478 391.405 56.2001Z" stroke="#F95B5B" stroke-width="2"/>
</svg>
