<svg width="527" height="45" viewBox="0 0 527 45" fill="none" xmlns="http://www.w3.org/2000/svg">
<path d="M33.16 29.92C32.904 30.496 32.008 32.48 31.304 33.76C29.128 37.664 26.248 39.84 25.928 40.096C23.368 42.016 19.272 43.616 16.264 43.616C11.912 43.616 9.16 40.736 9.16 35.552C9.16 32.672 9.928 29.088 10.632 26.592L13.832 14.944C14.856 11.104 16.072 7.456 18.568 4.768C20.424 2.784 23.048 1.376 25.736 1.376C27.784 1.376 30.408 2.208 32.072 5.344C32.968 7.072 33.48 9.248 33.48 12.192C33.48 13.344 33.416 14.304 33.224 15.328H34.632L38.408 0.0959969H37.064C36.744 1.696 35.208 2.208 34.12 2.208C33.352 2.208 32.648 1.952 31.944 1.632C30.024 0.863998 28.488 0.0959969 25.736 0.0959969C21.512 0.0959969 17.096 1.888 13.576 4.448C9.288 7.584 5.512 12.32 3.4 16.672C0.776 22.112 0.584 26.976 0.584 28.448C0.584 34.4 2.76 38.24 5 40.608C8.072 43.872 11.592 44.896 15.496 44.896C17.352 44.896 19.528 44.576 21.896 43.744C24.456 42.848 25.864 41.632 27.208 41.632C29.192 41.632 29.576 43.616 29.384 44.896H30.856L34.568 29.92H33.16ZM68.394 16.224H54.058L53.738 17.312H60.138L57.578 27.04C57.258 28.128 56.682 29.6 56.682 31.392C56.682 32.544 57.002 33.76 57.706 34.528C58.666 35.552 60.65 35.936 61.866 35.936C63.786 35.936 66.282 35.104 68.842 33.12C69.93 32.224 70.89 31.328 71.658 30.368L70.25 36C69.93 37.152 69.738 37.984 69.738 39.328C69.738 40.672 69.93 42.4 71.274 43.616C71.594 43.872 72.81 44.896 74.986 44.896C76.522 44.896 77.802 44.384 78.954 43.552C80.81 42.208 82.73 39.648 83.818 38.048C84.522 36.96 85.418 35.616 85.994 34.528L85.098 34.08C84.394 35.296 83.434 36.896 82.666 37.984C81.898 39.072 79.658 42.08 78.378 42.08C77.802 42.08 77.546 41.76 77.546 41.12C77.546 40.544 77.738 39.968 77.994 38.816L83.626 16.224H75.178L72.362 27.488C71.146 29.792 69.93 31.072 68.522 32.224C66.794 33.568 65.898 33.696 65.514 33.696C64.81 33.696 64.234 33.376 64.234 32.416C64.234 31.776 64.618 30.88 65.13 28.96L68.394 16.224ZM90.5355 32.404H109.515C109.515 29.856 109.255 27.568 108.839 25.488C108.423 23.408 107.695 21.588 106.655 20.132C105.615 18.676 104.263 17.532 102.599 16.7C100.935 15.92 98.8555 15.504 96.4115 15.504C94.0715 15.504 92.0955 15.868 90.4835 16.7C88.8195 17.48 87.4155 18.52 86.3755 19.872C85.3355 21.172 84.5555 22.68 84.0875 24.448C83.5675 26.164 83.3075 27.984 83.3075 29.856C83.3075 32.56 83.6715 34.848 84.3475 36.772C85.0235 38.644 86.0115 40.204 87.2075 41.4C88.4035 42.596 89.8075 43.48 91.4715 44C93.0315 44.572 94.7995 44.832 96.6195 44.832C98.0755 44.832 99.3755 44.676 100.571 44.364C101.715 44.052 102.755 43.688 103.691 43.168C104.679 42.7 105.459 42.076 106.135 41.452C106.811 40.828 107.383 40.152 107.851 39.476C108.267 38.8 108.579 38.176 108.839 37.5C109.047 36.876 109.151 36.304 109.151 35.784H101.715C101.559 36.304 101.351 36.72 101.039 37.136C100.727 37.5 100.363 37.864 99.9475 38.124C99.4795 38.436 99.0635 38.644 98.5435 38.748C98.0755 38.904 97.5555 39.008 97.0355 39.008C96.0475 39.008 95.2155 38.852 94.5395 38.592C93.8115 38.384 93.2395 38.02 92.7715 37.604C92.2515 37.24 91.8355 36.772 91.5755 36.252C91.3155 35.784 91.0555 35.264 90.8995 34.796C90.7435 34.276 90.6395 33.86 90.6395 33.392C90.5875 32.976 90.5355 32.664 90.5355 32.404ZM102.027 27.62H90.7955C90.7955 26.424 90.9515 25.384 91.3675 24.552C91.6795 23.772 92.1475 23.096 92.7195 22.628C93.2395 22.16 93.8635 21.796 94.5395 21.588C95.1635 21.432 95.8395 21.328 96.4115 21.328C97.0355 21.328 97.6595 21.432 98.2835 21.588C98.9595 21.796 99.5835 22.16 100.155 22.628C100.675 23.096 101.143 23.772 101.507 24.552C101.871 25.384 102.027 26.424 102.027 27.62ZM127.126 22.16V16.336H108.51V44H115.686V22.16H127.126ZM150.591 27.296C150.591 24.224 149.312 21.024 147.264 18.848C145.024 16.48 141.823 15.328 138.879 15.328C135.872 15.328 132.287 16.544 129.791 18.016C124.543 21.088 121.343 26.4 121.343 31.968C121.343 34.976 122.367 38.368 123.967 40.544C126.207 43.488 129.791 44.896 133.311 44.896C138.303 44.896 143.231 42.016 146.431 38.048C148.927 34.976 150.591 30.752 150.591 27.296ZM131.967 24.736C132.543 22.496 133.375 19.552 135.295 17.888C136.191 17.12 137.599 16.48 138.879 16.48C140.927 16.48 142.911 17.952 142.911 20.96C142.911 22.688 142.271 25.056 141.951 26.144L139.199 36.256C138.24 39.776 137.215 41.376 136.319 42.208C135.423 43.04 134.015 43.744 132.543 43.744C130.943 43.744 129.919 43.04 129.343 42.272C128.831 41.504 128.511 40.416 128.511 39.328C128.511 38.112 128.831 36.576 129.087 35.552L131.967 24.736ZM186.487 26.112H193.975C193.871 24.708 193.611 23.46 193.195 22.42C192.779 21.38 192.259 20.444 191.635 19.664C190.959 18.884 190.231 18.208 189.451 17.688C188.619 17.168 187.787 16.752 186.903 16.388C186.019 16.076 185.135 15.816 184.251 15.712C183.315 15.608 182.431 15.504 181.599 15.504C179.675 15.504 177.855 15.816 176.295 16.492C174.683 17.116 173.331 18.052 172.187 19.3C171.043 20.548 170.159 22.108 169.535 23.876C168.911 25.696 168.599 27.776 168.599 30.168C168.599 32.508 168.911 34.588 169.483 36.408C170.055 38.28 170.887 39.788 171.979 41.036C173.071 42.284 174.423 43.22 176.035 43.896C177.647 44.52 179.519 44.832 181.599 44.832C183.211 44.832 184.667 44.624 185.915 44.208C187.163 43.792 188.203 43.272 189.139 42.596C190.075 41.972 190.803 41.244 191.479 40.412C192.051 39.58 192.571 38.748 192.935 37.968C193.299 37.136 193.559 36.408 193.767 35.628C193.923 34.9 193.975 34.328 193.975 33.86H186.487C186.487 34.328 186.383 34.848 186.227 35.368C186.019 35.94 185.707 36.46 185.291 36.98C184.875 37.448 184.355 37.864 183.783 38.176C183.159 38.54 182.431 38.696 181.599 38.696C180.351 38.696 179.363 38.436 178.635 37.864C177.855 37.344 177.335 36.616 176.971 35.784C176.555 34.952 176.347 34.068 176.243 33.028C176.139 32.04 176.087 31.052 176.087 30.168C176.087 29.284 176.191 28.348 176.295 27.36C176.451 26.372 176.659 25.436 177.075 24.552C177.439 23.72 178.011 23.044 178.739 22.472C179.467 21.9 180.403 21.64 181.599 21.64C182.379 21.64 183.055 21.744 183.627 21.9C184.147 22.108 184.615 22.368 185.031 22.784C185.395 23.148 185.707 23.616 185.915 24.188C186.175 24.708 186.331 25.384 186.487 26.112ZM205.754 16.224H191.418L191.098 17.312H197.498L190.33 44H198.586L202.81 27.616C204.282 24.608 205.69 23.072 207.738 20.896C209.21 19.296 211.066 17.44 212.602 17.44C213.562 17.44 214.394 18.08 214.394 19.36C214.394 19.808 214.33 20.64 213.37 24.096L207.994 44H216.25L220.474 27.616C221.946 24.608 223.354 23.072 225.338 20.96C226.618 19.616 228.602 17.44 230.202 17.44C230.97 17.44 231.674 17.888 231.674 19.04C231.674 20.32 230.97 22.496 230.586 24.096L227.642 36C227.322 37.216 227.13 37.984 227.13 39.328C227.13 40.672 227.322 42.4 228.666 43.616C229.562 44.448 230.906 44.896 232.314 44.896C233.658 44.896 235.002 44.512 236.346 43.552C237.498 42.72 238.842 41.184 239.674 40.224C241.21 38.368 241.914 37.024 243.386 34.528L242.49 34.08C241.082 36.704 239.482 38.816 238.714 39.84C237.114 41.888 236.218 42.08 235.834 42.08C235.194 42.08 235.002 41.632 235.002 40.992C235.002 40.416 235.194 39.968 235.45 38.816L238.586 26.272C239.034 24.544 239.482 23.264 239.482 21.472C239.482 20.512 239.354 19.104 238.586 17.824C237.498 15.968 235.77 15.328 233.786 15.328C229.754 15.328 226.746 18.08 224.826 20C223.482 21.344 222.586 22.432 221.69 23.648L221.626 23.52C221.754 22.88 221.818 22.176 221.818 21.536C221.818 20.448 221.69 19.104 220.922 17.824C219.834 15.968 218.106 15.328 216.186 15.328C212.09 15.328 209.018 18.08 207.226 19.936C205.882 21.28 204.794 22.56 203.706 24.096L205.754 16.224ZM240.168 30.168C240.168 32.3 240.532 34.276 241.156 36.044C241.78 37.864 242.716 39.424 243.964 40.724C245.212 41.972 246.668 43.012 248.436 43.74C250.204 44.468 252.128 44.832 254.312 44.832C256.548 44.832 258.524 44.468 260.292 43.74C262.06 43.012 263.516 41.972 264.712 40.724C265.908 39.424 266.844 37.864 267.52 36.044C268.144 34.276 268.456 32.3 268.456 30.168C268.456 28.036 268.144 26.06 267.52 24.292C266.844 22.472 265.908 20.912 264.712 19.612C263.516 18.312 262.06 17.324 260.292 16.596C258.524 15.868 256.548 15.504 254.312 15.504C252.128 15.504 250.204 15.868 248.436 16.596C246.668 17.324 245.212 18.312 243.964 19.612C242.716 20.912 241.78 22.472 241.156 24.292C240.532 26.06 240.168 28.036 240.168 30.168ZM247.656 30.168C247.656 29.128 247.812 28.088 248.02 27.048C248.228 26.008 248.592 25.124 249.164 24.292C249.684 23.512 250.36 22.836 251.192 22.368C252.024 21.9 253.064 21.64 254.312 21.64C255.612 21.64 256.704 21.848 257.536 22.316C258.368 22.836 259.044 23.46 259.564 24.24C260.084 25.02 260.448 25.956 260.656 26.996C260.864 28.036 260.968 29.076 260.968 30.168C260.968 31.26 260.864 32.3 260.656 33.34C260.448 34.38 260.084 35.264 259.564 36.044C259.044 36.824 258.368 37.5 257.536 37.968C256.704 38.436 255.612 38.696 254.312 38.696C253.064 38.696 252.024 38.436 251.192 37.968C250.36 37.5 249.684 36.824 249.164 35.992C248.592 35.212 248.228 34.276 248.02 33.236C247.812 32.248 247.656 31.208 247.656 30.168ZM297.291 16.224H288.779L284.683 31.712C283.403 34.848 281.547 37.152 279.371 39.328C276.171 42.528 274.891 42.656 274.443 42.656C273.227 42.656 273.227 41.504 273.227 41.312C273.227 40.288 273.483 39.52 273.739 38.624L279.499 16.224H265.163L264.843 17.312H271.307L266.827 33.952C266.315 35.872 265.867 37.664 265.867 39.456C265.867 40.736 266.123 42.144 267.147 43.296C268.235 44.576 269.515 44.896 270.859 44.896C275.019 44.896 277.899 42.272 279.883 40.224C281.419 38.624 282.507 37.408 283.723 35.616H283.979L283.851 36C283.531 37.024 283.339 38.368 283.339 39.456C283.339 40.672 283.531 42.4 284.875 43.616C285.771 44.448 287.115 44.896 288.587 44.896C290.187 44.896 291.403 44.384 292.555 43.552C293.899 42.592 294.859 41.504 295.883 40.224C297.163 38.624 298.251 37.024 299.595 34.528L298.699 34.08C298.059 35.232 296.843 37.344 294.859 39.904C293.323 41.888 292.427 42.08 291.915 42.08C291.339 42.08 291.147 41.696 291.147 41.12C291.147 40.608 291.275 40.224 291.659 38.816L297.291 16.224ZM310.921 16.224H296.585L296.265 17.312H302.665L295.497 44H303.753L307.977 27.616C309.449 24.608 310.857 23.072 312.905 20.896C314.377 19.296 316.233 17.44 317.769 17.44C318.729 17.44 319.561 18.08 319.561 19.36C319.561 19.808 319.497 20.64 318.537 24.096L313.161 44H321.417L325.641 27.616C327.113 24.608 328.521 23.072 330.505 20.96C331.785 19.616 333.769 17.44 335.369 17.44C336.137 17.44 336.841 17.888 336.841 19.04C336.841 20.32 336.137 22.496 335.753 24.096L332.809 36C332.489 37.216 332.297 37.984 332.297 39.328C332.297 40.672 332.489 42.4 333.833 43.616C334.729 44.448 336.073 44.896 337.481 44.896C338.825 44.896 340.169 44.512 341.513 43.552C342.665 42.72 344.009 41.184 344.841 40.224C346.377 38.368 347.081 37.024 348.553 34.528L347.657 34.08C346.249 36.704 344.649 38.816 343.881 39.84C342.281 41.888 341.385 42.08 341.001 42.08C340.361 42.08 340.169 41.632 340.169 40.992C340.169 40.416 340.361 39.968 340.617 38.816L343.753 26.272C344.201 24.544 344.649 23.264 344.649 21.472C344.649 20.512 344.521 19.104 343.753 17.824C342.665 15.968 340.937 15.328 338.953 15.328C334.921 15.328 331.913 18.08 329.993 20C328.649 21.344 327.753 22.432 326.857 23.648L326.793 23.52C326.921 22.88 326.985 22.176 326.985 21.536C326.985 20.448 326.857 19.104 326.089 17.824C325.001 15.968 323.273 15.328 321.353 15.328C317.257 15.328 314.185 18.08 312.393 19.936C311.049 21.28 309.961 22.56 308.873 24.096L310.921 16.224ZM374.488 26.32V16.336H367.312V44H374.488V32.144H385.044V44H392.22V16.336H385.044V26.32H374.488ZM423.097 16.224H414.585L413.753 19.488C413.689 16.928 411.001 15.328 408.057 15.328C403.641 15.328 398.713 18.592 395.641 21.984C392.953 24.992 390.649 29.344 390.649 33.376C390.649 35.68 391.417 38.496 392.953 40.736C395.193 44.064 398.457 44.896 400.697 44.896C401.977 44.896 403.833 44.576 405.561 43.296C406.585 42.528 408.121 40.992 408.953 39.2H409.145C409.081 41.632 409.913 42.912 410.681 43.616C411.449 44.32 412.729 44.896 414.265 44.896C416.825 44.896 418.553 43.616 420.025 42.08C420.985 41.056 422.265 39.52 423.225 38.048C423.929 36.96 424.825 35.616 425.401 34.528L424.505 34.08C423.545 35.872 422.329 37.792 420.665 39.84C419.129 41.76 418.297 42.08 417.721 42.08C417.273 42.08 416.953 41.76 416.953 41.12C416.953 40.416 417.337 39.264 417.465 38.816L423.097 16.224ZM409.721 34.272C408.953 37.088 407.993 39.264 406.457 40.992C405.113 42.464 403.257 43.744 401.465 43.744C400.121 43.744 397.881 42.784 397.881 39.904C397.881 38.624 398.521 35.872 398.841 34.72L401.145 26.208C401.785 23.776 402.489 21.216 404.089 19.168C405.433 17.44 407.225 16.48 409.017 16.48C410.681 16.48 412.793 17.44 412.793 20.896C412.793 23.136 411.769 26.784 411.577 27.552L409.721 34.272ZM434.658 16.224H420.322L420.002 17.312H426.402L423.842 27.04C423.522 28.128 422.946 29.6 422.946 31.392C422.946 32.544 423.266 33.76 423.97 34.528C424.93 35.552 426.914 35.936 428.13 35.936C430.05 35.936 432.546 35.104 435.106 33.12C436.194 32.224 437.154 31.328 437.922 30.368L436.514 36C436.194 37.152 436.002 37.984 436.002 39.328C436.002 40.672 436.194 42.4 437.538 43.616C437.858 43.872 439.074 44.896 441.25 44.896C442.786 44.896 444.066 44.384 445.218 43.552C447.074 42.208 448.994 39.648 450.082 38.048C450.786 36.96 451.682 35.616 452.258 34.528L451.362 34.08C450.658 35.296 449.698 36.896 448.93 37.984C448.162 39.072 445.922 42.08 444.642 42.08C444.066 42.08 443.81 41.76 443.81 41.12C443.81 40.544 444.002 39.968 444.258 38.816L449.89 16.224H441.442L438.626 27.488C437.41 29.792 436.194 31.072 434.786 32.224C433.058 33.568 432.162 33.696 431.778 33.696C431.074 33.696 430.498 33.376 430.498 32.416C430.498 31.776 430.882 30.88 431.394 28.96L434.658 16.224ZM474.971 38.54V23.876C474.971 22.888 474.815 21.9 474.555 20.912C474.243 19.924 473.671 19.04 472.839 18.208C471.955 17.428 470.759 16.752 469.251 16.232C467.691 15.764 465.663 15.504 463.219 15.504C461.451 15.556 459.995 15.764 458.747 16.128C457.499 16.492 456.407 17.012 455.575 17.584C454.639 18.208 453.963 18.884 453.443 19.612C452.923 20.34 452.455 21.068 452.195 21.744C451.883 22.472 451.675 23.148 451.571 23.72C451.467 24.344 451.415 24.812 451.415 25.124H458.591L458.903 23.616C459.059 23.2 459.319 22.784 459.683 22.42C459.995 22.108 460.463 21.796 461.087 21.588C461.659 21.432 462.387 21.328 463.375 21.328C464.207 21.328 464.935 21.38 465.507 21.536C466.079 21.692 466.495 21.9 466.859 22.212C467.171 22.472 467.431 22.784 467.587 23.2C467.691 23.564 467.795 23.98 467.795 24.448C467.795 24.916 467.691 25.28 467.535 25.592C467.379 25.852 467.171 26.06 466.911 26.216C466.651 26.424 466.391 26.528 466.079 26.58C465.767 26.684 465.507 26.684 465.247 26.736L458.227 27.776C457.031 27.932 455.991 28.244 455.055 28.764C454.119 29.232 453.339 29.856 452.663 30.584C452.039 31.312 451.519 32.144 451.155 33.132C450.791 34.12 450.635 35.16 450.635 36.304C450.635 37.708 450.843 38.956 451.259 39.996C451.675 41.088 452.299 41.972 453.027 42.7C453.807 43.376 454.691 43.948 455.731 44.312C456.771 44.676 457.915 44.832 459.163 44.832C460.359 44.832 461.399 44.728 462.283 44.52C463.167 44.312 463.895 44 464.571 43.636C465.247 43.272 465.819 42.856 466.391 42.388L468.003 40.776C468.003 41.556 468.055 42.18 468.263 42.7L468.679 44H476.635V42.856C476.375 42.804 476.219 42.7 476.011 42.544C475.803 42.388 475.647 42.18 475.491 41.816C475.335 41.556 475.179 41.088 475.127 40.568C475.023 40.048 474.971 39.372 474.971 38.54ZM467.795 30.48V33.288C467.795 34.224 467.639 35.004 467.431 35.68C467.223 36.408 466.911 36.98 466.495 37.448C466.131 37.916 465.715 38.332 465.247 38.592C464.779 38.904 464.311 39.112 463.843 39.32C463.323 39.476 462.907 39.58 462.491 39.632C462.075 39.684 461.711 39.736 461.451 39.736C460.931 39.736 460.463 39.684 459.995 39.528C459.579 39.424 459.215 39.164 458.903 38.904C458.539 38.592 458.279 38.28 458.071 37.812C457.915 37.396 457.811 36.876 457.811 36.304C457.811 35.576 457.915 35.004 458.123 34.536C458.331 34.068 458.643 33.652 459.059 33.288C459.475 32.976 459.995 32.716 460.619 32.508C461.243 32.3 461.971 32.144 462.803 31.988L464.727 31.624C465.455 31.52 466.027 31.312 466.495 31.104C466.911 30.948 467.379 30.74 467.795 30.48ZM475.422 16.336V22.16H483.794V44H490.97V22.16H499.342V16.336H475.422ZM512.69 16.224H498.354L498.034 17.312H504.498L501.106 29.856C500.722 31.392 500.082 32.8 500.082 35.168C500.082 37.28 500.658 39.584 501.874 41.248C502.962 42.784 505.33 44.896 510.002 44.896C513.778 44.896 517.49 43.616 520.178 41.696C523.314 39.456 526.002 35.68 526.002 32.096C526.002 27.68 522.482 24.864 518.386 24.864C513.906 24.864 510.962 27.936 509.234 30.56L509.042 30.432L512.69 16.224ZM507.634 35.232C507.954 34.016 509.682 31.52 510.258 30.688C511.474 29.024 513.202 27.232 514.802 27.232C515.25 27.232 515.89 27.36 516.466 28C517.042 28.64 517.042 29.28 517.042 30.112C517.042 31.52 516.658 32.608 516.338 33.888L515.378 37.472C515.122 38.496 514.482 40.032 513.906 41.056C512.626 43.232 511.026 43.744 509.746 43.744C508.594 43.744 507.826 43.296 507.186 42.528C506.674 41.888 506.482 41.184 506.482 40.288C506.482 39.84 506.61 38.88 506.738 38.432L507.634 35.232Z" fill="#F95B5B"/>
</svg>
