<svg width="398" height="87" viewBox="0 0 398 87" fill="none" xmlns="http://www.w3.org/2000/svg">
<path d="M365.048 86H1V26.1178C1 12.2549 12.3364 1 26.3347 1H365.796C382.696 1 396.378 14.5857 396.378 31.3228V54.9314C396.382 72.0858 382.361 86 365.048 86Z" fill="#E9D3FF" stroke="#A54BFF" stroke-width="2"/>
<ellipse cx="41.4727" cy="40" rx="23.5" ry="24" fill="#A54BFF"/>
<path d="M47.0127 39.11C48.0527 39.55 48.8727 40.22 49.4727 41.12C50.0727 42.02 50.3727 43.03 50.3727 44.15C50.3727 45.77 49.8027 47.15 48.6627 48.29C47.5227 49.43 46.1427 50 44.5227 50H35.3727V29H43.8327C45.3727 29 46.7027 29.56 47.8227 30.68C48.9227 31.78 49.4727 33.1 49.4727 34.64C49.4727 36.6 48.6527 38.09 47.0127 39.11ZM43.8327 30.98H37.4727V38.3H43.8327C44.7927 38.3 45.6227 37.95 46.3227 37.25C47.0227 36.51 47.3727 35.64 47.3727 34.64C47.3727 33.66 47.0227 32.8 46.3227 32.06C45.6227 31.34 44.7927 30.98 43.8327 30.98ZM37.4727 48.02H44.5227C45.5627 48.02 46.4427 47.65 47.1627 46.91C47.9027 46.17 48.2727 45.25 48.2727 44.15C48.2727 43.07 47.9027 42.16 47.1627 41.42C46.4427 40.66 45.5627 40.28 44.5227 40.28H37.4727V48.02Z" fill="#E9D3FF"/>
</svg>
