<svg width="728" height="75" viewBox="0 0 728 75" fill="none" xmlns="http://www.w3.org/2000/svg">
<path d="M10.96 17.992L10.64 19.272H16.592L6.416 59.72H0.528L0.208 61H22.928C28.816 61 36.368 60.104 40.592 54.28C42.064 52.232 43.28 49.224 43.28 46.408C43.28 42.248 41.168 40.136 38.48 38.856C37.008 38.152 35.216 37.64 33.232 37.576L33.488 36.68C36.56 36.232 40.016 34.952 42.128 33.352C45.2 30.984 45.904 28.104 45.904 26.056C45.904 22.984 44.304 21.192 43.152 20.296C40.784 18.44 37.072 17.992 33.104 17.992H10.96ZM25.68 19.272H30.928C32.272 19.272 33.68 19.4 34.768 20.104C35.408 20.552 36.496 21.512 36.496 23.304C36.496 24.136 36.176 25.608 36.048 26.248L34.96 30.792C33.68 36.232 29.968 36.232 28.112 36.232H21.584L25.68 19.272ZM15.696 59.72L21.264 37.448H27.664C29.328 37.448 30.928 37.896 31.952 38.792C32.656 39.432 33.488 40.584 33.488 42.504C33.488 43.016 33.296 45 33.104 45.768L31.504 52.168C30.864 54.792 30.224 57.224 28.112 58.632C26.576 59.72 24.912 59.72 23.504 59.72H15.696ZM47.3515 50.392V33.336H40.1755V61H48.0275L57.8035 44.308H57.9075V61H65.0835V33.336H57.5435L47.4555 50.392H47.3515ZM71.5126 24.904C72.6006 22.984 73.7526 21.64 75.1606 20.296C76.8886 18.632 79.0646 16.84 82.0726 16.84C84.5046 16.84 86.1046 17.928 87.1286 19.528C88.2166 21.256 88.4726 23.304 88.4726 25.032C88.4726 28.68 87.3846 34.76 86.5526 38.152L86.1686 38.024V37.256C86.1686 36.488 86.1686 34.568 84.1846 33.288C83.1606 32.648 81.7526 32.328 80.3446 32.328C78.2326 32.328 75.1606 32.84 71.4486 35.336C64.0886 40.264 63.5126 46.792 63.5126 49.352C63.5126 52.936 64.6646 55.816 66.6486 58.12C68.7606 60.616 71.3206 61.896 75.2886 61.896C78.4246 61.896 83.2246 61.064 87.6406 55.368C90.0086 52.296 92.1206 47.816 93.2086 43.784C94.1046 40.456 94.6806 36.232 94.6806 32.584C94.6806 27.4 93.6566 23.176 90.9046 19.656C88.7926 17.032 86.5526 15.752 83.0966 15.752C79.7686 15.752 77.1446 16.904 74.5846 19.4C72.9846 20.936 71.4486 23.048 70.6166 24.328L71.5126 24.904ZM74.0726 41.736C74.7126 39.432 75.3526 36.68 77.3366 34.952C78.2966 34.12 79.6406 33.48 81.4326 33.48C82.3926 33.48 83.1606 33.672 83.9286 34.44C84.9526 35.4 85.0166 36.488 85.0166 37.384C85.0166 39.88 84.1846 42.376 83.5446 44.808L81.3046 53.256C80.9846 54.472 80.1526 56.968 79.5766 57.928C78.4886 59.912 76.8246 60.744 74.7126 60.744C72.0246 60.744 70.6806 58.888 70.6806 56.072C70.6806 54.6 71.0646 52.68 71.4486 51.336L74.0726 41.736ZM114.956 50.504C112.844 53.704 111.244 55.88 109.26 57.672C106.636 60.04 104.332 60.744 102.476 60.744C99.5961 60.744 97.5481 58.76 97.5481 55.752C97.5481 55.112 97.6761 54.024 98.3161 51.656L99.1481 48.52C100.876 48.392 103.308 48.136 106.188 47.624C108.748 47.176 111.052 46.6 112.972 45.384C115.212 43.976 116.556 41.992 116.556 39.176C116.556 36.616 115.34 35.016 114.124 34.056C112.332 32.648 110.156 32.328 108.428 32.328C105.868 32.328 102.924 32.968 99.8521 34.888C97.7401 36.232 95.5641 38.216 93.9001 40.392C91.7881 43.144 89.9961 46.92 89.9961 50.504C89.9961 53.448 91.2121 56.456 93.5161 58.696C95.6281 60.744 98.2521 61.896 101.58 61.896C104.268 61.896 106.572 61.128 109.004 59.272C111.756 57.16 113.1 54.856 115.788 50.952L114.956 50.504ZM100.94 41.608C101.772 38.408 102.476 36.424 103.948 34.952C104.844 33.992 105.868 33.48 107.148 33.48C108.684 33.48 109.708 34.568 109.708 36.168C109.708 36.872 109.452 38.088 109.26 38.92L108.812 40.776C108.62 41.608 107.98 43.272 107.66 43.912C107.148 45 106.316 46.088 104.652 46.728C103.564 47.112 101.068 47.432 99.4041 47.496L100.94 41.608ZM113.931 47.168C113.931 49.3 114.295 51.276 114.919 53.044C115.543 54.864 116.479 56.424 117.727 57.724C118.975 58.972 120.431 60.012 122.199 60.74C123.967 61.468 125.891 61.832 128.075 61.832C130.311 61.832 132.287 61.468 134.055 60.74C135.823 60.012 137.279 58.972 138.475 57.724C139.671 56.424 140.607 54.864 141.283 53.044C141.907 51.276 142.219 49.3 142.219 47.168C142.219 45.036 141.907 43.06 141.283 41.292C140.607 39.472 139.671 37.912 138.475 36.612C137.279 35.312 135.823 34.324 134.055 33.596C132.287 32.868 130.311 32.504 128.075 32.504C125.891 32.504 123.967 32.868 122.199 33.596C120.431 34.324 118.975 35.312 117.727 36.612C116.479 37.912 115.543 39.472 114.919 41.292C114.295 43.06 113.931 45.036 113.931 47.168ZM121.419 47.168C121.419 46.128 121.575 45.088 121.783 44.048C121.991 43.008 122.355 42.124 122.927 41.292C123.447 40.512 124.123 39.836 124.955 39.368C125.787 38.9 126.827 38.64 128.075 38.64C129.375 38.64 130.467 38.848 131.299 39.316C132.131 39.836 132.807 40.46 133.327 41.24C133.847 42.02 134.211 42.956 134.419 43.996C134.627 45.036 134.731 46.076 134.731 47.168C134.731 48.26 134.627 49.3 134.419 50.34C134.211 51.38 133.847 52.264 133.327 53.044C132.807 53.824 132.131 54.5 131.299 54.968C130.467 55.436 129.375 55.696 128.075 55.696C126.827 55.696 125.787 55.436 124.955 54.968C124.123 54.5 123.447 53.824 122.927 52.992C122.355 52.212 121.991 51.276 121.783 50.236C121.575 49.248 121.419 48.208 121.419 47.168Z" fill="#F95B5B"/>
</svg>
