<svg width="763" height="190" viewBox="0 0 763 190" fill="none" xmlns="http://www.w3.org/2000/svg">
<path d="M0 1.01624H42.4379C46.2042 1.01624 49.8184 1.34075 53.3184 1.98979C56.7994 2.63883 59.881 3.78419 62.525 5.42588C65.1881 7.06757 67.2995 9.28193 68.8783 12.069C70.4572 14.856 71.2561 18.4067 71.2561 22.6827C71.2561 25.1452 70.9898 27.2832 70.4572 29.0967C69.9246 30.9102 69.2207 32.4564 68.3077 33.7354C67.4137 35.0144 66.3675 36.1025 65.1881 36.9806C64.0087 37.8587 62.7913 38.6032 61.5359 39.2141C65.6446 40.6839 68.7832 42.9938 70.9327 46.2008C73.0822 49.3887 74.1664 53.2066 74.1664 57.6353C74.1664 61.5104 73.5007 65.0229 72.1691 68.1726C70.8376 71.3224 68.9544 74.014 66.5196 76.2474C64.0848 78.4809 61.1364 80.218 57.6364 81.4588C54.1554 82.6996 50.2559 83.3105 45.9379 83.3105H0V1.01624ZM21.2855 33.3154H37.6824C40.0982 33.3154 42.0955 33.1246 43.6933 32.7428C45.2912 32.361 46.5656 31.8074 47.4977 31.082C48.4298 30.3566 49.0765 29.4403 49.457 28.3713C49.8374 27.2832 50.0276 26.0233 50.0276 24.5534C50.0276 23.3508 49.8374 22.2245 49.457 21.1937C49.0765 20.1629 48.4488 19.2848 47.5358 18.5594C46.6417 17.834 45.4243 17.2613 43.9216 16.8222C42.4189 16.4023 40.5357 16.1732 38.2721 16.1732H21.2855V33.3154ZM21.2855 68.1154H37.6824C40.7449 68.1154 43.2178 67.7908 45.101 67.1418C46.9841 66.4928 48.4298 65.6528 49.457 64.6602C50.4842 63.6485 51.1689 62.5413 51.4923 61.3386C51.8157 60.136 51.9869 58.9907 51.9869 57.9407C51.9869 55.9364 51.7206 54.2565 51.188 52.9202C50.6554 51.584 49.8374 50.515 48.6961 49.7132C47.5738 48.9115 46.0901 48.3579 44.264 48.0524C42.4379 47.747 40.2313 47.5943 37.6824 47.5943H21.2855V68.1345V68.1154Z" fill="#2A2A2A"/>
<path d="M136.847 68.178C127.781 101.995 105.572 124.965 81.3223 124.965C64.4761 124.965 54.8633 115.624 54.8633 106.093C54.8633 100.87 58.5649 92.8257 68.0078 92.8257C76.7141 92.8257 80.5857 98.9829 80.5857 106.455C80.5857 111.126 78.3572 112.612 75.7699 114.481C74.6556 115.224 72.9936 116.349 72.9936 117.664C72.9936 119.342 75.7699 121.591 81.1334 121.591C100.019 121.591 108.896 89.0895 115.185 61.8112L115.921 58.6278H115.185C106.289 72.2574 92.2383 85.7154 77.9795 85.7154C65.5715 85.7154 63.3619 74.6974 63.3619 68.5212C63.3619 63.4696 65.2127 56.9312 66.1381 53.7669L79.0938 5.21492H60.3968L61.5111 2.03149H102.965L86.1193 67.4155C85.7416 68.7308 84.6462 73.5727 84.6462 74.5067C84.6462 76.1842 85.0239 79.177 89.0843 79.177C97.9607 79.177 113.711 57.5031 117.961 47.2284L129.802 2.03149H154.429L136.847 68.178V68.178Z" fill="#2A2A2A"/>
<path d="M223.715 17.2858L184.976 85.3417H180.89L173.475 15.6161H172.169L155.296 63.7695C150.473 77.7146 145.29 85.3417 134.167 85.3417C123.782 85.3417 119.886 76.9747 119.886 69.9167C119.886 61.7394 127.112 58.5709 131.746 58.5709C137.497 58.5709 143.058 62.4793 143.058 69.5373C143.058 71.5864 141.942 74.1857 140.466 75.4948C138.991 76.6142 136.948 77.3541 136.948 79.5929C136.948 80.7123 138.253 81.4523 139.918 81.4523C145.668 81.4523 150.113 69.3665 152.705 62.4793C165.492 27.7019 168.651 18.4052 168.651 12.8271C168.651 8.72895 166.608 5.38971 158.266 5.38971H153.253L154.37 2.05047H195.341L199.976 52.9929L228.917 2.03149H253.395L237.089 67.6779C235.973 72.1366 235.614 73.4457 235.614 74.7359C235.614 76.2158 236.351 77.1454 237.846 77.1454C243.029 77.1454 253.981 60.4113 257.499 53.9036L260.091 55.2127C245.809 80.3139 236.37 85.3417 228.199 85.3417C221.9 85.3417 212.99 82.5527 212.99 70.4669C212.99 66.0083 213.539 63.0295 214.466 59.5006L225.04 17.2858H223.734H223.715Z" fill="#2A2A2A"/>
<path d="M271.948 49.094C271.948 49.8318 272.023 50.8156 272.174 52.0453C272.326 53.275 272.609 54.5993 273.063 56.0372C273.498 57.475 274.14 58.9128 274.991 60.3695C275.823 61.8263 276.957 63.1317 278.356 64.3235C279.755 65.5154 281.475 66.4614 283.516 67.1992C285.558 67.937 288.015 68.3154 290.87 68.3154C292.344 68.3154 293.819 68.1073 295.255 67.6911C296.711 67.2749 298.053 66.6505 299.282 65.837C300.51 65.0235 301.588 64.0398 302.495 62.8857C303.402 61.7317 304.064 60.4074 304.461 58.9317H326.105C326.105 60.4074 325.784 62.0911 325.141 64.0019C324.498 65.8938 323.534 67.8235 322.23 69.7721C320.926 71.7208 319.281 73.6315 317.315 75.5045C315.349 77.3774 313.005 79.0423 310.302 80.499C307.599 81.9558 304.537 83.1287 301.115 84.0179C297.694 84.9071 293.894 85.3422 289.698 85.3422C284.329 85.3422 279.301 84.5476 274.594 82.9395C269.887 81.3314 265.785 78.7963 262.269 75.3342C258.753 71.8532 255.974 67.3695 253.971 61.8452C251.948 56.3209 250.946 49.6237 250.946 41.7535C250.946 36.286 251.665 31.0267 253.12 25.9754C254.576 20.9241 256.844 16.4782 259.906 12.6377C262.988 8.79719 266.919 5.73236 271.721 3.4432C276.522 1.15404 282.288 0 289.036 0C296.181 0 302.174 1.17296 307.051 3.51888C311.928 5.86479 315.841 9.17556 318.827 13.4512C321.814 17.7457 323.931 22.9105 325.217 28.9645C326.502 35.0185 327.145 41.7535 327.145 49.1318H271.985L271.948 49.094ZM305.406 35.2077C305.406 31.651 304.877 28.6997 303.818 26.3348C302.76 23.97 301.436 22.0781 299.83 20.6781C298.223 19.2781 296.465 18.2944 294.556 17.7268C292.628 17.1593 290.794 16.8755 289.017 16.8755C287.24 16.8755 285.463 17.1593 283.554 17.7268C281.626 18.2944 279.868 19.2781 278.28 20.6781C276.673 22.0781 275.35 23.97 274.292 26.3348C273.233 28.6997 272.704 31.651 272.704 35.2077H305.406Z" fill="#2A2A2A"/>
<path d="M374.715 35.8792L383.231 2.03149H407.665L391.388 67.6779C391.011 69.5373 390.085 72.8765 390.085 74.7359C390.085 76.2158 390.822 77.1454 392.314 77.1454C397.676 77.1454 408.42 60.4113 411.932 53.9036L414.519 55.2127C400.263 80.3139 390.274 85.3417 382.684 85.3417C377.132 85.3417 367.502 83.4824 367.502 70.4669C367.502 66.0083 368.05 63.0295 368.975 59.5006L373.979 39.2375H349.923L338.82 82.7425H314.953L335.667 5.19998H316.974L318.088 2.03149H359.534L350.829 35.8792H374.696H374.715Z" fill="#2A2A2A"/>
<path d="M279.344 121.068L240.318 189.969H236.202L228.733 119.377H227.418L210.42 168.129C205.561 182.247 200.34 189.969 189.135 189.969C178.674 189.969 174.748 181.498 174.748 174.353C174.748 166.074 182.027 162.866 186.696 162.866C192.489 162.866 198.091 166.823 198.091 173.968C198.091 176.043 196.967 178.675 195.481 180C193.994 181.133 191.936 181.882 191.936 184.149C191.936 185.282 193.251 186.031 194.928 186.031C200.721 186.031 205.199 173.796 207.81 166.823C220.691 131.632 223.873 122.22 223.873 116.573C223.873 112.424 221.815 109.043 213.412 109.043H208.362L209.486 105.662H250.761L255.429 157.238L284.565 105.662H309.223L292.797 172.105C291.673 176.619 291.311 177.945 291.311 179.251C291.311 180.749 292.054 181.69 293.56 181.69C298.781 181.69 309.814 164.748 313.358 158.16L315.969 159.485C301.601 184.898 292.073 189.988 283.86 189.988C277.515 189.988 268.54 187.165 268.54 174.929C268.54 170.415 269.092 167.399 270.026 163.826L280.659 121.106H279.344V121.068Z" fill="#2A2A2A"/>
<path d="M340.735 189.988C315.146 189.988 305.81 169.047 305.81 151.291C305.81 122.873 334.943 103.63 358.474 103.63C377.89 103.63 391.152 121.195 391.152 140.458C391.152 159.721 370.612 189.988 340.735 189.988ZM328.407 162.696C327.855 164.946 326.731 169.238 326.731 172.785C326.731 184.381 333.819 186.612 338.487 186.612C349.691 186.612 354.549 176.885 357.903 164.737L365.924 135.194C366.858 132.009 368.725 125.105 368.725 120.051C368.725 113.318 364.8 106.967 358.646 106.967C344.089 106.967 339.23 122.301 336.791 131.074L328.388 162.658L328.407 162.696Z" fill="#2A2A2A"/>
<path d="M385.075 105.662H416.594L430.213 164.645H430.592L443.908 105.662H474.462V186.941H454.781V121.544H454.478L439.305 186.941H420.212L405.115 121.544H404.736V186.941H385.056V105.662H385.075Z" fill="#2A2A2A"/>
<path d="M540.306 158.023C524.262 185.315 509.892 189.988 499.462 189.988C479.136 189.988 465.318 174.101 465.318 154.476C465.318 132.791 490.308 103.63 518.476 103.63C532.274 103.63 542.533 110.915 542.533 122.32C542.533 145.684 514.365 149.059 491.792 150.928L489.375 160.083C487.51 167.006 487.13 169.981 487.13 171.679C487.13 180.28 492.725 186.631 502.241 186.631C517.543 186.631 527.992 171.679 537.87 156.726L540.287 158.042L540.306 158.023ZM492.554 147.934C517.734 147.934 517.734 135.594 519.789 128.309L521.274 122.893C522.016 120.47 522.397 116.16 522.397 113.357C522.397 109.237 519.408 107.006 515.316 107.006C504.506 107.006 499.843 119.707 497.045 130.75L492.573 147.953L492.554 147.934Z" fill="#2A2A2A"/>
<path d="M538.469 105.662H559.563V135.039H590.583V105.662H611.619V186.941H590.583V152.123H559.563V186.941H538.469V105.662Z" fill="#2A2A2A"/>
<path d="M647.502 128.782C660.181 110.644 673.031 103.168 683.828 103.168C693.693 103.168 700.213 109.9 700.213 121.668C700.213 123.537 700.023 125.215 699.662 127.084L699.852 127.466C709.908 113.829 721.846 103.168 735.057 103.168C745.113 103.168 751.633 110.091 751.633 121.668C751.633 126.893 749.96 131.394 749.028 135.133L739.904 171.77C738.973 175.508 738.783 176.061 738.593 176.996V178.865C738.783 180.181 739.144 181.287 740.646 181.287C746.234 181.287 757.221 163.912 760.396 157.924L763 159.24C749.96 181.478 741.197 189.526 731.141 189.526C723.88 189.526 715.687 185.979 715.687 174.574C715.687 170.092 716.238 167.097 717.169 163.55L725.742 128.782C726.864 124.3 728.917 119.055 728.917 114.764C728.917 110.091 726.313 109.347 724.64 109.347C715.877 109.347 699.491 132.71 696.317 139.061L684.018 186.913H659.991L675.635 128.782C678.429 118.692 678.619 116.442 678.619 114.954C678.619 110.663 675.274 109.347 673.221 109.347C665.769 109.347 649.193 130.479 644.897 139.061L632.599 186.913H608.571L629.443 108.966H610.814L611.746 105.781H653.47L647.502 128.763V128.782Z" fill="#2A2A2A"/>
</svg>
