<svg width="728" height="76" viewBox="0 0 728 76" fill="none" xmlns="http://www.w3.org/2000/svg">
<path d="M10.96 17.992L10.64 19.272H16.592L6.416 59.72H0.528L0.208 61H22.928C28.816 61 36.368 60.104 40.592 54.28C42.064 52.232 43.28 49.224 43.28 46.408C43.28 42.248 41.168 40.136 38.48 38.856C37.008 38.152 35.216 37.64 33.232 37.576L33.488 36.68C36.56 36.232 40.016 34.952 42.128 33.352C45.2 30.984 45.904 28.104 45.904 26.056C45.904 22.984 44.304 21.192 43.152 20.296C40.784 18.44 37.072 17.992 33.104 17.992H10.96ZM25.68 19.272H30.928C32.272 19.272 33.68 19.4 34.768 20.104C35.408 20.552 36.496 21.512 36.496 23.304C36.496 24.136 36.176 25.608 36.048 26.248L34.96 30.792C33.68 36.232 29.968 36.232 28.112 36.232H21.584L25.68 19.272ZM15.696 59.72L21.264 37.448H27.664C29.328 37.448 30.928 37.896 31.952 38.792C32.656 39.432 33.488 40.584 33.488 42.504C33.488 43.016 33.296 45 33.104 45.768L31.504 52.168C30.864 54.792 30.224 57.224 28.112 58.632C26.576 59.72 24.912 59.72 23.504 59.72H15.696ZM47.6715 42.956V33.336H40.4955V61H54.9515C55.3155 61 55.7835 61 56.4595 60.948C57.0835 60.896 57.7595 60.74 58.4875 60.532C59.2155 60.376 59.9955 60.064 60.7755 59.7C61.5555 59.284 62.2835 58.816 62.9075 58.088C63.5315 57.464 64.0515 56.632 64.4675 55.592C64.8835 54.604 65.0915 53.408 65.0915 52.004C65.0915 50.444 64.8315 49.092 64.3115 47.948C63.8435 46.804 63.1155 45.868 62.1795 45.14C61.2435 44.412 60.1515 43.84 58.7995 43.476C57.4475 43.112 55.8875 42.956 54.2235 42.956H47.6715ZM75.4395 61V33.336H68.2635V61H75.4395ZM52.9235 55.592H47.6715V48.364H52.2995C53.0275 48.364 53.7035 48.416 54.3795 48.52C55.0035 48.624 55.5235 48.832 56.0435 49.092C56.5115 49.352 56.8755 49.716 57.1875 50.184C57.4475 50.704 57.6035 51.276 57.6035 52.004C57.6035 52.732 57.4475 53.356 57.1875 53.824C56.8755 54.292 56.5635 54.656 56.0955 54.916C55.6275 55.176 55.1595 55.384 54.5875 55.436C54.0675 55.54 53.4955 55.592 52.9235 55.592ZM100.956 23.248H94.4565C94.3525 23.456 94.0925 23.716 93.7285 23.924C93.3125 24.184 92.6365 24.34 91.7005 24.392C88.6845 24.704 86.1885 25.328 84.1085 26.316C81.9765 27.304 80.2605 28.604 78.9605 30.268C77.6085 31.88 76.6205 33.804 76.0485 35.988C75.4245 38.172 75.1125 40.564 75.1125 43.216C75.1125 43.476 75.1125 43.944 75.1645 44.672C75.1645 45.4 75.2165 46.232 75.3205 47.22C75.4245 48.208 75.5285 49.248 75.7365 50.392C75.9445 51.484 76.2565 52.576 76.6205 53.564C77.7125 56.528 79.3245 58.66 81.4045 59.908C83.4845 61.208 86.1365 61.884 89.3085 61.884C91.4925 61.884 93.4685 61.52 95.1845 60.844C96.9525 60.116 98.4085 59.128 99.6565 57.828C100.852 56.58 101.788 55.072 102.464 53.252C103.088 51.432 103.4 49.456 103.4 47.272C103.4 45.296 103.14 43.476 102.568 41.864C101.996 40.252 101.164 38.848 100.124 37.704C99.0325 36.56 97.7325 35.624 96.2245 35C94.7165 34.376 93.0005 34.064 91.0765 34.064C89.6725 34.064 88.3725 34.22 87.2285 34.584C86.0325 34.948 85.0445 35.364 84.1605 35.988C83.2245 36.56 82.4965 37.236 81.9245 38.016C81.3005 38.796 80.8845 39.628 80.6245 40.512C80.6765 39.212 80.9365 38.068 81.3005 37.08C81.6645 36.092 82.1325 35.26 82.7045 34.532C83.2765 33.856 83.9525 33.232 84.6805 32.764C85.4085 32.244 86.1885 31.88 86.9685 31.568C87.8005 31.308 88.6325 31.048 89.4645 30.892C90.2965 30.788 91.1285 30.684 91.9085 30.632C93.0525 30.528 94.1965 30.372 95.2885 30.112C96.3805 29.852 97.3685 29.488 98.2005 28.916C99.0325 28.396 99.7085 27.616 100.228 26.732C100.696 25.848 100.956 24.652 100.956 23.248ZM82.6525 47.168C82.6525 46.128 82.8085 45.088 83.0685 44.152C83.2765 43.216 83.6925 42.436 84.2645 41.708C84.8365 40.98 85.5125 40.408 86.3965 39.992C87.2805 39.576 88.3205 39.368 89.5685 39.368C90.7125 39.368 91.7005 39.576 92.5325 39.992C93.3125 40.408 93.9885 40.928 94.5085 41.604C95.0285 42.332 95.3925 43.164 95.6005 44.1C95.8605 45.036 95.9645 46.076 95.9645 47.168C95.9645 48.26 95.8605 49.3 95.6525 50.34C95.4445 51.38 95.0805 52.264 94.6125 53.044C94.0925 53.824 93.4165 54.5 92.5845 54.968C91.7005 55.436 90.6085 55.696 89.3085 55.696C88.0605 55.696 87.0205 55.436 86.1885 54.968C85.3565 54.5 84.6805 53.824 84.1605 52.992C83.5885 52.212 83.2245 51.276 83.0165 50.236C82.8085 49.248 82.6525 48.208 82.6525 47.168ZM130.142 44.296C130.142 41.224 128.862 38.024 126.814 35.848C124.574 33.48 121.374 32.328 118.43 32.328C115.422 32.328 111.838 33.544 109.342 35.016C104.094 38.088 100.894 43.4 100.894 48.968C100.894 51.976 101.918 55.368 103.518 57.544C105.758 60.488 109.342 61.896 112.862 61.896C117.854 61.896 122.782 59.016 125.982 55.048C128.478 51.976 130.142 47.752 130.142 44.296ZM111.518 41.736C112.094 39.496 112.926 36.552 114.846 34.888C115.742 34.12 117.15 33.48 118.43 33.48C120.478 33.48 122.462 34.952 122.462 37.96C122.462 39.688 121.822 42.056 121.502 43.144L118.75 53.256C117.79 56.776 116.766 58.376 115.87 59.208C114.974 60.04 113.566 60.744 112.094 60.744C110.494 60.744 109.47 60.04 108.894 59.272C108.382 58.504 108.062 57.416 108.062 56.328C108.062 55.112 108.382 53.576 108.638 52.552L111.518 41.736ZM135.836 37.288V33.336H128.972V71.712H136.148V57.568H136.252C136.72 58.4 137.24 59.076 137.864 59.648C138.436 60.168 139.06 60.636 139.788 60.948C140.464 61.26 141.14 61.52 141.868 61.624C142.544 61.78 143.272 61.832 143.948 61.832C145.976 61.832 147.692 61.468 149.2 60.74C150.656 59.96 151.852 58.92 152.84 57.62C153.828 56.268 154.556 54.656 155.024 52.784C155.544 50.964 155.752 48.884 155.752 46.648C155.752 44.828 155.596 43.268 155.232 41.864C154.92 40.46 154.452 39.264 153.88 38.224C153.308 37.184 152.632 36.248 151.852 35.52C151.124 34.844 150.292 34.22 149.46 33.804C148.576 33.336 147.692 33.024 146.808 32.816C145.924 32.608 145.04 32.504 144.208 32.504C143.168 32.504 142.284 32.608 141.504 32.816C140.672 32.972 139.944 33.284 139.268 33.648C138.644 34.012 138.02 34.532 137.5 35.104C136.928 35.728 136.408 36.456 135.94 37.288H135.836ZM142.076 38.952C143.22 38.952 144.156 39.212 144.988 39.68C145.768 40.2 146.392 40.824 146.912 41.604C147.38 42.384 147.692 43.268 147.952 44.256C148.16 45.244 148.264 46.18 148.264 47.168C148.264 47.688 148.264 48.26 148.212 48.884C148.108 49.508 148.004 50.132 147.848 50.756C147.64 51.38 147.432 52.004 147.172 52.576C146.86 53.2 146.444 53.72 146.028 54.188C145.56 54.604 144.988 54.968 144.364 55.28C143.74 55.54 142.96 55.696 142.076 55.696C141.192 55.696 140.412 55.54 139.788 55.28C139.164 54.968 138.592 54.604 138.124 54.188C137.656 53.72 137.292 53.2 137.032 52.576C136.72 52.004 136.512 51.38 136.304 50.756C136.148 50.132 136.044 49.508 135.992 48.884C135.888 48.26 135.888 47.688 135.888 47.168C135.888 46.18 135.992 45.244 136.2 44.256C136.46 43.268 136.772 42.384 137.292 41.604C137.76 40.824 138.384 40.2 139.164 39.68C139.944 39.212 140.932 38.952 142.076 38.952ZM189.138 33.336H174.838V61H190.334C191.79 61 193.09 60.792 194.286 60.376C195.482 59.96 196.47 59.388 197.302 58.608C198.134 57.88 198.758 56.944 199.226 55.904C199.642 54.864 199.85 53.668 199.85 52.368C199.85 50.86 199.486 49.612 198.758 48.52C198.03 47.428 196.99 46.648 195.586 46.18C196.054 45.972 196.418 45.712 196.834 45.4C197.198 45.14 197.562 44.776 197.874 44.308C198.186 43.892 198.446 43.372 198.602 42.748C198.81 42.176 198.862 41.448 198.862 40.616C198.862 39.16 198.602 37.964 198.082 37.028C197.562 36.092 196.834 35.364 195.95 34.792C195.014 34.272 193.974 33.908 192.83 33.648C191.634 33.44 190.438 33.336 189.138 33.336ZM187.526 44.204H182.014V38.432H187.734C188.514 38.432 189.138 38.484 189.658 38.64C190.178 38.796 190.594 39.004 190.854 39.212C191.166 39.472 191.426 39.784 191.53 40.096C191.686 40.46 191.738 40.824 191.738 41.24C191.738 41.708 191.686 42.176 191.53 42.54C191.426 42.904 191.166 43.216 190.854 43.424C190.542 43.684 190.126 43.84 189.606 43.996C189.034 44.1 188.358 44.204 187.526 44.204ZM187.526 55.904H182.014V48.988H187.526C188.41 48.988 189.138 49.04 189.762 49.144C190.386 49.248 190.906 49.404 191.27 49.716C191.686 49.976 191.946 50.34 192.102 50.756C192.31 51.224 192.362 51.796 192.362 52.472C192.362 52.836 192.31 53.2 192.206 53.616C192.102 54.032 191.842 54.396 191.53 54.708C191.166 55.072 190.698 55.332 190.074 55.592C189.45 55.8 188.566 55.904 187.526 55.904ZM227.879 33.224H219.367L215.271 48.712C214.503 50.568 213.159 53 209.959 56.264C206.759 59.528 205.607 59.72 205.031 59.72C203.815 59.72 203.815 58.568 203.815 58.312C203.815 57.672 204.071 56.456 204.263 55.624L210.087 33.224H195.751L195.367 34.312H201.831L197.351 50.952C196.711 53.256 196.391 54.792 196.391 56.136C196.391 57.352 196.711 59.08 197.543 60.168C198.183 61.064 199.399 61.896 201.575 61.896C205.159 61.896 207.847 59.912 210.471 57.288C212.007 55.752 213.159 54.408 214.311 52.616H214.567L214.311 53.704C213.991 55.048 213.351 57.416 211.623 62.92C210.855 65.288 209.895 68.296 208.167 70.728C206.119 73.544 203.943 74.184 202.535 74.184C200.551 74.184 199.719 73.416 199.719 72.84C199.719 72.392 200.295 72.008 200.679 71.752C201.575 71.112 202.343 70.536 202.343 68.616C202.343 66.12 200.807 64.328 197.991 64.328C194.727 64.328 193.447 67.08 193.447 68.872C193.447 71.56 196.071 75.336 202.151 75.336C205.671 75.336 209.447 73.992 212.775 71.176C215.015 69.192 217.127 66.376 218.791 63.432C220.327 60.68 221.095 58.44 221.799 55.88L227.879 33.224ZM261.429 33.224H252.981L242.997 50.76L241.397 33.224H227.253L226.869 34.376H228.597C231.477 34.376 232.181 35.528 232.181 36.936C232.181 37.896 231.861 39.368 231.541 40.328L226.677 54.024C225.973 56.008 225.461 57.096 225.077 57.8C223.797 60.104 222.709 60.552 222.133 60.552C221.493 60.552 221.237 60.168 221.237 59.784C221.237 59.208 221.941 58.888 222.261 58.632C223.157 57.992 223.349 57.224 223.349 56.328C223.349 53.576 221.109 52.68 219.637 52.68C217.973 52.68 215.349 53.704 215.349 56.84C215.349 57.928 215.669 59.144 216.373 60.04C217.397 61.448 218.869 61.896 220.469 61.896C223.413 61.896 224.629 60.36 225.333 59.272C226.421 57.672 226.997 56.136 227.573 54.472L233.397 37.896H233.845L236.405 61.896H237.813L251.189 38.472H251.637L247.989 53C247.733 54.088 247.413 55.816 247.413 56.712C247.413 58.824 248.309 60.04 249.013 60.616C249.845 61.32 250.997 61.896 252.597 61.896C254.005 61.896 255.349 61.512 256.693 60.552C257.653 59.848 259.061 58.44 260.021 57.224C261.045 55.944 262.773 53.192 263.733 51.528L262.837 51.08C260.661 54.792 260.149 55.368 258.997 56.84C258.165 57.864 257.141 59.08 256.117 59.08C255.541 59.08 255.285 58.76 255.285 58.12C255.285 57.48 255.477 57.032 255.797 55.816L261.429 33.224ZM267.952 49.404H286.932C286.932 46.856 286.672 44.568 286.256 42.488C285.84 40.408 285.112 38.588 284.072 37.132C283.032 35.676 281.68 34.532 280.016 33.7C278.352 32.92 276.272 32.504 273.828 32.504C271.488 32.504 269.512 32.868 267.9 33.7C266.236 34.48 264.832 35.52 263.792 36.872C262.752 38.172 261.972 39.68 261.504 41.448C260.984 43.164 260.724 44.984 260.724 46.856C260.724 49.56 261.088 51.848 261.764 53.772C262.44 55.644 263.428 57.204 264.624 58.4C265.82 59.596 267.224 60.48 268.888 61C270.448 61.572 272.216 61.832 274.036 61.832C275.492 61.832 276.792 61.676 277.988 61.364C279.132 61.052 280.172 60.688 281.108 60.168C282.096 59.7 282.876 59.076 283.552 58.452C284.228 57.828 284.8 57.152 285.268 56.476C285.684 55.8 285.996 55.176 286.256 54.5C286.464 53.876 286.568 53.304 286.568 52.784H279.132C278.976 53.304 278.768 53.72 278.456 54.136C278.144 54.5 277.78 54.864 277.364 55.124C276.896 55.436 276.48 55.644 275.96 55.748C275.492 55.904 274.972 56.008 274.452 56.008C273.464 56.008 272.632 55.852 271.956 55.592C271.228 55.384 270.656 55.02 270.188 54.604C269.668 54.24 269.252 53.772 268.992 53.252C268.732 52.784 268.472 52.264 268.316 51.796C268.16 51.276 268.056 50.86 268.056 50.392C268.004 49.976 267.952 49.664 267.952 49.404ZM279.444 44.62H268.212C268.212 43.424 268.368 42.384 268.784 41.552C269.096 40.772 269.564 40.096 270.136 39.628C270.656 39.16 271.28 38.796 271.956 38.588C272.58 38.432 273.256 38.328 273.828 38.328C274.452 38.328 275.076 38.432 275.7 38.588C276.376 38.796 277 39.16 277.572 39.628C278.092 40.096 278.56 40.772 278.924 41.552C279.288 42.384 279.444 43.424 279.444 44.62ZM298.555 33.224H284.219L283.835 34.312H290.299L283.131 61H291.387L295.227 46.024H303.547L301.819 53C301.563 53.96 301.307 54.856 301.307 56.2C301.307 58.184 301.883 59.72 302.779 60.616C303.675 61.448 305.211 61.896 306.555 61.896C308.027 61.896 309.307 61.384 310.459 60.552C311.867 59.592 312.763 58.504 313.787 57.224C315.003 55.688 316.091 54.216 317.563 51.528L316.667 51.08C315.835 52.68 314.683 54.536 312.699 56.968C311.163 58.824 310.459 59.08 310.011 59.08C309.243 59.08 309.115 58.504 309.115 57.992C309.115 57.416 309.307 56.968 309.563 55.816L315.067 33.224H306.811L303.803 44.872H295.547L298.555 33.224ZM377.177 33.224H368.729L358.745 50.76L357.145 33.224H343.001L342.617 34.376H344.345C347.225 34.376 347.929 35.528 347.929 36.936C347.929 37.896 347.609 39.368 347.289 40.328L342.425 54.024C341.721 56.008 341.209 57.096 340.825 57.8C339.545 60.104 338.457 60.552 337.881 60.552C337.241 60.552 336.985 60.168 336.985 59.784C336.985 59.208 337.689 58.888 338.009 58.632C338.905 57.992 339.097 57.224 339.097 56.328C339.097 53.576 336.857 52.68 335.385 52.68C333.721 52.68 331.097 53.704 331.097 56.84C331.097 57.928 331.417 59.144 332.121 60.04C333.145 61.448 334.617 61.896 336.217 61.896C339.161 61.896 340.377 60.36 341.081 59.272C342.169 57.672 342.745 56.136 343.321 54.472L349.145 37.896H349.593L352.153 61.896H353.561L366.937 38.472H367.385L363.737 53C363.481 54.088 363.161 55.816 363.161 56.712C363.161 58.824 364.057 60.04 364.761 60.616C365.593 61.32 366.745 61.896 368.345 61.896C369.753 61.896 371.097 61.512 372.441 60.552C373.401 59.848 374.809 58.44 375.769 57.224C376.793 55.944 378.521 53.192 379.481 51.528L378.585 51.08C376.409 54.792 375.897 55.368 374.745 56.84C373.913 57.864 372.889 59.08 371.865 59.08C371.289 59.08 371.033 58.76 371.033 58.12C371.033 57.48 371.225 57.032 371.545 55.816L377.177 33.224ZM404.56 44.296C404.56 41.224 403.28 38.024 401.232 35.848C398.992 33.48 395.792 32.328 392.848 32.328C389.84 32.328 386.256 33.544 383.76 35.016C378.512 38.088 375.312 43.4 375.312 48.968C375.312 51.976 376.336 55.368 377.936 57.544C380.176 60.488 383.76 61.896 387.28 61.896C392.272 61.896 397.2 59.016 400.4 55.048C402.896 51.976 404.56 47.752 404.56 44.296ZM385.936 41.736C386.512 39.496 387.344 36.552 389.264 34.888C390.16 34.12 391.568 33.48 392.848 33.48C394.896 33.48 396.88 34.952 396.88 37.96C396.88 39.688 396.24 42.056 395.92 43.144L393.168 53.256C392.208 56.776 391.184 58.376 390.288 59.208C389.392 60.04 387.984 60.744 386.512 60.744C384.912 60.744 383.888 60.04 383.312 59.272C382.8 58.504 382.48 57.416 382.48 56.328C382.48 55.112 382.8 53.576 383.056 52.552L385.936 41.736ZM418.774 53.408L414.094 33.336H403.278V61H410.038V38.744H410.142L415.342 61H421.894L427.094 38.744H427.198V61H433.958V33.336H423.454L418.878 53.408H418.774ZM456.534 50.504C454.422 53.704 452.822 55.88 450.838 57.672C448.214 60.04 445.91 60.744 444.054 60.744C441.174 60.744 439.126 58.76 439.126 55.752C439.126 55.112 439.254 54.024 439.894 51.656L440.726 48.52C442.454 48.392 444.886 48.136 447.766 47.624C450.326 47.176 452.63 46.6 454.55 45.384C456.79 43.976 458.134 41.992 458.134 39.176C458.134 36.616 456.918 35.016 455.702 34.056C453.91 32.648 451.734 32.328 450.006 32.328C447.446 32.328 444.502 32.968 441.43 34.888C439.318 36.232 437.142 38.216 435.478 40.392C433.366 43.144 431.574 46.92 431.574 50.504C431.574 53.448 432.79 56.456 435.094 58.696C437.206 60.744 439.83 61.896 443.158 61.896C445.846 61.896 448.15 61.128 450.582 59.272C453.334 57.16 454.678 54.856 457.366 50.952L456.534 50.504ZM442.518 41.608C443.35 38.408 444.054 36.424 445.526 34.952C446.422 33.992 447.446 33.48 448.726 33.48C450.262 33.48 451.286 34.568 451.286 36.168C451.286 36.872 451.03 38.088 450.838 38.92L450.39 40.776C450.198 41.608 449.558 43.272 449.238 43.912C448.726 45 447.894 46.088 446.23 46.728C445.142 47.112 442.646 47.432 440.982 47.496L442.518 41.608ZM464.028 43.32V33.336H456.852V61H464.028V49.144H474.584V61H481.76V33.336H474.584V43.32H464.028ZM495.497 33.224H481.161L480.841 34.312H487.241L480.073 61H488.329L492.553 44.616C494.025 41.608 495.433 40.072 497.481 37.896C498.953 36.296 500.809 34.44 502.345 34.44C503.305 34.44 504.137 35.08 504.137 36.36C504.137 36.808 504.073 37.64 503.113 41.096L497.737 61H505.993L510.217 44.616C511.689 41.608 513.097 40.072 515.081 37.96C516.361 36.616 518.345 34.44 519.945 34.44C520.713 34.44 521.417 34.888 521.417 36.04C521.417 37.32 520.713 39.496 520.329 41.096L517.385 53C517.065 54.216 516.873 54.984 516.873 56.328C516.873 57.672 517.065 59.4 518.409 60.616C519.305 61.448 520.649 61.896 522.057 61.896C523.401 61.896 524.745 61.512 526.089 60.552C527.241 59.72 528.585 58.184 529.417 57.224C530.953 55.368 531.657 54.024 533.129 51.528L532.233 51.08C530.825 53.704 529.225 55.816 528.457 56.84C526.857 58.888 525.961 59.08 525.577 59.08C524.937 59.08 524.745 58.632 524.745 57.992C524.745 57.416 524.937 56.968 525.193 55.816L528.329 43.272C528.777 41.544 529.225 40.264 529.225 38.472C529.225 37.512 529.097 36.104 528.329 34.824C527.241 32.968 525.513 32.328 523.529 32.328C519.497 32.328 516.489 35.08 514.569 37C513.225 38.344 512.329 39.432 511.433 40.648L511.369 40.52C511.497 39.88 511.561 39.176 511.561 38.536C511.561 37.448 511.433 36.104 510.665 34.824C509.577 32.968 507.849 32.328 505.929 32.328C501.833 32.328 498.761 35.08 496.969 36.936C495.625 38.28 494.537 39.56 493.449 41.096L495.497 33.224Z" fill="#F95B5B"/>
</svg>
