<svg width="195" height="46" viewBox="0 0 195 46" fill="none" xmlns="http://www.w3.org/2000/svg">
<path fill-rule="evenodd" clip-rule="evenodd" d="M69.502 11.8842C69.502 12.0628 69.5213 12.301 69.56 12.5987C69.5986 12.8963 69.6711 13.2169 69.787 13.565C69.8981 13.913 70.0624 14.2611 70.2798 14.6137C70.4924 14.9663 70.7822 15.2823 71.1397 15.5709C71.4972 15.8594 71.9368 16.0884 72.4586 16.267C72.9804 16.4456 73.6084 16.5372 74.3379 16.5372C74.7147 16.5372 75.0915 16.4868 75.4587 16.386C75.8307 16.2853 76.1737 16.1342 76.4877 15.9372C76.8017 15.7403 77.0771 15.5022 77.309 15.2228C77.5409 14.9434 77.71 14.6229 77.8114 14.2657H82.1187L82.7877 11.8934H69.5116L69.502 11.8842ZM83.4919 9.39638C83.4098 8.55882 83.2845 7.76344 83.116 7.01146C82.7874 5.54597 82.2464 4.29572 81.4831 3.25614C80.7197 2.22114 79.7197 1.4197 78.4733 0.851817C77.2269 0.283939 75.6954 0 73.8693 0C72.1446 0 70.6711 0.279359 69.444 0.833499C68.2169 1.38764 67.2121 2.12954 66.4246 3.05922C65.642 3.98889 65.0622 5.06511 64.6902 6.28788C64.3182 7.51065 64.1347 8.78379 64.1347 10.1073C64.1347 11.8633 64.3522 13.378 64.791 14.6515C63.563 16.4457 61.769 18.6749 60.7864 18.6749C60.4045 18.6749 60.2159 18.4498 60.2159 18.0916C60.2159 17.8064 60.2925 17.5175 60.5229 16.6479L60.593 16.3831L64.7602 0.491988H58.5046L51.108 12.8282L49.9236 0.496581H39.4662L39.4675 0.491988H33.1736L30.1472 11.4329C29.0612 13.92 25.0358 19.1667 22.7673 19.1667C21.7296 19.1667 21.633 18.4422 21.633 18.0361C21.633 17.81 21.913 16.638 22.0095 16.3196L26.3149 0.491988H15.7204L15.5088 1.06441C14.9459 0.797768 14.317 0.603483 13.6266 0.481556C12.7321 0.324443 11.8084 0.245886 10.8459 0.245886H0V20.1669H11.7404C12.8439 20.1669 13.8405 20.0191 14.7302 19.7187C15.4505 19.4768 16.0794 19.157 16.6219 18.7594C17.0987 19.8249 18.0622 20.7494 19.9292 20.7494C23.5733 20.7494 27.1644 17.4916 29.4377 14.1923H29.626L29.4377 14.9629C27.8304 21.5662 25.5619 29.4338 20.7353 29.4338C19.3645 29.4338 18.655 28.8893 18.655 28.4833C18.655 28.1649 19.0797 27.8926 19.3645 27.7126L19.4138 27.6789C20.0538 27.242 20.5953 26.8723 20.5953 25.77C20.5953 23.9611 19.6058 22.4706 17.3807 22.4706C14.9674 22.4706 14.0214 24.4179 14.0214 25.6823C14.0214 27.9895 16.4782 30.2506 20.7835 30.2506C25.8853 30.2506 30.6337 26.4825 33.4457 20.5836C33.706 20.6327 33.9869 20.659 34.2892 20.659C37.1319 20.659 38.4565 18.8127 39.6892 15.437L44.0015 3.78043H44.335L46.2301 20.659H47.2743L57.1751 4.1846H57.1799H57.5135L54.8111 14.4036C54.5742 15.2578 54.434 15.9789 54.434 17.0582C54.434 19.9838 56.711 20.659 58.3209 20.659C60.1398 20.659 62.2046 19.7357 65.1187 15.4827C65.6087 16.5879 66.2474 17.5038 67.0285 18.2362C67.927 19.0743 68.9754 19.688 70.1783 20.0772C71.3813 20.4665 72.6663 20.6589 74.0384 20.6589C75.1109 20.6589 76.0819 20.5535 76.9563 20.3383C77.8308 20.123 78.6134 19.8391 79.3042 19.4865C79.9297 19.1672 80.4799 18.8067 80.9513 18.4048L80.493 20.0298H86.5928L89.4303 9.49847H95.5783L94.2995 14.4036C94.063 15.2578 93.9231 15.9789 93.9231 17.0582C93.9231 20.2089 96.3842 20.659 97.8029 20.659C99.7429 20.659 102.296 19.4419 105.939 13.3656L105.278 13.0487C104.38 14.624 101.635 18.6749 100.264 18.6749C99.8828 18.6749 99.6946 18.4498 99.6946 18.0916C99.6946 17.7586 99.8241 17.2294 99.9305 16.7943C99.9679 16.6414 100.003 16.5001 100.028 16.3831L104.187 0.491988H97.9429L95.7665 8.68554H95.7617H89.6619L91.8866 0.491988H81.2941L81.0094 1.25899H85.7869L83.4919 9.39638ZM78.053 8.52275C78.053 7.66178 77.9177 6.94735 77.6472 6.37489C77.3766 5.80243 77.0385 5.34447 76.6278 5.00557C76.2172 4.66668 75.7679 4.42853 75.2799 4.29114C74.7872 4.15375 74.3186 4.08506 73.8644 4.08506C73.4103 4.08506 72.9562 4.15375 72.4683 4.29114C71.9755 4.42853 71.5262 4.66668 71.1204 5.00557C70.7097 5.34447 70.3716 5.80243 70.101 6.37489C69.8305 6.94735 69.6952 7.66178 69.6952 8.52275H78.053ZM35.4749 14.719C36.12 15.1657 36.5614 15.8811 36.5614 16.8332C36.5614 17.3292 36.2762 17.9584 35.8991 18.2753C35.8202 18.332 35.7349 18.3847 35.6493 18.4376C35.3263 18.6372 34.9999 18.8388 34.9999 19.2674C34.9999 19.5383 35.3335 19.7174 35.7589 19.7174C37.2036 19.7174 38.3259 16.8904 38.9928 15.2107L39.0269 15.1246C42.2949 6.70604 43.1023 4.45557 43.1023 3.10529C43.1023 2.11325 42.5802 1.30491 40.4482 1.30491H39.2394L35.4749 14.719ZM15.9796 1.31333C15.9504 1.2962 15.9211 1.27929 15.8915 1.2626L20.214 1.2626L17.5924 10.5681C17.0976 10.1029 16.4752 9.74607 15.7268 9.49247C16.0476 9.34459 16.3588 9.16438 16.6602 8.95181C16.9616 8.73925 17.2289 8.47585 17.4574 8.16625C17.6908 7.85664 17.8707 7.48234 18.0068 7.04335C18.1429 6.60435 18.211 6.0868 18.211 5.4907C18.211 4.4556 18.0068 3.5961 17.6033 2.92143C17.1998 2.24677 16.6602 1.71074 15.9796 1.31333ZM5.43995 8.06458H9.63052C10.2479 8.06458 10.7584 8.01837 11.1667 7.92595C11.5751 7.83354 11.9008 7.69953 12.139 7.52393C12.3772 7.34833 12.5425 7.12652 12.6397 6.86775C12.737 6.60435 12.7856 6.29937 12.7856 5.94355C12.7856 5.65243 12.737 5.37979 12.6397 5.13026C12.5425 4.88073 12.3821 4.66816 12.1487 4.49257C11.9203 4.31697 11.6091 4.17834 11.2251 4.07206C10.841 3.9704 10.3597 3.91494 9.78122 3.91494H5.43995V8.06458ZM5.43995 16.4886H9.63052C10.4132 16.4886 11.0452 16.4101 11.5265 16.253C12.0078 16.0958 12.3772 15.8925 12.6397 15.6522C12.9023 15.4073 13.0773 15.1393 13.1599 14.8482C13.2426 14.5571 13.2863 14.2798 13.2863 14.0256C13.2863 13.5404 13.2183 13.1338 13.0821 12.8103C12.946 12.4869 12.737 12.2281 12.4453 12.034C12.1585 11.8399 11.7793 11.7059 11.3126 11.632C10.8459 11.558 10.2819 11.5211 9.63052 11.5211H5.43995V16.4886ZM71.392 29.3069L61.4181 45.9859H60.3662L58.4571 28.8977H58.1211L53.777 40.699C52.5351 44.1167 51.2007 45.9859 48.3372 45.9859C45.6635 45.9859 44.6603 43.9353 44.6603 42.2056C44.6603 40.2015 46.5206 39.425 47.7138 39.425C49.1943 39.425 50.6261 40.3828 50.6261 42.1126C50.6261 42.6148 50.3387 43.2518 49.9589 43.5727C49.8794 43.6301 49.7935 43.6834 49.7073 43.7369L49.7073 43.7369C49.3819 43.939 49.053 44.1432 49.053 44.577C49.053 44.8514 49.3891 45.0327 49.8176 45.0327C51.273 45.0327 52.4037 42.1705 53.0754 40.4699L53.1098 40.3828C56.402 31.8643 57.2153 29.5858 57.2153 28.2188C57.2153 27.2144 56.6893 26.396 54.5416 26.396H53.251L53.5384 25.5777H64.0869L65.2801 38.0626L72.7263 25.5777H79.0282L74.8302 41.6616L74.7596 41.9296C74.5275 42.81 74.4503 43.1026 74.4503 43.3913C74.4503 43.754 74.6403 43.9818 75.025 43.9818C75.9402 43.9818 77.5541 42.0527 78.77 40.3261C78.3475 39.1183 78.1563 37.8398 78.1563 36.6231C78.1563 29.7441 85.6019 25.0857 91.6159 25.0857C94.5607 25.0857 96.9516 26.5833 98.4089 28.7756V25.5777H98.4137H106.469L109.95 39.8557H110.047L113.45 25.5777H121.258V31.2788C123.755 27.8905 127.97 25.0857 132.507 25.0857C134.695 25.0857 136.535 25.7647 137.617 26.9396V25.5777H143.008V32.689H150.935V25.5777H156.312V25.8228L156.344 25.7182H167.008L165.482 31.2815V31.2861C168.722 26.8955 172.007 25.0857 174.766 25.0857C177.287 25.0857 178.954 26.7155 178.954 29.564C178.954 30.0165 178.905 30.4227 178.813 30.8752L178.861 30.9675C181.431 27.6665 184.482 25.0857 187.859 25.0857C190.429 25.0857 192.095 26.7616 192.095 29.564C192.095 30.5513 191.834 31.4318 191.607 32.201C191.543 32.4173 191.482 32.6248 191.429 32.8235L189.097 41.6923C188.986 42.1146 188.916 42.369 188.869 42.5432C188.814 42.7423 188.788 42.8367 188.762 42.9573V43.4097C188.811 43.7283 188.903 43.9961 189.287 43.9961C190.715 43.9961 193.523 39.7902 194.335 38.3405L195 38.6591C191.667 44.0422 189.428 45.9905 186.858 45.9905C185.002 45.9905 182.908 45.1318 182.908 42.371C182.908 41.286 183.049 40.5612 183.287 39.7025L185.478 31.2861C185.56 30.9768 185.661 30.6525 185.764 30.3228C186.021 29.496 186.289 28.6354 186.289 27.8927C186.289 26.7616 185.624 26.5816 185.196 26.5816C182.957 26.5816 178.769 32.2371 177.958 33.7745L174.815 45.358H168.674L172.672 31.2861C173.386 28.8438 173.435 28.299 173.435 27.9389C173.435 26.9001 172.58 26.5816 172.055 26.5816C170.151 26.5816 165.914 31.697 164.817 33.7745L161.673 45.358H155.533L155.562 45.2528H150.935V36.8245H143.008V45.2528H137.617V38.9891C133.706 44.9445 130.211 45.9905 127.648 45.9905C125.006 45.9905 122.794 44.9957 121.258 43.393V45.2528H116.229V29.4221H116.151L112.274 45.2528H107.394L103.535 29.4221H103.439V45.2528H98.4089V39.0366C96.3118 42.6451 92.2418 45.9905 87.0822 45.9905C82.8274 45.9905 80.3308 43.8448 79.1056 41.1618C76.3214 45.116 74.3145 45.9906 72.5462 45.9906C70.9244 45.9906 68.6306 45.3071 68.6306 42.3451C68.6306 41.2524 68.7719 40.5223 69.0105 39.6575L71.728 29.3162H71.392V29.3069ZM156.312 42.6023L160.867 26.4892H156.312V42.6023ZM125.688 36.5354C130.129 36.1871 135.417 35.6226 137.617 32.8011V38.0176L137.464 37.9389C134.939 41.5584 132.269 45.178 128.358 45.178C125.926 45.178 124.496 43.6406 124.496 41.5584C124.496 41.1475 124.593 40.4273 125.07 38.7514L125.688 36.5354ZM83.9018 39.4983L83.9316 39.3839L83.9268 39.3747L86.0742 31.7293C86.6976 29.6056 87.9393 25.8937 91.6597 25.8937C93.2326 25.8937 94.2357 27.4311 94.2357 29.0608C94.2357 30.2842 93.7585 31.9555 93.5199 32.7265L91.4698 39.8779C90.6127 42.8188 89.371 45.1734 86.5076 45.1734C85.3146 45.1734 83.5031 44.6332 83.5031 41.8262C83.5031 41.0244 83.7536 40.0657 83.9017 39.4986L83.9017 39.4985L83.9018 39.4984L83.9018 39.4983ZM125.889 35.8105C131.651 35.8088 132.249 33.4099 132.689 31.6429C132.74 31.4385 132.789 31.2426 132.843 31.0598L133.222 29.7487C133.412 29.1623 133.509 28.119 133.509 27.4403C133.509 26.4431 132.746 25.9029 131.7 25.9029C128.937 25.9029 127.745 28.9777 127.03 31.6508L125.889 35.8105Z" fill="#F95B5B"/>
</svg>
