<svg width="676" height="169" viewBox="0 0 676 169" fill="none" xmlns="http://www.w3.org/2000/svg">
<path d="M0 0.900391H37.599C40.9359 0.900391 44.1379 1.18791 47.2389 1.76294C50.323 2.33797 53.0531 3.35274 55.3957 4.80723C57.7551 6.26173 59.6258 8.2236 61.0246 10.6929C62.4234 13.1621 63.1312 16.3079 63.1312 20.0963C63.1312 22.2781 62.8953 24.1723 62.4234 25.779C61.9515 27.3857 61.3279 28.7557 60.519 29.8888C59.7269 31.022 58.8 31.986 57.7551 32.764C56.7102 33.542 55.6316 34.2016 54.5193 34.7428C58.1596 36.045 60.9403 38.0915 62.8447 40.9328C64.7491 43.7573 65.7097 47.1398 65.7097 51.0635C65.7097 54.4968 65.1199 57.6088 63.9401 60.3994C62.7604 63.19 61.092 65.5747 58.9348 67.5535C56.7776 69.5322 54.1654 71.0713 51.0645 72.1706C47.9804 73.27 44.5255 73.8112 40.6999 73.8112H0V0.900391ZM18.8585 29.5167H33.3857C35.5261 29.5167 37.2956 29.3476 38.7113 29.0094C40.1269 28.6711 41.2561 28.1806 42.0819 27.5379C42.9076 26.8953 43.4807 26.0834 43.8177 25.1363C44.1548 24.1723 44.3233 23.0561 44.3233 21.7538C44.3233 20.6883 44.1548 19.6904 43.8177 18.7771C43.4807 17.8639 42.9245 17.0859 42.1156 16.4432C41.3235 15.8005 40.2449 15.2931 38.9135 14.9041C37.5821 14.5321 35.9137 14.3291 33.9082 14.3291H18.8585V29.5167ZM18.8585 60.3486H33.3857C36.0991 60.3486 38.2899 60.0611 39.9584 59.4861C41.6268 58.9111 42.9076 58.1669 43.8177 57.2874C44.7278 56.3911 45.3345 55.4101 45.621 54.3446C45.9075 53.2791 46.0592 52.2644 46.0592 51.3342C46.0592 49.5583 45.8232 48.07 45.3513 46.8861C44.8794 45.7022 44.1548 44.7551 43.1436 44.0448C42.1493 43.3344 40.8347 42.844 39.2169 42.5734C37.599 42.3028 35.644 42.1675 33.3857 42.1675H18.8585V60.3656V60.3486Z" fill="white"/>
<path d="M121.242 60.4041C113.211 90.3649 93.5336 110.716 72.0492 110.716C57.124 110.716 48.6072 102.44 48.6072 93.996C48.6072 89.3684 51.8867 82.2413 60.2529 82.2413C67.9665 82.2413 71.3967 87.6964 71.3967 94.3169C71.3967 98.4546 69.4222 99.772 67.1299 101.427C66.1427 102.086 64.6702 103.082 64.6702 104.247C64.6702 105.734 67.1299 107.727 71.8819 107.727C88.6143 107.727 96.4785 78.9311 102.05 54.7632L102.703 51.9428H102.05C94.1694 64.0183 81.7205 75.9418 69.0876 75.9418C58.0944 75.9418 56.1367 66.1801 56.1367 60.7081C56.1367 56.2325 57.7765 50.4397 58.5964 47.6361L70.0748 4.62024H53.5098L54.497 1.7998H91.2245L76.2992 59.7285C75.9646 60.8938 74.9941 65.1836 74.9941 66.0112C74.9941 67.4974 75.3288 70.1489 78.9262 70.1489C86.7904 70.1489 100.745 50.9463 104.51 41.8432L115.001 1.7998H136.82L121.242 60.4041Z" fill="white"/>
<path d="M198.206 15.3147L163.884 75.6107H160.264L153.694 13.8355H152.538L137.589 56.4982C133.315 68.8533 128.723 75.6107 118.869 75.6107C109.668 75.6107 106.216 68.1977 106.216 61.9445C106.216 54.6996 112.618 51.8924 116.724 51.8924C121.818 51.8924 126.746 55.3552 126.746 61.6083C126.746 63.4238 125.757 65.7267 124.45 66.8866C123.142 67.8783 121.332 68.5339 121.332 70.5174C121.332 71.5092 122.489 72.1648 123.964 72.1648C129.058 72.1648 132.997 61.457 135.293 55.3552C146.622 24.5432 149.421 16.3065 149.421 11.3645C149.421 7.73359 147.611 4.7751 140.22 4.7751H135.779L136.768 1.81661H173.068L177.174 46.9504L202.815 1.7998H224.501L210.055 59.961C209.066 63.9113 208.748 65.0711 208.748 66.2142C208.748 67.5253 209.401 68.349 210.725 68.349C215.317 68.349 225.021 53.5229 228.138 47.7572L230.434 48.9171C217.781 71.1562 209.418 75.6107 202.178 75.6107C196.597 75.6107 188.704 73.1397 188.704 62.432C188.704 58.4818 189.19 55.8426 190.011 52.7161L199.379 15.3147H198.223H198.206Z" fill="white"/>
<path d="M240.94 43.4961C240.94 44.1498 241.007 45.0214 241.141 46.1109C241.275 47.2004 241.526 48.3737 241.928 49.6476C242.313 50.9215 242.882 52.1954 243.636 53.486C244.373 54.7766 245.378 55.9332 246.617 56.9891C247.856 58.0451 249.38 58.8832 251.189 59.5369C252.998 60.1906 255.175 60.5258 257.704 60.5258C259.01 60.5258 260.317 60.3414 261.59 59.9727C262.879 59.6039 264.068 59.0508 265.157 58.3301C266.245 57.6093 267.2 56.7377 268.004 55.7153C268.808 54.6928 269.394 53.5195 269.746 52.2121H288.922C288.922 53.5195 288.637 55.0113 288.068 56.7042C287.498 58.3803 286.644 60.09 285.488 61.8165C284.333 63.5429 282.876 65.2358 281.134 66.8952C279.392 68.5546 277.316 70.0296 274.921 71.3202C272.526 72.6109 269.813 73.6501 266.781 74.4379C263.75 75.2257 260.384 75.6112 256.666 75.6112C251.909 75.6112 247.454 74.9072 243.284 73.4825C239.114 72.0577 235.48 69.8117 232.365 66.7443C229.25 63.6602 226.788 59.6877 225.013 54.7934C223.22 49.899 222.333 43.9654 222.333 36.9927C222.333 32.1486 222.969 27.4889 224.259 23.0136C225.548 18.5382 227.558 14.5993 230.271 11.1967C233.001 7.7941 236.485 5.07874 240.739 3.0506C244.993 1.02245 250.101 0 256.079 0C262.41 0 267.719 1.03921 272.04 3.11764C276.361 5.19607 279.828 8.12933 282.474 11.9174C285.12 15.7223 286.996 20.2982 288.135 25.6619C289.273 31.0256 289.843 36.9927 289.843 43.5296H240.973L240.94 43.4961ZM270.583 31.1932C270.583 28.042 270.114 25.4272 269.176 23.332C268.238 21.2368 267.066 19.5607 265.642 18.3203C264.219 17.08 262.661 16.2084 260.97 15.7055C259.262 15.2027 257.637 14.9513 256.063 14.9513C254.488 14.9513 252.914 15.2027 251.223 15.7055C249.514 16.2084 247.957 17.08 246.55 18.3203C245.126 19.5607 243.954 21.2368 243.016 23.332C242.078 25.4272 241.609 28.042 241.609 31.1932H270.583Z" fill="white"/>
<path d="M331.989 31.7881L339.534 1.7998H361.182L346.761 59.961C346.426 61.6083 345.607 64.5668 345.607 66.2142C345.607 67.5253 346.259 68.349 347.581 68.349C352.332 68.349 361.851 53.5229 364.962 47.7572L367.254 48.9171C354.624 71.1562 345.774 75.6107 339.049 75.6107C334.13 75.6107 325.599 73.9634 325.599 62.432C325.599 58.4818 326.084 55.8426 326.903 52.7161L331.337 34.7634H310.024L300.187 73.3078H279.041L297.393 4.60701H280.831L281.818 1.7998H318.539L310.827 31.7881H331.972H331.989Z" fill="white"/>
<path d="M247.493 107.263L212.917 168.308H209.27L202.652 105.765H201.487L186.427 148.958C182.122 161.467 177.496 168.308 167.569 168.308C158.301 168.308 154.823 160.803 154.823 154.472C154.823 147.137 161.272 144.295 165.408 144.295C170.541 144.295 175.504 147.801 175.504 154.132C175.504 155.97 174.508 158.301 173.191 159.476C171.875 160.48 170.051 161.144 170.051 163.152C170.051 164.156 171.216 164.82 172.702 164.82C177.834 164.82 181.802 153.979 184.115 147.801C195.527 116.623 198.347 108.284 198.347 103.281C198.347 99.6048 196.523 96.6095 189.078 96.6095H184.604L185.6 93.6143H222.168L226.305 139.309L252.118 93.6143H273.965L259.412 152.481C258.416 156.48 258.095 157.655 258.095 158.812C258.095 160.139 258.753 160.973 260.087 160.973C264.713 160.973 274.488 145.963 277.628 140.126L279.941 141.3C267.212 163.815 258.77 168.325 251.494 168.325C245.872 168.325 237.92 165.824 237.92 154.983C237.92 150.983 238.41 148.312 239.237 145.146L248.658 107.297H247.493V107.263Z" fill="white"/>
<path d="M301.883 168.325C279.212 168.325 270.94 149.771 270.94 134.04C270.94 108.863 296.752 91.8135 317.6 91.8135C334.802 91.8135 346.551 107.376 346.551 124.442C346.551 141.509 328.353 168.325 301.883 168.325ZM290.961 144.145C290.472 146.139 289.476 149.94 289.476 153.083C289.476 163.357 295.756 165.334 299.891 165.334C309.818 165.334 314.122 156.716 317.093 145.953L324.2 119.779C325.028 116.957 326.682 110.84 326.682 106.362C326.682 100.397 323.204 94.7705 317.752 94.7705C304.855 94.7705 300.55 108.356 298.389 116.129L290.944 144.111L290.961 144.145Z" fill="white"/>
<path d="M341.167 93.6143H369.093L381.159 145.872H381.495L393.293 93.6143H420.362V165.625H402.925V107.685H402.657L389.214 165.625H372.298L358.923 107.685H358.587V165.625H341.15V93.6143H341.167Z" fill="white"/>
<path d="M478.698 140.005C464.483 164.185 451.752 168.325 442.512 168.325C424.503 168.325 412.261 154.249 412.261 136.862C412.261 117.65 434.401 91.8135 459.357 91.8135C471.582 91.8135 480.671 98.2683 480.671 108.373C480.671 129.072 455.715 132.063 435.716 133.719L433.575 141.83C431.922 147.963 431.585 150.599 431.585 152.103C431.585 159.724 436.543 165.351 444.974 165.351C458.531 165.351 467.788 152.103 476.54 138.856L478.681 140.022L478.698 140.005ZM436.391 131.066C458.7 131.066 458.7 120.133 460.521 113.679L461.836 108.88C462.494 106.734 462.831 102.915 462.831 100.431C462.831 96.7813 460.184 94.8043 456.558 94.8043C446.98 94.8043 442.849 106.058 440.37 115.842L436.408 131.083L436.391 131.066Z" fill="white"/>
<path d="M477.071 93.6143H495.759V119.642H523.242V93.6143H541.88V165.625H523.242V134.778H495.759V165.625H477.071V93.6143Z" fill="white"/>
<path d="M573.671 114.144C584.904 98.0749 596.289 91.4512 605.855 91.4512C614.596 91.4512 620.373 97.4159 620.373 107.842C620.373 109.498 620.204 110.985 619.884 112.64L620.053 112.978C628.962 100.897 639.538 91.4512 651.243 91.4512C660.152 91.4512 665.929 97.5849 665.929 107.842C665.929 112.472 664.447 116.459 663.621 119.771L655.538 152.231C654.712 155.543 654.544 156.033 654.375 156.861V158.517C654.544 159.683 654.864 160.663 656.194 160.663C661.146 160.663 670.88 145.269 673.693 139.964L676 141.129C664.447 160.832 656.683 167.962 647.774 167.962C641.34 167.962 634.082 164.82 634.082 154.715C634.082 150.744 634.57 148.091 635.395 144.948L642.991 114.144C643.984 110.173 645.803 105.527 645.803 101.725C645.803 97.5849 643.496 96.9259 642.014 96.9259C634.25 96.9259 619.733 117.625 616.92 123.252L606.024 165.648H584.736L598.596 114.144C601.072 105.206 601.241 103.212 601.241 101.894C601.241 98.0918 598.277 96.9259 596.458 96.9259C589.856 96.9259 575.17 115.648 571.364 123.252L560.467 165.648H539.18L557.672 96.588H541.167L541.992 93.7661H578.959L573.671 114.127V114.144Z" fill="white"/>
</svg>
