<svg width="145" height="135" viewBox="0 0 145 135" fill="none" xmlns="http://www.w3.org/2000/svg">
<circle cx="71.5" cy="68.5" r="66.5" fill="#FBF4EE"/>
<path fill-rule="evenodd" clip-rule="evenodd" d="M13.3257 53.3242C17.3061 38.6988 35.8534 35.3775 49.3849 28.5258C61.692 22.294 73.6169 13.2725 87.1592 15.9381C101.328 18.7271 111.729 30.0951 119.416 42.3105C127.443 55.0658 134.319 69.9128 130.253 84.4151C126.221 98.7962 112.621 107.729 99.2206 114.346C86.8465 120.457 72.8501 123.427 59.6851 119.263C47.0402 115.264 39.4527 103.878 31.8288 93.0337C23.0959 80.6125 9.34115 67.965 13.3257 53.3242Z" stroke="#F95B5B" stroke-width="2"/>
<path d="M78.6835 63.9465C93.9578 59.7808 97.2399 53.7216 97.2399 49.1771C97.2399 45.2639 94.3365 38.4473 80.577 38.4473C63.5354 38.4473 43.9692 55.9938 43.9692 74.8026C43.9692 87.5522 53.1843 96.7673 65.4289 96.7673C80.0721 96.7673 94.9676 86.6686 94.9676 75.3075C94.9676 66.0925 84.6165 65.2088 82.218 65.2088H78.5573L78.6835 63.9465ZM62.6518 68.7434L67.8274 67.6073C70.857 66.9761 79.3147 64.9564 79.3147 73.0353C79.3147 73.7927 79.0622 76.1912 78.8097 77.201L77.1687 83.5127C75.9064 88.1834 74.1391 94.4951 65.4289 94.4951C61.2632 94.4951 58.3599 92.3491 58.3599 88.1834C58.3599 86.0374 58.991 82.6291 59.3697 81.2405L62.6518 68.7434ZM63.1567 66.5974L65.5552 57.8873C66.9438 52.7117 70.3521 40.7195 79.6934 40.7195C82.0918 40.7195 83.9853 41.6031 83.9853 44.0016C83.9853 44.8852 83.6066 47.5361 83.3541 48.6722L82.0918 53.974C80.0721 62.6842 74.8965 64.3252 68.9635 65.4613L63.1567 66.5974Z" fill="#2A2A2A"/>
</svg>
