<svg width="677" height="169" viewBox="0 0 677 169" fill="none" xmlns="http://www.w3.org/2000/svg">
<path d="M0.5 1.55957H38.099C41.4359 1.55957 44.6379 1.84709 47.7389 2.42212C50.823 2.99715 53.5531 4.01192 55.8957 5.46641C58.2551 6.92091 60.1258 8.88278 61.5246 11.352C62.9234 13.8213 63.6312 16.9671 63.6312 20.7555C63.6312 22.9373 63.3953 24.8315 62.9234 26.4382C62.4515 28.0449 61.8279 29.4148 61.019 30.548C60.2269 31.6811 59.3 32.6452 58.2551 33.4232C57.2102 34.2011 56.1316 34.8607 55.0193 35.4019C58.6596 36.7042 61.4403 38.7507 63.3447 41.592C65.2491 44.4164 66.2097 47.799 66.2097 51.7227C66.2097 55.156 65.6199 58.268 64.4401 61.0586C63.2604 63.8492 61.592 66.2339 59.4348 68.2126C57.2776 70.1914 54.6654 71.7305 51.5645 72.8298C48.4804 73.9291 45.0255 74.4704 41.1999 74.4704H0.5V1.55957ZM19.3585 30.1759H33.8857C36.0261 30.1759 37.7956 30.0068 39.2113 29.6685C40.6269 29.3303 41.7561 28.8398 42.5819 28.1971C43.4076 27.5544 43.9807 26.7426 44.3177 25.7955C44.6548 24.8315 44.8233 23.7152 44.8233 22.413C44.8233 21.3475 44.6548 20.3496 44.3177 19.4363C43.9807 18.523 43.4245 17.7451 42.6156 17.1024C41.8235 16.4597 40.7449 15.9523 39.4135 15.5633C38.0821 15.1912 36.4137 14.9883 34.4082 14.9883H19.3585V30.1759ZM19.3585 61.0078H33.8857C36.5991 61.0078 38.7899 60.7203 40.4584 60.1453C42.1268 59.5702 43.4076 58.8261 44.3177 57.9466C45.2278 57.0502 45.8345 56.0693 46.121 55.0038C46.4075 53.9383 46.5592 52.9235 46.5592 51.9933C46.5592 50.2175 46.3232 48.7292 45.8513 47.5453C45.3794 46.3614 44.6548 45.4143 43.6436 44.7039C42.6493 43.9936 41.3347 43.5031 39.7169 43.2325C38.099 42.9619 36.144 42.8266 33.8857 42.8266H19.3585V61.0247V61.0078Z" fill="#F95B5B"/>
<path d="M121.742 61.0633C113.711 91.0241 94.0336 111.375 72.5492 111.375C57.624 111.375 49.1072 103.1 49.1072 94.6552C49.1072 90.0276 52.3867 82.9005 60.7529 82.9005C68.4665 82.9005 71.8967 88.3556 71.8967 94.976C71.8967 99.1138 69.9222 100.431 67.6299 102.086C66.6427 102.745 65.1702 103.741 65.1702 104.907C65.1702 106.393 67.6299 108.386 72.3819 108.386C89.1143 108.386 96.9785 79.5903 102.55 55.4224L103.203 52.6019H102.55C94.6694 64.6775 82.2205 76.601 69.5876 76.601C58.5944 76.601 56.6367 66.8392 56.6367 61.3673C56.6367 56.8917 58.2765 51.0988 59.0964 48.2953L70.5748 5.27942H54.0098L54.997 2.45898H91.7245L76.7992 60.3877C76.4646 61.553 75.4941 65.8428 75.4941 66.6703C75.4941 68.1566 75.8288 70.8081 79.4262 70.8081C87.2904 70.8081 101.245 51.6055 105.01 42.5024L115.501 2.45898H137.32L121.742 61.0633V61.0633Z" fill="#F95B5B"/>
<path d="M198.706 15.9739L164.384 76.2699H160.764L154.194 14.4947H153.038L138.089 57.1574C133.815 69.5124 129.223 76.2699 119.369 76.2699C110.168 76.2699 106.716 68.8569 106.716 62.6037C106.716 55.3588 113.118 52.5516 117.224 52.5516C122.318 52.5516 127.246 56.0143 127.246 62.2675C127.246 64.083 126.257 66.3859 124.95 67.5457C123.642 68.5375 121.832 69.1931 121.832 71.1766C121.832 72.1684 122.989 72.8239 124.464 72.8239C129.558 72.8239 133.497 62.1162 135.793 56.0143C147.122 25.2024 149.921 16.9657 149.921 12.0236C149.921 8.39277 148.111 5.43428 140.72 5.43428H136.279L137.268 2.47579H173.568L177.674 47.6095L203.315 2.45898H225.001L210.555 60.6202C209.566 64.5704 209.248 65.7303 209.248 66.8733C209.248 68.1845 209.901 69.0082 211.225 69.0082C215.817 69.0082 225.521 54.1821 228.638 48.4164L230.934 49.5763C218.281 71.8154 209.918 76.2699 202.678 76.2699C197.097 76.2699 189.204 73.7989 189.204 63.0912C189.204 59.1409 189.69 56.5018 190.511 53.3752L199.879 15.9739H198.723H198.706Z" fill="#F95B5B"/>
<path d="M241.44 44.1553C241.44 44.809 241.507 45.6806 241.641 46.7701C241.775 47.8596 242.026 49.0329 242.428 50.3068C242.813 51.5807 243.382 52.8545 244.136 54.1452C244.873 55.4358 245.878 56.5923 247.117 57.6483C248.356 58.7043 249.88 59.5424 251.689 60.1961C253.498 60.8498 255.675 61.185 258.204 61.185C259.51 61.185 260.817 61.0006 262.09 60.6319C263.379 60.2631 264.568 59.71 265.657 58.9892C266.745 58.2685 267.7 57.3969 268.504 56.3744C269.308 55.352 269.894 54.1787 270.246 52.8713H289.422C289.422 54.1787 289.137 55.6705 288.568 57.3634C287.998 59.0395 287.144 60.7492 285.988 62.4756C284.833 64.2021 283.376 65.895 281.634 67.5544C279.892 69.2138 277.816 70.6888 275.421 71.9794C273.026 73.2701 270.313 74.3093 267.281 75.0971C264.25 75.8848 260.884 76.2704 257.166 76.2704C252.409 76.2704 247.954 75.5664 243.784 74.1417C239.614 72.7169 235.98 70.4709 232.865 67.4035C229.75 64.3194 227.288 60.3469 225.513 55.4526C223.72 50.5582 222.833 44.6246 222.833 37.6518C222.833 32.8078 223.469 28.1481 224.759 23.6727C226.048 19.1974 228.058 15.2585 230.771 11.8559C233.501 8.45328 236.985 5.73792 241.239 3.70977C245.493 1.68163 250.601 0.65918 256.579 0.65918C262.91 0.65918 268.219 1.69839 272.54 3.77682C276.861 5.85525 280.328 8.78851 282.974 12.5766C285.62 16.3815 287.496 20.9574 288.635 26.3211C289.773 31.6847 290.343 37.6518 290.343 44.1888H241.473L241.44 44.1553ZM271.083 31.8524C271.083 28.7012 270.614 26.0864 269.676 23.9912C268.738 21.896 267.566 20.2199 266.142 18.9795C264.719 17.7392 263.161 16.8676 261.47 16.3647C259.762 15.8619 258.137 15.6104 256.563 15.6104C254.988 15.6104 253.414 15.8619 251.723 16.3647C250.014 16.8676 248.457 17.7392 247.05 18.9795C245.626 20.2199 244.454 21.896 243.516 23.9912C242.578 26.0864 242.109 28.7012 242.109 31.8524H271.083Z" fill="#F95B5B"/>
<path d="M332.489 32.4473L340.034 2.45898H361.682L347.261 60.6202C346.926 62.2675 346.107 65.226 346.107 66.8733C346.107 68.1845 346.759 69.0082 348.081 69.0082C352.832 69.0082 362.351 54.1821 365.462 48.4164L367.754 49.5763C355.124 71.8154 346.274 76.2699 339.549 76.2699C334.631 76.2699 326.099 74.6226 326.099 63.0912C326.099 59.1409 326.584 56.5018 327.404 53.3752L331.837 35.4226H310.524L300.687 73.967H279.541L297.893 5.26619H281.331L282.318 2.45898H319.039L311.327 32.4473H332.472H332.489Z" fill="#F95B5B"/>
<path d="M247.993 107.922L213.417 168.967H209.77L203.152 106.425H201.987L186.928 149.617C182.622 162.126 177.997 168.967 168.069 168.967C158.801 168.967 155.323 161.462 155.323 155.131C155.323 147.797 161.772 144.954 165.908 144.954C171.041 144.954 176.004 148.46 176.004 154.791C176.004 156.629 175.008 158.961 173.691 160.135C172.375 161.139 170.551 161.803 170.551 163.811C170.551 164.815 171.716 165.479 173.202 165.479C178.334 165.479 182.302 154.638 184.615 148.46C196.027 117.282 198.847 108.943 198.847 103.94C198.847 100.264 197.023 97.2687 189.578 97.2687H185.104L186.1 94.2734H222.668L226.805 139.968L252.619 94.2734H274.465L259.912 153.14C258.916 157.14 258.595 158.314 258.595 159.471C258.595 160.799 259.253 161.633 260.587 161.633C265.213 161.633 274.988 146.622 278.128 140.785L280.441 141.959C267.712 164.475 259.27 168.984 251.994 168.984C246.372 168.984 238.42 166.483 238.42 155.642C238.42 151.643 238.91 148.971 239.737 145.805L249.158 107.956H247.993V107.922Z" fill="#F95B5B"/>
<path d="M302.383 168.984C279.712 168.984 271.44 150.431 271.44 134.699C271.44 109.522 297.252 92.4727 318.1 92.4727C335.302 92.4727 347.051 108.035 347.051 125.101C347.051 142.168 328.853 168.984 302.383 168.984ZM291.461 144.804C290.972 146.798 289.976 150.6 289.976 153.743C289.976 164.016 296.256 165.993 300.391 165.993C310.318 165.993 314.622 157.375 317.593 146.612L324.7 120.438C325.528 117.616 327.182 111.499 327.182 107.021C327.182 101.057 323.704 95.4297 318.252 95.4297C305.355 95.4297 301.05 109.015 298.889 116.788L291.444 144.77L291.461 144.804Z" fill="#F95B5B"/>
<path d="M341.667 94.2734H369.593L381.659 146.531H381.995L393.793 94.2734H420.862V166.284H403.426V108.344H403.157L389.714 166.284H372.798L359.423 108.344H359.087V166.284H341.65V94.2734H341.667Z" fill="#F95B5B"/>
<path d="M479.198 140.664C464.983 164.844 452.252 168.984 443.012 168.984C425.003 168.984 412.761 154.908 412.761 137.521C412.761 118.309 434.901 92.4727 459.857 92.4727C472.082 92.4727 481.171 98.9275 481.171 109.032C481.171 129.731 456.215 132.722 436.216 134.378L434.075 142.489C432.422 148.623 432.085 151.259 432.085 152.762C432.085 160.383 437.043 166.01 445.474 166.01C459.031 166.01 468.288 152.762 477.04 139.515L479.181 140.681L479.198 140.664ZM436.891 131.725C459.2 131.725 459.2 120.793 461.021 114.338L462.336 109.539C462.994 107.393 463.331 103.574 463.331 101.09C463.331 97.4405 460.684 95.4635 457.058 95.4635C447.48 95.4635 443.349 106.717 440.87 116.501L436.908 131.742L436.891 131.725Z" fill="#F95B5B"/>
<path d="M477.571 94.2734H496.259V120.301H523.742V94.2734H542.38V166.284H523.742V135.437H496.259V166.284H477.571V94.2734Z" fill="#F95B5B"/>
<path d="M574.171 114.804C585.404 98.7341 596.789 92.1104 606.355 92.1104C615.096 92.1104 620.873 98.0751 620.873 108.501C620.873 110.157 620.704 111.644 620.384 113.3L620.553 113.638C629.462 101.556 640.038 92.1104 651.743 92.1104C660.652 92.1104 666.429 98.2441 666.429 108.501C666.429 113.131 664.947 117.118 664.121 120.43L656.038 152.89C655.212 156.202 655.044 156.692 654.875 157.52V159.176C655.044 160.342 655.364 161.322 656.694 161.322C661.646 161.322 671.38 145.928 674.193 140.623L676.5 141.789C664.947 161.491 657.183 168.622 648.274 168.622C641.84 168.622 634.582 165.479 634.582 155.374C634.582 151.403 635.07 148.75 635.895 145.607L643.491 114.804C644.484 110.833 646.303 106.186 646.303 102.384C646.303 98.2441 643.996 97.5851 642.514 97.5851C634.75 97.5851 620.233 118.284 617.42 123.911L606.524 166.307H585.236L599.096 114.804C601.572 105.865 601.741 103.871 601.741 102.553C601.741 98.751 598.777 97.5851 596.958 97.5851C590.356 97.5851 575.67 116.307 571.864 123.911L560.967 166.307H539.68L558.172 97.2472H541.667L542.492 94.4253H579.459L574.171 114.787V114.804Z" fill="#F95B5B"/>
</svg>
