<svg width="728" height="76" viewBox="0 0 728 76" fill="none" xmlns="http://www.w3.org/2000/svg">
<path d="M28.368 47.496L25.36 17.992H10L9.68 19.272H10.384C12.56 19.272 13.904 19.976 13.904 21.96C13.904 22.472 13.648 24.072 13.52 24.712L6.096 54.28C5.648 56.2 4.752 59.72 0.848 59.72H0.208V61H11.408L11.728 59.72H11.024C9.104 59.72 7.504 59.4 7.504 57.48C7.504 56.584 7.76 54.792 7.888 54.28L16.4 20.168L20.688 61H21.648L46.224 20.168L36.304 59.72H30.416L30.096 61H51.088L51.408 59.72H45.456L55.632 19.272H61.52L61.84 17.992H45.776L28.368 47.496ZM55.161 49.404H74.141C74.141 46.856 73.881 44.568 73.465 42.488C73.049 40.408 72.321 38.588 71.281 37.132C70.241 35.676 68.889 34.532 67.225 33.7C65.561 32.92 63.481 32.504 61.037 32.504C58.697 32.504 56.721 32.868 55.109 33.7C53.445 34.48 52.041 35.52 51.001 36.872C49.961 38.172 49.181 39.68 48.713 41.448C48.193 43.164 47.933 44.984 47.933 46.856C47.933 49.56 48.297 51.848 48.973 53.772C49.649 55.644 50.637 57.204 51.833 58.4C53.029 59.596 54.433 60.48 56.097 61C57.657 61.572 59.425 61.832 61.245 61.832C62.701 61.832 64.001 61.676 65.197 61.364C66.341 61.052 67.381 60.688 68.317 60.168C69.305 59.7 70.085 59.076 70.761 58.452C71.437 57.828 72.009 57.152 72.477 56.476C72.893 55.8 73.205 55.176 73.465 54.5C73.673 53.876 73.777 53.304 73.777 52.784H66.341C66.185 53.304 65.977 53.72 65.665 54.136C65.353 54.5 64.989 54.864 64.573 55.124C64.105 55.436 63.689 55.644 63.169 55.748C62.701 55.904 62.181 56.008 61.661 56.008C60.673 56.008 59.841 55.852 59.165 55.592C58.437 55.384 57.865 55.02 57.397 54.604C56.877 54.24 56.461 53.772 56.201 53.252C55.941 52.784 55.681 52.264 55.525 51.796C55.369 51.276 55.265 50.86 55.265 50.392C55.213 49.976 55.161 49.664 55.161 49.404ZM66.653 44.62H55.421C55.421 43.424 55.577 42.384 55.993 41.552C56.305 40.772 56.773 40.096 57.345 39.628C57.865 39.16 58.489 38.796 59.165 38.588C59.789 38.432 60.465 38.328 61.037 38.328C61.661 38.328 62.285 38.432 62.909 38.588C63.585 38.796 64.209 39.16 64.781 39.628C65.301 40.096 65.769 40.772 66.133 41.552C66.497 42.384 66.653 43.424 66.653 44.62ZM79.4955 24.904C81.4155 21.576 85.3835 16.84 90.0555 16.84C92.9995 16.84 95.8795 18.568 96.3915 23.88C96.5195 25.16 96.5195 26.44 96.3915 27.72C96.1995 30.344 95.2395 35.272 94.5355 38.152L94.1515 38.024V37.256C94.1515 36.104 93.8955 32.328 88.3275 32.328C80.4555 32.328 71.4955 39.752 71.4955 48.648C71.4955 54.792 74.8235 61.896 83.2715 61.896C95.4955 61.896 102.664 46.472 102.664 32.2C102.664 24.968 99.3355 15.752 91.0795 15.752C86.7275 15.752 82.9515 17.8 78.5995 24.328L79.4955 24.904ZM82.0555 41.736C82.8875 38.664 84.1035 33.48 89.0955 33.48C90.5035 33.48 92.9995 33.928 92.9995 37.768C92.9995 40.2 92.1035 42.696 91.5275 44.808L89.2875 53.256C88.1355 57.736 86.7275 60.744 82.5675 60.744C79.6875 60.744 78.6635 58.44 78.6635 55.88C78.6635 54.536 79.0475 52.68 79.4315 51.336L82.0555 41.736ZM107.115 50.392V33.336H99.939V61H107.791L117.567 44.308H117.671V61H124.847V33.336H117.307L107.219 50.392H107.115ZM155.856 33.224H147.344L146.512 36.488V36.424C146.512 34.44 144.208 32.328 141.136 32.328C133.648 32.328 123.536 40.776 123.536 49.032C123.536 55.88 127.376 61.896 133.072 61.896C136.976 61.896 140.176 59.464 141.712 56.2H141.904V56.776C141.904 60.168 144.272 61.896 147.152 61.896C150.352 61.896 153.616 59.528 158.16 51.528L157.264 51.08C156.048 53.32 152.272 59.08 150.48 59.08C149.968 59.08 149.712 58.76 149.712 58.248C149.712 57.8 149.84 57.352 150.224 55.816L155.856 33.224ZM142.48 51.272C140.816 57.544 137.232 60.808 134.224 60.808C132.24 60.808 130.64 59.336 130.64 56.904C130.64 55.88 131.28 52.872 131.6 51.72L133.904 43.208C134.48 40.968 136.208 33.544 141.84 33.544C143.696 33.544 145.552 34.76 145.552 38.28C145.552 40.136 144.784 42.952 144.336 44.552L142.48 51.272ZM179.568 61V33.336H154.66V61H161.836V39.16H172.392V61H179.568ZM192.313 33.224H177.977L177.593 34.312H184.057L173.113 75.08H181.497L186.873 54.152C187.897 61.128 191.929 61.896 193.273 61.896C198.841 61.896 209.657 55.624 209.657 44.744C209.657 36.616 204.985 32.328 200.377 32.328C198.073 32.328 194.169 33.608 190.649 39.432L192.313 33.224ZM189.305 44.68C189.881 42.44 194.425 33.48 199.673 33.48C202.553 33.48 202.425 36.616 202.425 37.192C202.425 39.688 201.337 42.696 200.953 44.104L198.969 51.4C197.817 55.56 196.281 60.744 192.697 60.744C189.817 60.744 187.705 56.776 187.705 53.064C187.705 51.4 187.897 50.056 188.281 48.776L189.305 44.68ZM207.006 47.168C207.006 49.3 207.37 51.276 207.994 53.044C208.618 54.864 209.554 56.424 210.802 57.724C212.05 58.972 213.506 60.012 215.274 60.74C217.042 61.468 218.966 61.832 221.15 61.832C223.386 61.832 225.362 61.468 227.13 60.74C228.898 60.012 230.354 58.972 231.55 57.724C232.746 56.424 233.682 54.864 234.358 53.044C234.982 51.276 235.294 49.3 235.294 47.168C235.294 45.036 234.982 43.06 234.358 41.292C233.682 39.472 232.746 37.912 231.55 36.612C230.354 35.312 228.898 34.324 227.13 33.596C225.362 32.868 223.386 32.504 221.15 32.504C218.966 32.504 217.042 32.868 215.274 33.596C213.506 34.324 212.05 35.312 210.802 36.612C209.554 37.912 208.618 39.472 207.994 41.292C207.37 43.06 207.006 45.036 207.006 47.168ZM214.494 47.168C214.494 46.128 214.65 45.088 214.858 44.048C215.066 43.008 215.43 42.124 216.002 41.292C216.522 40.512 217.198 39.836 218.03 39.368C218.862 38.9 219.902 38.64 221.15 38.64C222.45 38.64 223.542 38.848 224.374 39.316C225.206 39.836 225.882 40.46 226.402 41.24C226.922 42.02 227.286 42.956 227.494 43.996C227.702 45.036 227.806 46.076 227.806 47.168C227.806 48.26 227.702 49.3 227.494 50.34C227.286 51.38 226.922 52.264 226.402 53.044C225.882 53.824 225.206 54.5 224.374 54.968C223.542 55.436 222.45 55.696 221.15 55.696C219.902 55.696 218.862 55.436 218.03 54.968C217.198 54.5 216.522 53.824 216.002 52.992C215.43 52.212 215.066 51.276 214.858 50.236C214.65 49.248 214.494 48.208 214.494 47.168ZM239.886 49.404H258.866C258.866 46.856 258.606 44.568 258.19 42.488C257.774 40.408 257.046 38.588 256.006 37.132C254.966 35.676 253.614 34.532 251.95 33.7C250.286 32.92 248.206 32.504 245.762 32.504C243.422 32.504 241.446 32.868 239.834 33.7C238.17 34.48 236.766 35.52 235.726 36.872C234.686 38.172 233.906 39.68 233.438 41.448C232.918 43.164 232.658 44.984 232.658 46.856C232.658 49.56 233.022 51.848 233.698 53.772C234.374 55.644 235.362 57.204 236.558 58.4C237.754 59.596 239.158 60.48 240.822 61C242.382 61.572 244.15 61.832 245.97 61.832C247.426 61.832 248.726 61.676 249.922 61.364C251.066 61.052 252.106 60.688 253.042 60.168C254.03 59.7 254.81 59.076 255.486 58.452C256.162 57.828 256.734 57.152 257.202 56.476C257.618 55.8 257.93 55.176 258.19 54.5C258.398 53.876 258.502 53.304 258.502 52.784H251.066C250.91 53.304 250.702 53.72 250.39 54.136C250.078 54.5 249.714 54.864 249.298 55.124C248.83 55.436 248.414 55.644 247.894 55.748C247.426 55.904 246.906 56.008 246.386 56.008C245.398 56.008 244.566 55.852 243.89 55.592C243.162 55.384 242.59 55.02 242.122 54.604C241.602 54.24 241.186 53.772 240.926 53.252C240.666 52.784 240.406 52.264 240.25 51.796C240.094 51.276 239.99 50.86 239.99 50.392C239.938 49.976 239.886 49.664 239.886 49.404ZM251.378 44.62H240.146C240.146 43.424 240.302 42.384 240.718 41.552C241.03 40.772 241.498 40.096 242.07 39.628C242.59 39.16 243.214 38.796 243.89 38.588C244.514 38.432 245.19 38.328 245.762 38.328C246.386 38.328 247.01 38.432 247.634 38.588C248.31 38.796 248.934 39.16 249.506 39.628C250.026 40.096 250.494 40.772 250.858 41.552C251.222 42.384 251.378 43.424 251.378 44.62ZM285.661 53C284.189 56.328 281.885 59.912 280.157 59.912C279.645 59.912 279.453 59.656 279.389 59.4C279.325 59.208 279.389 59.016 279.389 58.824C279.517 57.928 279.581 57.608 279.837 56.584C280.157 55.24 280.541 53.832 280.541 52.488C280.541 46.856 275.229 46.152 273.181 46.088L273.373 45.448C275.357 44.808 275.805 42.376 276.957 39.176C278.685 34.568 279.005 33.992 280.413 33.992C280.605 33.992 281.437 33.928 281.437 34.952C281.437 35.464 281.181 35.848 280.925 36.232C280.477 36.808 280.029 37.32 280.029 38.472C280.029 40.328 281.437 41.736 283.741 41.736C286.749 41.736 287.965 39.304 287.965 37.192C287.965 34.696 285.725 32.328 282.141 32.328C278.365 32.328 277.533 34.568 275.293 40.456C273.501 45.128 273.117 45.256 270.749 45.256H267.677L270.749 33.224H256.413L256.093 34.312H262.493L255.325 61H263.581L267.421 46.216H270.109C273.181 46.216 273.629 48.264 273.629 49.224C273.629 49.864 273.501 50.504 273.309 51.144C272.477 54.152 272.157 55.816 272.157 57.224C272.157 60.104 274.205 61.896 277.341 61.896C281.885 61.896 284.061 58.632 286.749 53.32L285.661 53ZM298.957 33.224H284.621L284.301 34.312H290.701L283.533 61H291.789L296.013 44.616C297.485 41.672 303.181 34.44 305.741 34.44C306.445 34.44 307.597 34.888 307.597 36.36C307.597 36.872 307.533 37.64 306.573 41.096L301.197 61H309.453L313.677 44.616C314.765 42.44 320.397 34.44 323.405 34.44C323.981 34.44 324.877 34.696 324.877 36.296C324.877 37.768 324.173 39.56 323.789 41.096L320.845 53C320.525 54.216 320.333 55.24 320.333 56.776C320.333 60.68 323.149 61.896 325.645 61.896C329.101 61.896 332.109 59.144 336.589 51.528L335.693 51.08C334.605 53.128 330.829 59.08 328.909 59.08C328.397 59.08 328.269 58.696 328.205 58.248C328.205 58.056 328.205 57.8 328.205 57.608C328.269 57.288 328.333 57.096 328.653 55.816L331.789 43.272C332.109 41.992 332.685 40.456 332.685 38.664C332.685 34.696 330.445 32.328 326.989 32.328C322.445 32.328 318.349 35.976 314.893 40.648L314.829 40.52C314.957 39.88 315.021 39.304 315.021 38.664C315.021 34.632 312.781 32.328 309.389 32.328C305.677 32.328 301.261 34.888 296.909 41.096L298.957 33.224ZM344.723 33.224H330.387L330.067 34.312H336.531L333.139 46.856C332.627 48.2 332.179 49.672 332.179 51.272C332.179 57.416 335.251 61.896 342.035 61.896C351.187 61.896 358.035 54.984 358.035 49.288C358.035 45.192 355.091 41.864 350.611 41.864C346.451 41.864 343.379 44.296 341.267 47.56L341.075 47.432L344.723 33.224ZM339.667 52.232C341.075 49.416 344.083 44.232 346.643 44.232C347.411 44.232 349.075 44.552 349.075 47.112C349.075 48.52 348.691 49.608 348.371 50.888L347.411 54.472C346.579 57.672 344.915 60.744 341.779 60.744C339.795 60.744 338.515 59.016 338.515 57.032C338.515 56.456 338.643 55.944 338.771 55.432L339.667 52.232ZM374.355 33.224H365.843L360.915 53C360.595 54.216 360.403 55.24 360.403 56.776C360.403 60.936 363.475 61.896 365.651 61.896C368.851 61.896 372.115 59.528 376.659 51.528L375.763 51.08C374.611 53.256 370.771 59.08 368.979 59.08C368.531 59.08 368.211 58.888 368.211 58.248C368.211 57.8 368.339 57.352 368.723 55.816L374.355 33.224Z" fill="#F95B5B"/>
</svg>
