<svg width="676" height="169" viewBox="0 0 676 169" fill="none" xmlns="http://www.w3.org/2000/svg">
<path d="M0 0.899902H37.599C40.9359 0.899902 44.1379 1.18742 47.2389 1.76245C50.323 2.33748 53.0531 3.35225 55.3957 4.80674C57.7551 6.26124 59.6258 8.22311 61.0246 10.6924C62.4234 13.1616 63.1312 16.3074 63.1312 20.0959C63.1312 22.2776 62.8953 24.1718 62.4234 25.7785C61.9515 27.3852 61.3279 28.7552 60.519 29.8883C59.7269 31.0215 58.8 31.9855 57.7551 32.7635C56.7102 33.5415 55.6316 34.2011 54.5193 34.7423C58.1596 36.0446 60.9403 38.091 62.8447 40.9323C64.7491 43.7568 65.7097 47.1393 65.7097 51.0631C65.7097 54.4963 65.1199 57.6083 63.9401 60.3989C62.7604 63.1895 61.092 65.5742 58.9348 67.553C56.7776 69.5318 54.1654 71.0708 51.0645 72.1701C47.9804 73.2695 44.5255 73.8107 40.6999 73.8107H0V0.899902ZM18.8585 29.5162H33.3857C35.5261 29.5162 37.2956 29.3471 38.7113 29.0089C40.1269 28.6706 41.2561 28.1801 42.0819 27.5375C42.9076 26.8948 43.4807 26.083 43.8177 25.1358C44.1548 24.1718 44.3233 23.0556 44.3233 21.7533C44.3233 20.6878 44.1548 19.6899 43.8177 18.7767C43.4807 17.8634 42.9245 17.0854 42.1156 16.4427C41.3235 15.8 40.2449 15.2926 38.9135 14.9036C37.5821 14.5316 35.9137 14.3286 33.9082 14.3286H18.8585V29.5162ZM18.8585 60.3482H33.3857C36.0991 60.3482 38.2899 60.0606 39.9584 59.4856C41.6268 58.9106 42.9076 58.1664 43.8177 57.2869C44.7278 56.3906 45.3345 55.4096 45.621 54.3441C45.9075 53.2786 46.0592 52.2639 46.0592 51.3337C46.0592 49.5578 45.8232 48.0695 45.3513 46.8856C44.8794 45.7017 44.1548 44.7546 43.1436 44.0443C42.1493 43.3339 40.8347 42.8435 39.2169 42.5729C37.599 42.3023 35.644 42.167 33.3857 42.167H18.8585V60.3651V60.3482Z" fill="white"/>
<path d="M121.242 60.4046C113.211 90.3654 93.5336 110.716 72.0492 110.716C57.124 110.716 48.6072 102.441 48.6072 93.9965C48.6072 89.3689 51.8867 82.2418 60.2529 82.2418C67.9665 82.2418 71.3967 87.6969 71.3967 94.3174C71.3967 98.4551 69.4222 99.7724 67.1299 101.428C66.1427 102.086 64.6702 103.083 64.6702 104.248C64.6702 105.734 67.1299 107.727 71.8819 107.727C88.6143 107.727 96.4785 78.9316 102.05 54.7637L102.703 51.9433H102.05C94.1694 64.0188 81.7205 75.9423 69.0876 75.9423C58.0944 75.9423 56.1367 66.1805 56.1367 60.7086C56.1367 56.233 57.7765 50.4401 58.5964 47.6366L70.0748 4.62073H53.5098L54.497 1.80029H91.2245L76.2992 59.729C75.9646 60.8943 74.9941 65.1841 74.9941 66.0117C74.9941 67.4979 75.3288 70.1494 78.9262 70.1494C86.7904 70.1494 100.745 50.9468 104.51 41.8437L115.001 1.80029H136.82L121.242 60.4046V60.4046Z" fill="white"/>
<path d="M198.206 15.3152L163.884 75.6112H160.264L153.694 13.836H152.538L137.589 56.4987C133.315 68.8538 128.723 75.6112 118.869 75.6112C109.668 75.6112 106.216 68.1982 106.216 61.945C106.216 54.7001 112.618 51.8929 116.724 51.8929C121.818 51.8929 126.746 55.3557 126.746 61.6088C126.746 63.4243 125.757 65.7272 124.45 66.887C123.142 67.8788 121.332 68.5344 121.332 70.5179C121.332 71.5097 122.489 72.1652 123.964 72.1652C129.058 72.1652 132.997 61.4575 135.293 55.3557C146.622 24.5437 149.421 16.307 149.421 11.365C149.421 7.73408 147.611 4.77559 140.22 4.77559H135.779L136.768 1.8171H173.068L177.174 46.9509L202.815 1.80029H224.501L210.055 59.9615C209.066 63.9117 208.748 65.0716 208.748 66.2146C208.748 67.5258 209.401 68.3495 210.725 68.3495C215.317 68.3495 225.021 53.5234 228.138 47.7577L230.434 48.9176C217.781 71.1567 209.418 75.6112 202.178 75.6112C196.597 75.6112 188.704 73.1402 188.704 62.4325C188.704 58.4822 189.19 55.8431 190.011 52.7165L199.379 15.3152H198.223H198.206Z" fill="white"/>
<path d="M240.94 43.4961C240.94 44.1498 241.007 45.0214 241.141 46.1109C241.275 47.2004 241.526 48.3737 241.928 49.6476C242.313 50.9215 242.882 52.1954 243.636 53.486C244.373 54.7766 245.378 55.9332 246.617 56.9891C247.856 58.0451 249.38 58.8832 251.189 59.5369C252.998 60.1906 255.175 60.5258 257.704 60.5258C259.01 60.5258 260.317 60.3414 261.59 59.9727C262.879 59.6039 264.068 59.0508 265.157 58.3301C266.245 57.6093 267.2 56.7377 268.004 55.7153C268.808 54.6928 269.394 53.5195 269.746 52.2121H288.922C288.922 53.5195 288.637 55.0113 288.068 56.7042C287.498 58.3803 286.644 60.09 285.488 61.8165C284.333 63.5429 282.876 65.2358 281.134 66.8952C279.392 68.5546 277.316 70.0296 274.921 71.3202C272.526 72.6109 269.813 73.6501 266.781 74.4379C263.75 75.2257 260.384 75.6112 256.666 75.6112C251.909 75.6112 247.454 74.9072 243.284 73.4825C239.114 72.0577 235.48 69.8117 232.365 66.7443C229.25 63.6602 226.788 59.6877 225.013 54.7934C223.22 49.899 222.333 43.9654 222.333 36.9927C222.333 32.1486 222.969 27.4889 224.259 23.0136C225.548 18.5382 227.558 14.5993 230.271 11.1967C233.001 7.7941 236.485 5.07874 240.739 3.0506C244.993 1.02245 250.101 0 256.079 0C262.41 0 267.719 1.03921 272.04 3.11764C276.361 5.19607 279.828 8.12933 282.474 11.9174C285.12 15.7223 286.996 20.2982 288.135 25.6619C289.273 31.0256 289.843 36.9927 289.843 43.5296H240.973L240.94 43.4961ZM270.583 31.1932C270.583 28.042 270.114 25.4272 269.176 23.332C268.238 21.2368 267.066 19.5607 265.642 18.3203C264.219 17.08 262.661 16.2084 260.97 15.7055C259.262 15.2027 257.637 14.9513 256.063 14.9513C254.488 14.9513 252.914 15.2027 251.223 15.7055C249.514 16.2084 247.957 17.08 246.55 18.3203C245.126 19.5607 243.954 21.2368 243.016 23.332C242.078 25.4272 241.609 28.042 241.609 31.1932H270.583Z" fill="white"/>
<path d="M331.989 31.7886L339.534 1.80029H361.182L346.761 59.9615C346.426 61.6088 345.607 64.5673 345.607 66.2146C345.607 67.5258 346.259 68.3495 347.581 68.3495C352.332 68.3495 361.851 53.5234 364.962 47.7577L367.254 48.9176C354.624 71.1567 345.774 75.6112 339.049 75.6112C334.131 75.6112 325.599 73.9639 325.599 62.4325C325.599 58.4822 326.084 55.8431 326.904 52.7165L331.337 34.7639H310.024L300.187 73.3083H279.041L297.393 4.60749H280.831L281.818 1.80029H318.539L310.827 31.7886H331.972H331.989Z" fill="white"/>
<path d="M247.493 107.263L212.917 168.308H209.27L202.652 105.765H201.487L186.427 148.958C182.122 161.466 177.496 168.308 167.569 168.308C158.301 168.308 154.823 160.803 154.823 154.472C154.823 147.137 161.272 144.295 165.408 144.295C170.541 144.295 175.504 147.801 175.504 154.131C175.504 155.969 174.508 158.301 173.191 159.475C171.875 160.479 170.051 161.143 170.051 163.151C170.051 164.155 171.216 164.819 172.702 164.819C177.834 164.819 181.802 153.978 184.115 147.801C195.527 116.623 198.347 108.284 198.347 103.28C198.347 99.6043 196.523 96.609 189.078 96.609H184.604L185.6 93.6138H222.168L226.305 139.308L252.118 93.6138H273.965L259.412 152.481C258.416 156.48 258.095 157.654 258.095 158.812C258.095 160.139 258.753 160.973 260.087 160.973C264.713 160.973 274.488 145.963 277.628 140.125L279.941 141.3C267.212 163.815 258.77 168.325 251.494 168.325C245.872 168.325 237.92 165.823 237.92 154.982C237.92 150.983 238.41 148.311 239.237 145.146L248.658 107.297H247.493V107.263Z" fill="white"/>
<path d="M301.883 168.325C279.212 168.325 270.94 149.771 270.94 134.04C270.94 108.863 296.752 91.8135 317.6 91.8135C334.802 91.8135 346.551 107.376 346.551 124.442C346.551 141.509 328.353 168.325 301.883 168.325ZM290.961 144.145C290.472 146.139 289.476 149.94 289.476 153.083C289.476 163.357 295.756 165.334 299.891 165.334C309.818 165.334 314.122 156.716 317.093 145.953L324.2 119.779C325.028 116.957 326.682 110.84 326.682 106.362C326.682 100.397 323.204 94.7705 317.752 94.7705C304.855 94.7705 300.55 108.356 298.389 116.129L290.944 144.111L290.961 144.145Z" fill="white"/>
<path d="M341.167 93.6138H369.093L381.159 145.871H381.495L393.293 93.6138H420.362V165.624H402.926V107.684H402.657L389.214 165.624H372.298L358.923 107.684H358.587V165.624H341.15V93.6138H341.167Z" fill="white"/>
<path d="M478.698 140.005C464.483 164.185 451.752 168.325 442.512 168.325C424.503 168.325 412.261 154.249 412.261 136.862C412.261 117.65 434.401 91.8135 459.357 91.8135C471.582 91.8135 480.671 98.2683 480.671 108.373C480.671 129.072 455.715 132.063 435.716 133.719L433.575 141.83C431.922 147.963 431.585 150.599 431.585 152.103C431.585 159.724 436.543 165.351 444.974 165.351C458.531 165.351 467.788 152.103 476.54 138.856L478.681 140.022L478.698 140.005ZM436.391 131.066C458.7 131.066 458.7 120.133 460.521 113.679L461.836 108.88C462.494 106.734 462.831 102.915 462.831 100.431C462.831 96.7813 460.184 94.8043 456.558 94.8043C446.98 94.8043 442.849 106.058 440.37 115.842L436.408 131.083L436.391 131.066Z" fill="white"/>
<path d="M477.071 93.6138H495.759V119.641H523.242V93.6138H541.88V165.624H523.242V134.777H495.759V165.624H477.071V93.6138Z" fill="white"/>
<path d="M573.671 114.507C584.904 98.4372 596.289 91.8135 605.855 91.8135C614.596 91.8135 620.373 97.7783 620.373 108.204C620.373 109.86 620.204 111.347 619.884 113.003L620.053 113.341C628.962 101.259 639.538 91.8135 651.243 91.8135C660.152 91.8135 665.929 97.9472 665.929 108.204C665.929 112.834 664.447 116.822 663.621 120.133L655.538 152.593C654.712 155.905 654.544 156.395 654.375 157.223V158.879C654.544 160.045 654.864 161.025 656.194 161.025C661.146 161.025 670.88 145.632 673.693 140.326L676 141.492C664.447 161.194 656.683 168.325 647.774 168.325C641.34 168.325 634.082 165.182 634.082 155.077C634.082 151.106 634.57 148.453 635.395 145.311L642.991 114.507C643.984 110.536 645.803 105.889 645.803 102.087C645.803 97.9472 643.496 97.2882 642.014 97.2882C634.25 97.2882 619.733 117.988 616.92 123.614L606.024 166.01H584.736L598.596 114.507C601.072 105.568 601.241 103.574 601.241 102.256C601.241 98.4541 598.277 97.2882 596.458 97.2882C589.856 97.2882 575.17 116.011 571.364 123.614L560.467 166.01H539.18L557.672 96.9503H541.167L541.992 94.1284H578.959L573.671 114.49V114.507Z" fill="white"/>
</svg>
