<svg width="110" height="64" viewBox="0 0 110 64" fill="none" xmlns="http://www.w3.org/2000/svg">
<path d="M5.42623 26L2 3L21 14.5L10.4098 16.0972L5.42623 26Z" fill="#A54BFF" stroke="#E9D3FF" stroke-width="3"/>
<rect x="26" y="30" width="84" height="29" fill="#A54BFF"/>
<path d="M43.816 44.832C45 45.392 45.592 46.312 45.592 47.592C45.592 48.616 45.24 49.44 44.536 50.064C43.848 50.688 42.888 51 41.656 51H35.512V39H41.176C42.392 39 43.344 39.304 44.032 39.912C44.72 40.52 45.064 41.32 45.064 42.312C45.064 43.448 44.648 44.288 43.816 44.832ZM40.984 41.208H37.984V43.872H40.984C42.04 43.872 42.568 43.424 42.568 42.528C42.568 41.648 42.04 41.208 40.984 41.208ZM37.984 48.744H41.416C42.504 48.744 43.048 48.272 43.048 47.328C43.048 46.912 42.904 46.592 42.616 46.368C42.328 46.128 41.928 46.008 41.416 46.008H37.984V48.744ZM50.2435 46.608L56.3875 39H58.3795V51H55.8355V43.368L49.6915 51H47.6995V39H50.2435V46.608ZM71.539 49.488C70.323 50.704 68.827 51.312 67.051 51.312C65.275 51.312 63.779 50.704 62.563 49.488C61.331 48.256 60.715 46.76 60.715 45C60.715 43.24 61.331 41.744 62.563 40.512C63.779 39.296 65.275 38.688 67.051 38.688C68.827 38.688 70.323 39.296 71.539 40.512C72.771 41.744 73.387 43.24 73.387 45C73.387 46.76 72.771 48.256 71.539 49.488ZM63.307 45C63.307 46.088 63.667 46.992 64.387 47.712C65.107 48.432 65.995 48.792 67.051 48.792C68.107 48.792 68.995 48.432 69.715 47.712C70.435 46.992 70.795 46.088 70.795 45C70.795 43.912 70.435 43.008 69.715 42.288C68.995 41.568 68.107 41.208 67.051 41.208C65.995 41.208 65.107 41.568 64.387 42.288C63.667 43.008 63.307 43.912 63.307 45ZM76.3152 39H85.5072V51H82.9152V41.496H78.9072V45.96C78.9072 47.832 78.4992 49.176 77.6832 49.992C76.8672 50.808 75.6752 51.144 74.1072 51V48.576C74.8432 48.704 75.3952 48.552 75.7632 48.12C76.1312 47.672 76.3152 46.912 76.3152 45.84V39ZM98.0316 40.704V39H100.624V51H98.0316V49.272C97.0556 50.632 95.6556 51.312 93.8316 51.312C92.1836 51.312 90.7756 50.704 89.6076 49.488C88.4396 48.272 87.8556 46.776 87.8556 45C87.8556 43.224 88.4396 41.728 89.6076 40.512C90.7756 39.296 92.1836 38.688 93.8316 38.688C95.6556 38.688 97.0556 39.36 98.0316 40.704ZM91.5276 47.76C92.2476 48.48 93.1516 48.84 94.2396 48.84C95.3276 48.84 96.2316 48.48 96.9516 47.76C97.6716 47.024 98.0316 46.104 98.0316 45C98.0316 43.896 97.6716 42.984 96.9516 42.264C96.2316 41.528 95.3276 41.16 94.2396 41.16C93.1516 41.16 92.2476 41.528 91.5276 42.264C90.8076 42.984 90.4476 43.896 90.4476 45C90.4476 46.088 90.8076 47.008 91.5276 47.76Z" fill="#E9D3FF"/>
</svg>
