<svg width="908" height="500" viewBox="0 0 908 500" fill="none" xmlns="http://www.w3.org/2000/svg">
<rect x="1" y="1" width="906" height="498" stroke="#FB5957" stroke-width="2"/>
<line x1="64.5332" y1="-4.32966e-08" x2="64.5332" y2="500" stroke="#FB5957" stroke-width="2"/>
<line x1="141.304" y1="-4.32966e-08" x2="141.304" y2="500" stroke="#FB5957" stroke-width="2"/>
<line x1="218.073" y1="-4.32966e-08" x2="218.073" y2="500" stroke="#FB5957" stroke-width="2"/>
<line x1="294.843" y1="-4.37114e-08" x2="294.843" y2="500" stroke="#FB5957" stroke-width="2"/>
<line x1="371.612" y1="-4.37114e-08" x2="371.612" y2="500" stroke="#FB5957" stroke-width="2"/>
<line x1="448.382" y1="-4.37114e-08" x2="448.382" y2="500" stroke="#FB5957" stroke-width="2"/>
<line x1="525.151" y1="-4.32966e-08" x2="525.151" y2="500" stroke="#FB5957" stroke-width="2"/>
<line x1="525.151" y1="-4.32966e-08" x2="525.151" y2="500" stroke="#FB5957" stroke-width="2"/>
<line x1="601.922" y1="-4.32966e-08" x2="601.922" y2="500" stroke="#FB5957" stroke-width="2"/>
<line x1="678.691" y1="-4.32966e-08" x2="678.691" y2="500" stroke="#FB5957" stroke-width="2"/>
<line x1="755.461" y1="-4.32966e-08" x2="755.461" y2="500" stroke="#FB5957" stroke-width="2"/>
<line x1="832.23" y1="-4.37114e-08" x2="832.23" y2="500" stroke="#FB5957" stroke-width="2"/>
<line x1="77.7695" y1="-4.37114e-08" x2="77.7696" y2="500" stroke="#FB5957" stroke-width="2"/>
<line x1="154.539" y1="-4.32966e-08" x2="154.539" y2="500" stroke="#FB5957" stroke-width="2"/>
<line x1="231.309" y1="-4.32966e-08" x2="231.309" y2="500" stroke="#FB5957" stroke-width="2"/>
<line x1="308.079" y1="-4.32966e-08" x2="308.079" y2="500" stroke="#FB5957" stroke-width="2"/>
<line x1="384.849" y1="-4.37114e-08" x2="384.849" y2="500" stroke="#FB5957" stroke-width="2"/>
<line x1="461.618" y1="-4.37114e-08" x2="461.618" y2="500" stroke="#FB5957" stroke-width="2"/>
<line x1="538.388" y1="-4.37114e-08" x2="538.388" y2="500" stroke="#FB5957" stroke-width="2"/>
<line x1="538.388" y1="-4.37114e-08" x2="538.388" y2="500" stroke="#FB5957" stroke-width="2"/>
<line x1="691.927" y1="-4.32966e-08" x2="691.927" y2="500" stroke="#FB5957" stroke-width="2"/>
<line x1="615.157" y1="-4.37114e-08" x2="615.157" y2="500" stroke="#FB5957" stroke-width="2"/>
<line x1="768.697" y1="-4.32966e-08" x2="768.697" y2="500" stroke="#FB5957" stroke-width="2"/>
<line x1="845.467" y1="-4.32966e-08" x2="845.467" y2="500" stroke="#FB5957" stroke-width="2"/>
</svg>
